STARTFONT 2.1
FONT -Efont-Fixed-Bold-I-Normal--12-120-75-75-C-120-ISO10646-1
SIZE 12 75 75
FONTBOUNDINGBOX 15 12 -1 -2
STARTPROPERTIES 18
COPYRIGHT "(c) Copyright 2000-2003 /efont/ The Electronic Font Open Laboratory."
FOUNDRY "Efont"
FAMILY_NAME "Fixed"
WEIGHT_NAME "Bold"
SLANT "I"
SETWIDTH_NAME "Normal"
ADD_STYLE_NAME ""
PIXEL_SIZE 12
POINT_SIZE 120
RESOLUTION_X 75
RESOLUTION_Y 75
AVERAGE_WIDTH 120
CHARSET_REGISTRY "ISO10646"
CHARSET_ENCODING "1"
_MULE_BASELINE_OFFSET -3
FONT_ASCENT 10
FONT_DESCENT 2
DEFAULT_CHAR 12288
ENDPROPERTIES
CHARS 21527
STARTCHAR U+005C
ENCODING 92
SWIDTH 1000 0
DWIDTH 12 0
BBX 15 12 -1 -2
BITMAP 
3000
1800
0c00
0c00
0600
0300
0300
0180
00c0
00c0
0060
0030
ENDCHAR
STARTCHAR U+00A0
ENCODING 160
SWIDTH 1000 0
DWIDTH 12 0
BBX 15 12 -1 -2
BITMAP 
0000
0000
0000
0000
0000
0000
0000
0000
0000
0000
0000
aaa0
ENDCHAR
STARTCHAR U+00A1
ENCODING 161
SWIDTH 1000 0
DWIDTH 12 0
BBX 15 12 -1 -2
BITMAP 
0060
0060
0000
00c0
00c0
00c0
0180
0180
0180
0300
0000
0000
ENDCHAR
STARTCHAR U+00A2
ENCODING 162
SWIDTH 1000 0
DWIDTH 12 0
BBX 15 12 -1 -2
BITMAP 
0000
0000
0000
0300
0f00
1b80
7680
7400
7b80
7600
3c00
3000
ENDCHAR
STARTCHAR U+00A3
ENCODING 163
SWIDTH 1000 0
DWIDTH 12 0
BBX 15 12 -1 -2
BITMAP 
0000
00e0
01b0
0300
0700
0700
7f80
0e00
7c30
dec0
7780
0000
ENDCHAR
STARTCHAR U+00A4
ENCODING 164
SWIDTH 1000 0
DWIDTH 12 0
BBX 15 12 -1 -2
BITMAP 
0c06
06ec
06b8
0630
0c18
0c30
0c30
0ee0
1bb0
7030
0000
0000
ENDCHAR
STARTCHAR U+00A5
ENCODING 165
SWIDTH 1000 0
DWIDTH 12 0
BBX 15 12 -1 -2
BITMAP 
0000
1f3e
0638
0660
1ff8
03c0
0300
3ff0
0300
0600
1f80
0000
ENDCHAR
STARTCHAR U+00A6
ENCODING 166
SWIDTH 1000 0
DWIDTH 12 0
BBX 15 12 -1 -2
BITMAP 
0000
0000
00c0
0180
0180
0180
0000
0300
0300
0600
0600
0000
ENDCHAR
STARTCHAR U+00A7
ENCODING 167
SWIDTH 1000 0
DWIDTH 12 0
BBX 15 12 -1 -2
BITMAP 
03c0
0660
0600
0700
0780
0d80
1d80
0f00
0700
0700
3300
1e00
ENDCHAR
STARTCHAR U+00A8
ENCODING 168
SWIDTH 1000 0
DWIDTH 12 0
BBX 15 12 -1 -2
BITMAP 
0770
0770
0000
0000
0000
0000
0000
0000
0000
0000
0000
0000
ENDCHAR
STARTCHAR U+00A9
ENCODING 169
SWIDTH 1000 0
DWIDTH 12 0
BBX 15 12 -1 -2
BITMAP 
0000
03f0
0e30
1bd8
3674
3634
6c18
6c68
6dd0
6760
30c0
1f80
ENDCHAR
STARTCHAR U+00AA
ENCODING 170
SWIDTH 1000 0
DWIDTH 12 0
BBX 15 12 -1 -2
BITMAP 
0000
00e0
01b0
01e0
0360
01d0
0000
07e0
0000
0000
0000
0000
ENDCHAR
STARTCHAR U+00AB
ENCODING 171
SWIDTH 1000 0
DWIDTH 12 0
BBX 15 12 -1 -2
BITMAP 
0000
0000
0000
0000
0000
00d8
01a0
0760
0360
0360
0000
0000
ENDCHAR
STARTCHAR U+00AC
ENCODING 172
SWIDTH 1000 0
DWIDTH 12 0
BBX 15 12 -1 -2
BITMAP 
0000
0000
0000
0000
0000
3ff8
0030
0030
0030
0000
0000
0000
ENDCHAR
STARTCHAR U+00AD
ENCODING 173
SWIDTH 1000 0
DWIDTH 12 0
BBX 15 12 -1 -2
BITMAP 
0000
0000
0000
0000
03f0
0000
0000
0000
0000
0000
0000
0000
ENDCHAR
STARTCHAR U+00AE
ENCODING 174
SWIDTH 1000 0
DWIDTH 12 0
BBX 15 12 -1 -2
BITMAP 
0000
03f0
0e18
1bd8
376c
374c
6f98
6ed8
6ed0
3ee0
30c0
1f80
ENDCHAR
STARTCHAR U+00AF
ENCODING 175
SWIDTH 1000 0
DWIDTH 12 0
BBX 15 12 -1 -2
BITMAP 
0000
0000
03f0
0000
0000
0000
0000
0000
0000
0000
0000
0000
ENDCHAR
STARTCHAR U+00B0
ENCODING 176
SWIDTH 1000 0
DWIDTH 12 0
BBX 15 12 -1 -2
BITMAP 
0000
0c00
1a00
1a00
0c00
0000
0000
0000
0000
0000
0000
0000
ENDCHAR
STARTCHAR U+00B1
ENCODING 177
SWIDTH 1000 0
DWIDTH 12 0
BBX 15 12 -1 -2
BITMAP 
0000
0180
0180
0300
0300
3ff0
0600
0600
0600
0000
ffc0
0000
ENDCHAR
STARTCHAR U+00B2
ENCODING 178
SWIDTH 1000 0
DWIDTH 12 0
BBX 15 12 -1 -2
BITMAP 
0700
0d80
0300
0600
0c00
1f00
0000
0000
0000
0000
0000
0000
ENDCHAR
STARTCHAR U+00B3
ENCODING 179
SWIDTH 1000 0
DWIDTH 12 0
BBX 15 12 -1 -2
BITMAP 
0700
0d80
0300
0300
1b00
0e00
0000
0000
0000
0000
0000
0000
ENDCHAR
STARTCHAR U+00B4
ENCODING 180
SWIDTH 1000 0
DWIDTH 12 0
BBX 15 12 -1 -2
BITMAP 
00c0
0180
0300
0000
0000
0000
0000
0000
0000
0000
0000
0000
ENDCHAR
STARTCHAR U+00B6
ENCODING 182
SWIDTH 1000 0
DWIDTH 12 0
BBX 15 12 -1 -2
BITMAP 
03e0
07a0
07a0
0f40
0740
0340
0680
0680
0680
0d00
0d00
0000
ENDCHAR
STARTCHAR U+00B7
ENCODING 183
SWIDTH 1000 0
DWIDTH 12 0
BBX 15 12 -1 -2
BITMAP 
0000
0000
0000
0000
00c0
0000
0000
0000
0000
0000
0000
0000
ENDCHAR
STARTCHAR U+00B8
ENCODING 184
SWIDTH 1000 0
DWIDTH 12 0
BBX 15 12 -1 -2
BITMAP 
0000
0000
0000
0000
0000
0000
0300
0380
01c0
0f00
0000
0000
ENDCHAR
STARTCHAR U+00B9
ENCODING 185
SWIDTH 1000 0
DWIDTH 12 0
BBX 15 12 -1 -2
BITMAP 
0300
0700
0300
0600
0600
0600
0000
0000
0000
0000
0000
0000
ENDCHAR
STARTCHAR U+00BA
ENCODING 186
SWIDTH 1000 0
DWIDTH 12 0
BBX 15 12 -1 -2
BITMAP 
0000
00e0
01b0
0330
0330
01e0
0000
07e0
0000
0000
0000
0000
ENDCHAR
STARTCHAR U+00BB
ENCODING 187
SWIDTH 1000 0
DWIDTH 12 0
BBX 15 12 -1 -2
BITMAP 
0000
0000
0000
0000
0000
0360
0360
03b0
06e0
0d80
0000
0000
ENDCHAR
STARTCHAR U+00BC
ENCODING 188
SWIDTH 1000 0
DWIDTH 12 0
BBX 15 12 -1 -2
BITMAP 
0300
0706
031c
0630
0660
06d8
0370
0670
1cd0
31f0
6060
0000
ENDCHAR
STARTCHAR U+00BD
ENCODING 189
SWIDTH 1000 0
DWIDTH 12 0
BBX 15 12 -1 -2
BITMAP 
0300
0706
031c
0630
0660
06d8
0368
0618
1c30
30c0
61f0
0000
ENDCHAR
STARTCHAR U+00BE
ENCODING 190
SWIDTH 1000 0
DWIDTH 12 0
BBX 15 12 -1 -2
BITMAP 
0700
0d86
031c
0330
1b60
0ed8
0370
0670
1cd0
31f0
6060
0000
ENDCHAR
STARTCHAR U+00BF
ENCODING 191
SWIDTH 1000 0
DWIDTH 12 0
BBX 15 12 -1 -2
BITMAP 
0060
0060
0000
00c0
00c0
0180
0360
0660
0340
0380
0000
0000
ENDCHAR
STARTCHAR U+00C0
ENCODING 192
SWIDTH 1000 0
DWIDTH 12 0
BBX 15 12 -1 -2
BITMAP 
0000
0180
00c0
00c0
03c0
06e0
0dc0
1fc0
18e0
71c0
f9e0
0000
ENDCHAR
STARTCHAR U+00C1
ENCODING 193
SWIDTH 1000 0
DWIDTH 12 0
BBX 15 12 -1 -2
BITMAP 
0000
0060
00c0
0180
03c0
06e0
0dc0
1fc0
18e0
71c0
f9e0
0000
ENDCHAR
STARTCHAR U+00C2
ENCODING 194
SWIDTH 1000 0
DWIDTH 12 0
BBX 15 12 -1 -2
BITMAP 
0000
00c0
03a0
0660
03c0
06e0
0dc0
1fc0
18e0
71c0
f9e0
0000
ENDCHAR
STARTCHAR U+00C3
ENCODING 195
SWIDTH 1000 0
DWIDTH 12 0
BBX 15 12 -1 -2
BITMAP 
0000
03b0
06e0
0000
03c0
06e0
0dc0
1fc0
18e0
71c0
f9e0
0000
ENDCHAR
STARTCHAR U+00C4
ENCODING 196
SWIDTH 1000 0
DWIDTH 12 0
BBX 15 12 -1 -2
BITMAP 
0000
03b0
03b0
0000
03c0
06e0
0dc0
1fc0
18e0
71c0
f9e0
0000
ENDCHAR
STARTCHAR U+00C5
ENCODING 197
SWIDTH 1000 0
DWIDTH 12 0
BBX 15 12 -1 -2
BITMAP 
0000
0180
0340
0340
03c0
06e0
0dc0
1fc0
18e0
71c0
f9e0
0000
ENDCHAR
STARTCHAR U+00C6
ENCODING 198
SWIDTH 1000 0
DWIDTH 12 0
BBX 15 12 -1 -2
BITMAP 
007c
00e0
00e0
01c0
0370
06c0
0f80
1980
19f0
0000
0000
0000
ENDCHAR
STARTCHAR U+00C7
ENCODING 199
SWIDTH 1000 0
DWIDTH 12 0
BBX 15 12 -1 -2
BITMAP 
0000
01e8
0338
0e30
1c30
1c00
3800
1c60
0de0
0700
0600
1c00
ENDCHAR
STARTCHAR U+00C8
ENCODING 200
SWIDTH 1000 0
DWIDTH 12 0
BBX 15 12 -1 -2
BITMAP 
0000
0180
00c0
1ff0
0e18
0ec0
1f80
1d80
1c30
3860
7fc0
0000
ENDCHAR
STARTCHAR U+00C9
ENCODING 201
SWIDTH 1000 0
DWIDTH 12 0
BBX 15 12 -1 -2
BITMAP 
0000
00c0
0180
1ff0
0e18
0ec0
1f80
1d80
1c30
3860
7fc0
0000
ENDCHAR
STARTCHAR U+00CA
ENCODING 202
SWIDTH 1000 0
DWIDTH 12 0
BBX 15 12 -1 -2
BITMAP 
0000
01c0
0360
1ff0
0e18
0ec0
1f80
1d80
1c30
3860
7fc0
0000
ENDCHAR
STARTCHAR U+00CB
ENCODING 203
SWIDTH 1000 0
DWIDTH 12 0
BBX 15 12 -1 -2
BITMAP 
0000
03b0
03b0
1ff0
0e18
0ec0
1f80
1d80
1c30
3860
7fc0
0000
ENDCHAR
STARTCHAR U+00CC
ENCODING 204
SWIDTH 1000 0
DWIDTH 12 0
BBX 15 12 -1 -2
BITMAP 
0000
0180
00c0
07c0
0380
0380
0700
0700
0700
0e00
1f00
0000
ENDCHAR
STARTCHAR U+00CD
ENCODING 205
SWIDTH 1000 0
DWIDTH 12 0
BBX 15 12 -1 -2
BITMAP 
0000
00c0
0180
07c0
0380
0380
0700
0700
0700
0e00
1f00
0000
ENDCHAR
STARTCHAR U+00CE
ENCODING 206
SWIDTH 1000 0
DWIDTH 12 0
BBX 15 12 -1 -2
BITMAP 
0000
00c0
01a0
0360
07c0
0380
0700
0700
0700
0e00
1f00
0000
ENDCHAR
STARTCHAR U+00CF
ENCODING 207
SWIDTH 1000 0
DWIDTH 12 0
BBX 15 12 -1 -2
BITMAP 
0000
03b0
03b0
0000
07c0
0380
0700
0700
0700
0e00
1f00
0000
ENDCHAR
STARTCHAR U+00D0
ENCODING 208
SWIDTH 1000 0
DWIDTH 12 0
BBX 15 12 -1 -2
BITMAP 
01f0
0198
0198
0fd8
0318
0318
0630
0660
07c0
0000
0000
0000
ENDCHAR
STARTCHAR U+00D1
ENCODING 209
SWIDTH 1000 0
DWIDTH 12 0
BBX 15 12 -1 -2
BITMAP 
0000
01d8
0360
1e38
0f30
0db0
1ba0
1ba0
19e0
31c0
78c0
0000
ENDCHAR
STARTCHAR U+00D2
ENCODING 210
SWIDTH 1000 0
DWIDTH 12 0
BBX 15 12 -1 -2
BITMAP 
0000
0180
00c0
03c0
0e70
1c38
3870
3870
3870
39c0
0f00
0000
ENDCHAR
STARTCHAR U+00D3
ENCODING 211
SWIDTH 1000 0
DWIDTH 12 0
BBX 15 12 -1 -2
BITMAP 
0000
0060
01c0
0340
0e70
1c38
3870
3870
3870
39c0
0f00
0000
ENDCHAR
STARTCHAR U+00D4
ENCODING 212
SWIDTH 1000 0
DWIDTH 12 0
BBX 15 12 -1 -2
BITMAP 
0000
00c0
03a0
0660
03c0
0e70
3870
3870
3870
39c0
0f00
0000
ENDCHAR
STARTCHAR U+00D5
ENCODING 213
SWIDTH 1000 0
DWIDTH 12 0
BBX 15 12 -1 -2
BITMAP 
0000
03b0
06e0
03a0
0e30
1c38
3870
3870
3870
39c0
0f00
0000
ENDCHAR
STARTCHAR U+00D6
ENCODING 214
SWIDTH 1000 0
DWIDTH 12 0
BBX 15 12 -1 -2
BITMAP 
0000
03b0
03b0
03c0
0e70
1c38
3870
3870
3870
39c0
0f00
0000
ENDCHAR
STARTCHAR U+00D7
ENCODING 215
SWIDTH 1000 0
DWIDTH 12 0
BBX 15 12 -1 -2
BITMAP 
0000
0000
0c38
0c60
06c0
0680
0700
0d80
38c0
60c0
0000
0000
ENDCHAR
STARTCHAR U+00D8
ENCODING 216
SWIDTH 1000 0
DWIDTH 12 0
BBX 15 12 -1 -2
BITMAP 
00e6
01b4
0318
0670
06d0
07b0
0e60
0ec0
1b80
0000
0000
0000
ENDCHAR
STARTCHAR U+00D9
ENCODING 217
SWIDTH 1000 0
DWIDTH 12 0
BBX 15 12 -1 -2
BITMAP 
0000
0180
00c0
1e78
0e30
0e30
1c60
1c60
1c60
1dc0
0f00
0000
ENDCHAR
STARTCHAR U+00DA
ENCODING 218
SWIDTH 1000 0
DWIDTH 12 0
BBX 15 12 -1 -2
BITMAP 
0000
0060
01c0
1f78
0e30
0e30
1c60
1c60
1c60
1dc0
0f00
0000
ENDCHAR
STARTCHAR U+00DB
ENCODING 219
SWIDTH 1000 0
DWIDTH 12 0
BBX 15 12 -1 -2
BITMAP 
0000
00c0
03a0
1e38
0e30
0e30
1c60
1c60
1c60
1dc0
0f00
0000
ENDCHAR
STARTCHAR U+00DC
ENCODING 220
SWIDTH 1000 0
DWIDTH 12 0
BBX 15 12 -1 -2
BITMAP 
0000
03b0
03b0
1e78
0e30
0e30
1c60
1c60
1c60
1dc0
0f00
0000
ENDCHAR
STARTCHAR U+00DD
ENCODING 221
SWIDTH 1000 0
DWIDTH 12 0
BBX 15 12 -1 -2
BITMAP 
0000
0060
01c0
1f78
0e30
0760
0f80
0700
0700
0e00
1f00
0000
ENDCHAR
STARTCHAR U+00DE
ENCODING 222
SWIDTH 1000 0
DWIDTH 12 0
BBX 15 12 -1 -2
BITMAP 
03c0
0180
01e0
0330
0330
0360
07c0
0600
0600
0000
0000
0000
ENDCHAR
STARTCHAR U+00DF
ENCODING 223
SWIDTH 1000 0
DWIDTH 12 0
BBX 15 12 -1 -2
BITMAP 
00e0
01b0
01a0
0340
0360
0360
0660
0760
06c0
0000
0000
0000
ENDCHAR
STARTCHAR U+00E0
ENCODING 224
SWIDTH 1000 0
DWIDTH 12 0
BBX 15 12 -1 -2
BITMAP 
0000
0000
0180
0180
00c0
07c0
01c0
0fc0
1dc0
3b80
1ec0
0000
ENDCHAR
STARTCHAR U+00E1
ENCODING 225
SWIDTH 1000 0
DWIDTH 12 0
BBX 15 12 -1 -2
BITMAP 
0000
0000
00e0
0180
0300
07c0
01c0
0fc0
1dc0
3b80
1ec0
0000
ENDCHAR
STARTCHAR U+00E2
ENCODING 226
SWIDTH 1000 0
DWIDTH 12 0
BBX 15 12 -1 -2
BITMAP 
0000
0000
01c0
0340
0660
07c0
01c0
0fc0
1dc0
3b80
1ec0
0000
ENDCHAR
STARTCHAR U+00E3
ENCODING 227
SWIDTH 1000 0
DWIDTH 12 0
BBX 15 12 -1 -2
BITMAP 
0000
0000
07b0
0cc0
0000
07c0
01c0
0fc0
1dc0
3b80
1ec0
0000
ENDCHAR
STARTCHAR U+00E4
ENCODING 228
SWIDTH 1000 0
DWIDTH 12 0
BBX 15 12 -1 -2
BITMAP 
0000
0000
03b0
0760
0000
07c0
01c0
0fc0
1dc0
3b80
1ec0
0000
ENDCHAR
STARTCHAR U+00E5
ENCODING 229
SWIDTH 1000 0
DWIDTH 12 0
BBX 15 12 -1 -2
BITMAP 
0000
0000
0380
06c0
0380
0780
01c0
0fc0
1dc0
3b80
1ec0
0000
ENDCHAR
STARTCHAR U+00E6
ENCODING 230
SWIDTH 1000 0
DWIDTH 12 0
BBX 15 12 -1 -2
BITMAP 
0000
0000
0000
03b0
06d8
03f8
0680
0db0
0760
0000
0000
0000
ENDCHAR
STARTCHAR U+00E7
ENCODING 231
SWIDTH 1000 0
DWIDTH 12 0
BBX 15 12 -1 -2
BITMAP 
0000
0000
0000
0000
0000
07e0
1cc0
1c00
1dc0
1f00
0600
1c00
ENDCHAR
STARTCHAR U+00E8
ENCODING 232
SWIDTH 1000 0
DWIDTH 12 0
BBX 15 12 -1 -2
BITMAP 
0000
0000
0180
0180
00c0
07c0
1ce0
1fe0
1c00
38c0
1f80
0000
ENDCHAR
STARTCHAR U+00E9
ENCODING 233
SWIDTH 1000 0
DWIDTH 12 0
BBX 15 12 -1 -2
BITMAP 
0000
0000
00e0
0180
0300
07e0
1ce0
1fe0
1c00
38c0
1f80
0000
ENDCHAR
STARTCHAR U+00EA
ENCODING 234
SWIDTH 1000 0
DWIDTH 12 0
BBX 15 12 -1 -2
BITMAP 
0000
0000
01c0
0340
0660
07e0
1ce0
1fe0
1c00
38c0
1f80
0000
ENDCHAR
STARTCHAR U+00EB
ENCODING 235
SWIDTH 1000 0
DWIDTH 12 0
BBX 15 12 -1 -2
BITMAP 
0000
0000
03b0
0760
0000
07e0
1ce0
1fe0
1c00
38c0
1f80
0000
ENDCHAR
STARTCHAR U+00EC
ENCODING 236
SWIDTH 1000 0
DWIDTH 12 0
BBX 15 12 -1 -2
BITMAP 
0000
0000
0300
0300
0180
0780
0700
0700
0700
0e00
1f00
0000
ENDCHAR
STARTCHAR U+00ED
ENCODING 237
SWIDTH 1000 0
DWIDTH 12 0
BBX 15 12 -1 -2
BITMAP 
0000
0000
01c0
0300
0600
0780
0700
0700
0700
0e00
1f00
0000
ENDCHAR
STARTCHAR U+00EE
ENCODING 238
SWIDTH 1000 0
DWIDTH 12 0
BBX 15 12 -1 -2
BITMAP 
0000
0000
0380
0680
0cc0
0780
0700
0700
0700
0e00
1f00
0000
ENDCHAR
STARTCHAR U+00EF
ENCODING 239
SWIDTH 1000 0
DWIDTH 12 0
BBX 15 12 -1 -2
BITMAP 
0000
0000
0760
0ec0
0000
0780
0700
0700
0700
0e00
1f00
0000
ENDCHAR
STARTCHAR U+00F0
ENCODING 240
SWIDTH 1000 0
DWIDTH 12 0
BBX 15 12 -1 -2
BITMAP 
01e0
033c
01f0
0760
0060
07e0
0cc0
0cc0
0780
0000
0000
0000
ENDCHAR
STARTCHAR U+00F1
ENCODING 241
SWIDTH 1000 0
DWIDTH 12 0
BBX 15 12 -1 -2
BITMAP 
0000
0000
07b0
0cc0
0000
0fe0
0ee0
0ee0
0ee0
1dc0
3de0
0000
ENDCHAR
STARTCHAR U+00F2
ENCODING 242
SWIDTH 1000 0
DWIDTH 12 0
BBX 15 12 -1 -2
BITMAP 
0000
0000
0180
0180
00c0
07c0
1ce0
1ce0
1ce0
39c0
1f80
0000
ENDCHAR
STARTCHAR U+00F3
ENCODING 243
SWIDTH 1000 0
DWIDTH 12 0
BBX 15 12 -1 -2
BITMAP 
0000
0000
00e0
0180
0300
07e0
1ce0
1ce0
1ce0
39c0
1f80
0000
ENDCHAR
STARTCHAR U+00F4
ENCODING 244
SWIDTH 1000 0
DWIDTH 12 0
BBX 15 12 -1 -2
BITMAP 
0000
0000
01c0
0340
0660
07e0
1ce0
1ce0
1ce0
39c0
1f80
0000
ENDCHAR
STARTCHAR U+00F5
ENCODING 245
SWIDTH 1000 0
DWIDTH 12 0
BBX 15 12 -1 -2
BITMAP 
0000
0000
07b0
0cc0
0000
07e0
1ce0
1ce0
1ce0
39c0
1f80
0000
ENDCHAR
STARTCHAR U+00F6
ENCODING 246
SWIDTH 1000 0
DWIDTH 12 0
BBX 15 12 -1 -2
BITMAP 
0000
0000
03b0
0760
0000
07e0
1ce0
1ce0
1ce0
39c0
1f80
0000
ENDCHAR
STARTCHAR U+00F7
ENCODING 247
SWIDTH 1000 0
DWIDTH 12 0
BBX 15 12 -1 -2
BITMAP 
0000
0000
0380
0700
0000
0000
7fe0
0000
0000
1c00
1c00
0000
ENDCHAR
STARTCHAR U+00F8
ENCODING 248
SWIDTH 1000 0
DWIDTH 12 0
BBX 15 12 -1 -2
BITMAP 
0030
0030
00f0
01d0
0350
0360
03c0
0300
0300
0000
0000
0000
ENDCHAR
STARTCHAR U+00F9
ENCODING 249
SWIDTH 1000 0
DWIDTH 12 0
BBX 15 12 -1 -2
BITMAP 
0000
0000
0180
0180
00c0
0f70
0ee0
0ee0
0ee0
1dc0
0f60
0000
ENDCHAR
STARTCHAR U+00FA
ENCODING 250
SWIDTH 1000 0
DWIDTH 12 0
BBX 15 12 -1 -2
BITMAP 
0000
0000
00e0
0180
0300
0f70
0ee0
0ee0
0ee0
1dc0
0f60
0000
ENDCHAR
STARTCHAR U+00FB
ENCODING 251
SWIDTH 1000 0
DWIDTH 12 0
BBX 15 12 -1 -2
BITMAP 
0000
0000
01c0
0340
0660
0f70
0ee0
0ee0
0ee0
1dc0
0f60
0000
ENDCHAR
STARTCHAR U+00FC
ENCODING 252
SWIDTH 1000 0
DWIDTH 12 0
BBX 15 12 -1 -2
BITMAP 
0000
0000
03b0
0760
0000
0f70
0ee0
0ee0
0ee0
1dc0
0f60
0000
ENDCHAR
STARTCHAR U+00FD
ENCODING 253
SWIDTH 1000 0
DWIDTH 12 0
BBX 15 12 -1 -2
BITMAP 
0000
0000
0070
00c0
0180
0f78
0e60
0740
07c0
0700
3a00
3c00
ENDCHAR
STARTCHAR U+00FE
ENCODING 254
SWIDTH 1000 0
DWIDTH 12 0
BBX 15 12 -1 -2
BITMAP 
0000
0000
00c0
01e0
01b0
01b0
0360
03c0
0300
0600
0000
0000
ENDCHAR
STARTCHAR U+00FF
ENCODING 255
SWIDTH 1000 0
DWIDTH 12 0
BBX 15 12 -1 -2
BITMAP 
0000
0000
03b0
0760
0000
0f78
0e60
0740
07c0
0700
3a00
3c00
ENDCHAR
STARTCHAR U+0100
ENCODING 256
SWIDTH 1000 0
DWIDTH 12 0
BBX 15 12 -1 -2
BITMAP 
0000
03f0
0000
01c0
03c0
06e0
0dc0
1fc0
18e0
71c0
f9e0
0000
ENDCHAR
STARTCHAR U+0101
ENCODING 257
SWIDTH 1000 0
DWIDTH 12 0
BBX 15 12 -1 -2
BITMAP 
0000
0000
0000
07c0
0000
07c0
01c0
0fc0
1dc0
3b80
1ec0
0000
ENDCHAR
STARTCHAR U+0102
ENCODING 258
SWIDTH 1000 0
DWIDTH 12 0
BBX 15 12 -1 -2
BITMAP 
0000
0360
01c0
0000
03c0
06e0
0dc0
1fc0
18e0
71c0
f9e0
0000
ENDCHAR
STARTCHAR U+0103
ENCODING 259
SWIDTH 1000 0
DWIDTH 12 0
BBX 15 12 -1 -2
BITMAP 
0000
0000
0360
0180
0000
07c0
01c0
0fc0
1dc0
3b80
1ec0
0000
ENDCHAR
STARTCHAR U+0104
ENCODING 260
SWIDTH 1000 0
DWIDTH 12 0
BBX 15 12 -1 -2
BITMAP 
0000
00c0
00c0
03c0
03c0
06e0
0fc0
1dc0
18e0
f9e0
00c0
0070
ENDCHAR
STARTCHAR U+0105
ENCODING 261
SWIDTH 1000 0
DWIDTH 12 0
BBX 15 12 -1 -2
BITMAP 
0000
0000
0000
0000
0000
07c0
01c0
0fc0
1dc0
3b80
1e80
00e0
ENDCHAR
STARTCHAR U+0106
ENCODING 262
SWIDTH 1000 0
DWIDTH 12 0
BBX 15 12 -1 -2
BITMAP 
0000
00c0
0180
03d0
0670
0e30
3800
3800
1860
19c0
0f00
0000
ENDCHAR
STARTCHAR U+0107
ENCODING 263
SWIDTH 1000 0
DWIDTH 12 0
BBX 15 12 -1 -2
BITMAP 
0000
0000
00e0
0180
0300
07e0
1cc0
1c00
1c00
3980
1f00
0000
ENDCHAR
STARTCHAR U+0108
ENCODING 264
SWIDTH 1000 0
DWIDTH 12 0
BBX 15 12 -1 -2
BITMAP 
0000
00c0
01a0
0360
07d0
0e70
3860
3800
1860
19c0
0f00
0000
ENDCHAR
STARTCHAR U+0109
ENCODING 265
SWIDTH 1000 0
DWIDTH 12 0
BBX 15 12 -1 -2
BITMAP 
0000
0000
01c0
0340
0660
07e0
1cc0
1c00
1c00
3980
1f00
0000
ENDCHAR
STARTCHAR U+010C
ENCODING 268
SWIDTH 1000 0
DWIDTH 12 0
BBX 15 12 -1 -2
BITMAP 
0000
0330
0360
03b0
0630
0e30
3800
3800
1860
19c0
0f00
0000
ENDCHAR
STARTCHAR U+010D
ENCODING 269
SWIDTH 1000 0
DWIDTH 12 0
BBX 15 12 -1 -2
BITMAP 
0000
0000
0370
0340
0180
07e0
1cc0
1c00
1c00
3980
1f00
0000
ENDCHAR
STARTCHAR U+010E
ENCODING 270
SWIDTH 1000 0
DWIDTH 12 0
BBX 15 12 -1 -2
BITMAP 
0000
0330
01a0
1fc0
0e60
0e60
1c70
1c70
1cc0
3980
7f00
0000
ENDCHAR
STARTCHAR U+010F
ENCODING 271
SWIDTH 1000 0
DWIDTH 12 0
BBX 15 12 -1 -2
BITMAP 
0000
0660
03c0
0360
00e0
07e0
1dc0
1dc0
1dc0
3b80
1fc0
0000
ENDCHAR
STARTCHAR U+0111
ENCODING 273
SWIDTH 1000 0
DWIDTH 12 0
BBX 15 12 -1 -2
BITMAP 
0030
0030
01fc
0060
03e0
0660
0cc0
0cc0
07c0
0000
0000
0000
ENDCHAR
STARTCHAR U+0112
ENCODING 274
SWIDTH 1000 0
DWIDTH 12 0
BBX 15 12 -1 -2
BITMAP 
0000
03f0
0000
1ff0
0e18
0ec0
1f80
1d80
1c30
3860
7fc0
0000
ENDCHAR
STARTCHAR U+0113
ENCODING 275
SWIDTH 1000 0
DWIDTH 12 0
BBX 15 12 -1 -2
BITMAP 
0000
0000
0000
07e0
0000
07e0
1ce0
1fe0
1c00
38c0
1f80
0000
ENDCHAR
STARTCHAR U+0118
ENCODING 280
SWIDTH 1000 0
DWIDTH 12 0
BBX 15 12 -1 -2
BITMAP 
0000
0ff8
070c
0e00
0ec0
0fc0
1d80
1c30
1c60
7fc0
0180
00e0
ENDCHAR
STARTCHAR U+0119
ENCODING 281
SWIDTH 1000 0
DWIDTH 12 0
BBX 15 12 -1 -2
BITMAP 
0000
0000
0000
0000
0000
07e0
1ce0
1fe0
1c00
38c0
1f80
01e0
ENDCHAR
STARTCHAR U+011A
ENCODING 282
SWIDTH 1000 0
DWIDTH 12 0
BBX 15 12 -1 -2
BITMAP 
0000
0330
01e0
1fb0
0e18
0ec0
1f80
1d80
1c30
3860
7fc0
0000
ENDCHAR
STARTCHAR U+011B
ENCODING 283
SWIDTH 1000 0
DWIDTH 12 0
BBX 15 12 -1 -2
BITMAP 
0000
0000
0370
0340
0180
07e0
1ce0
1fe0
1c00
38c0
1f80
0000
ENDCHAR
STARTCHAR U+011C
ENCODING 284
SWIDTH 1000 0
DWIDTH 12 0
BBX 15 12 -1 -2
BITMAP 
0000
00c0
01a0
0360
07d0
0e70
3800
39f0
18e0
19c0
0f40
0000
ENDCHAR
STARTCHAR U+011D
ENCODING 285
SWIDTH 1000 0
DWIDTH 12 0
BBX 15 12 -1 -2
BITMAP 
0000
0000
01c0
0340
0670
07e0
1dc0
1d80
0f00
1f80
31c0
1f80
ENDCHAR
STARTCHAR U+0124
ENCODING 292
SWIDTH 1000 0
DWIDTH 12 0
BBX 15 12 -1 -2
BITMAP 
0000
00c0
03a0
1e78
0e70
0e70
1fe0
1ce0
1ce0
39c0
79e0
0000
ENDCHAR
STARTCHAR U+0125
ENCODING 293
SWIDTH 1000 0
DWIDTH 12 0
BBX 15 12 -1 -2
BITMAP 
0000
07a0
03d0
0730
0700
07e0
0ee0
0ee0
0ee0
1dc0
3de0
0000
ENDCHAR
STARTCHAR U+0126
ENCODING 294
SWIDTH 1000 0
DWIDTH 12 0
BBX 15 12 -1 -2
BITMAP 
0318
0ffe
0318
0630
07f0
0630
0c60
0c60
0c60
0000
0000
0000
ENDCHAR
STARTCHAR U+0127
ENCODING 295
SWIDTH 1000 0
DWIDTH 12 0
BBX 15 12 -1 -2
BITMAP 
0180
07f0
0180
0300
03c0
0360
0660
0660
0660
0000
0000
0000
ENDCHAR
STARTCHAR U+012A
ENCODING 298
SWIDTH 1000 0
DWIDTH 12 0
BBX 15 12 -1 -2
BITMAP 
0000
03e0
0000
07c0
0380
0380
0700
0700
0700
0e00
1f00
0000
ENDCHAR
STARTCHAR U+012B
ENCODING 299
SWIDTH 1000 0
DWIDTH 12 0
BBX 15 12 -1 -2
BITMAP 
0000
0000
0000
07c0
0000
0780
0700
0700
0700
0e00
1f00
0000
ENDCHAR
STARTCHAR U+0131
ENCODING 305
SWIDTH 1000 0
DWIDTH 12 0
BBX 15 12 -1 -2
BITMAP 
0000
0000
0000
00c0
00c0
00c0
0180
0180
0180
0000
0000
0000
ENDCHAR
STARTCHAR U+0132
ENCODING 306
SWIDTH 1000 0
DWIDTH 12 0
BBX 15 12 -1 -2
BITMAP 
030c
030c
030c
0618
0618
0618
0db0
0db0
0ce0
0000
0000
0000
ENDCHAR
STARTCHAR U+0133
ENCODING 307
SWIDTH 1000 0
DWIDTH 12 0
BBX 15 12 -1 -2
BITMAP 
0198
0000
0000
0330
0330
0330
0660
0660
06c0
0380
0000
0000
ENDCHAR
STARTCHAR U+0134
ENCODING 308
SWIDTH 1000 0
DWIDTH 12 0
BBX 15 12 -1 -2
BITMAP 
0000
00c0
03c0
06f0
00e0
00e0
01c0
01c0
19c0
3b00
1e00
0000
ENDCHAR
STARTCHAR U+0135
ENCODING 309
SWIDTH 1000 0
DWIDTH 12 0
BBX 15 12 -1 -2
BITMAP 
0000
0000
01c0
0340
0660
03c0
0380
0380
0380
0700
6600
7c00
ENDCHAR
STARTCHAR U+0138
ENCODING 312
SWIDTH 1000 0
DWIDTH 12 0
BBX 15 12 -1 -2
BITMAP 
0180
0180
01b8
0360
0340
0380
0680
06c0
0660
0000
0000
0000
ENDCHAR
STARTCHAR U+0139
ENCODING 313
SWIDTH 1000 0
DWIDTH 12 0
BBX 15 12 -1 -2
BITMAP 
0000
0030
0fa0
0ec0
0e00
0e00
1c00
1c00
1c30
3860
7fc0
0000
ENDCHAR
STARTCHAR U+013A
ENCODING 314
SWIDTH 1000 0
DWIDTH 12 0
BBX 15 12 -1 -2
BITMAP 
0000
00c0
0180
0780
0380
0380
0700
0700
0700
0e00
1f00
0000
ENDCHAR
STARTCHAR U+013D
ENCODING 317
SWIDTH 1000 0
DWIDTH 12 0
BBX 15 12 -1 -2
BITMAP 
0000
0f98
0750
0ee0
0e00
0e00
1c00
1c00
1c30
3860
7fc0
0000
ENDCHAR
STARTCHAR U+013E
ENCODING 318
SWIDTH 1000 0
DWIDTH 12 0
BBX 15 12 -1 -2
BITMAP 
0000
0330
01e0
0780
0380
0380
0700
0700
0700
0e00
1f00
0000
ENDCHAR
STARTCHAR U+013F
ENCODING 319
SWIDTH 1000 0
DWIDTH 12 0
BBX 15 12 -1 -2
BITMAP 
0180
0180
0180
0330
0330
0300
0600
0600
07e0
0000
0000
0000
ENDCHAR
STARTCHAR U+0140
ENCODING 320
SWIDTH 1000 0
DWIDTH 12 0
BBX 15 12 -1 -2
BITMAP 
0180
0180
0180
0330
0330
0300
0600
0600
0600
0000
0000
0000
ENDCHAR
STARTCHAR U+0141
ENCODING 321
SWIDTH 1000 0
DWIDTH 12 0
BBX 15 12 -1 -2
BITMAP 
0180
01b8
01e0
0700
1d00
0300
0600
0600
07e0
0000
0000
0000
ENDCHAR
STARTCHAR U+0142
ENCODING 322
SWIDTH 1000 0
DWIDTH 12 0
BBX 15 12 -1 -2
BITMAP 
0068
0068
0070
00e0
00c0
00c0
0380
0380
0680
0000
0000
0000
ENDCHAR
STARTCHAR U+0143
ENCODING 323
SWIDTH 1000 0
DWIDTH 12 0
BBX 15 12 -1 -2
BITMAP 
0000
0060
0edc
0f30
0f30
0db0
1ba0
1ba0
19e0
31c0
78c0
0000
ENDCHAR
STARTCHAR U+0144
ENCODING 324
SWIDTH 1000 0
DWIDTH 12 0
BBX 15 12 -1 -2
BITMAP 
0000
0000
00e0
0180
0300
0fe0
0ee0
0ee0
0ee0
1dc0
3de0
0000
ENDCHAR
STARTCHAR U+0147
ENCODING 327
SWIDTH 1000 0
DWIDTH 12 0
BBX 15 12 -1 -2
BITMAP 
0000
03b0
0efc
0e30
0f30
0db0
1ba0
1ba0
19e0
31c0
78c0
0000
ENDCHAR
STARTCHAR U+0148
ENCODING 328
SWIDTH 1000 0
DWIDTH 12 0
BBX 15 12 -1 -2
BITMAP 
0000
0000
0370
0340
0180
0fe0
0ee0
0ee0
0ee0
1dc0
3de0
0000
ENDCHAR
STARTCHAR U+0149
ENCODING 329
SWIDTH 1000 0
DWIDTH 12 0
BBX 15 12 -1 -2
BITMAP 
0000
0600
0c00
1bc0
0360
0360
06c0
06c0
06c0
0000
0000
0000
ENDCHAR
STARTCHAR U+014A
ENCODING 330
SWIDTH 1000 0
DWIDTH 12 0
BBX 15 12 -1 -2
BITMAP 
0180
0180
0180
0360
03b0
0330
0660
06c0
0680
0000
0000
0000
ENDCHAR
STARTCHAR U+014B
ENCODING 331
SWIDTH 1000 0
DWIDTH 12 0
BBX 15 12 -1 -2
BITMAP 
0000
0000
0000
0360
03b0
0330
0660
0060
00c0
0780
0000
0000
ENDCHAR
STARTCHAR U+014C
ENCODING 332
SWIDTH 1000 0
DWIDTH 12 0
BBX 15 12 -1 -2
BITMAP 
0000
03f0
0000
03c0
0e70
1c38
3870
3870
3870
39c0
0f00
0000
ENDCHAR
STARTCHAR U+014D
ENCODING 333
SWIDTH 1000 0
DWIDTH 12 0
BBX 15 12 -1 -2
BITMAP 
0000
0000
0000
07e0
0000
0380
06c0
1ce0
1ce0
0d80
0700
0000
ENDCHAR
STARTCHAR U+0150
ENCODING 336
SWIDTH 1000 0
DWIDTH 12 0
BBX 15 12 -1 -2
BITMAP 
0000
01b0
0360
03a0
0e30
1c38
3870
3870
3870
39c0
0f00
0000
ENDCHAR
STARTCHAR U+0151
ENCODING 337
SWIDTH 1000 0
DWIDTH 12 0
BBX 15 12 -1 -2
BITMAP 
0000
0000
03b0
06c0
0d80
03c0
06c0
1ce0
1ce0
0d80
0700
0000
ENDCHAR
STARTCHAR U+0152
ENCODING 338
SWIDTH 1000 0
DWIDTH 12 0
BBX 15 12 -1 -2
BITMAP 
03fe
06c0
0cc0
18c0
18f8
18c0
1980
1b00
0ff8
0000
0000
0000
ENDCHAR
STARTCHAR U+0153
ENCODING 339
SWIDTH 1000 0
DWIDTH 12 0
BBX 15 12 -1 -2
BITMAP 
0000
0000
0000
03b0
06d8
06f8
0d80
0db0
0760
0000
0000
0000
ENDCHAR
STARTCHAR U+0154
ENCODING 340
SWIDTH 1000 0
DWIDTH 12 0
BBX 15 12 -1 -2
BITMAP 
0000
0060
01c0
1f70
0e38
0e38
1fe0
1dc0
1ce0
39c0
7de0
0000
ENDCHAR
STARTCHAR U+0155
ENCODING 341
SWIDTH 1000 0
DWIDTH 12 0
BBX 15 12 -1 -2
BITMAP 
0000
0000
00e0
0180
0300
0ff0
0ee0
0e00
0e00
1c00
3e00
0000
ENDCHAR
STARTCHAR U+0158
ENCODING 344
SWIDTH 1000 0
DWIDTH 12 0
BBX 15 12 -1 -2
BITMAP 
0000
0330
01e0
1fb0
0e38
0e38
1fe0
1dc0
1ce0
39c0
7de0
0000
ENDCHAR
STARTCHAR U+0159
ENCODING 345
SWIDTH 1000 0
DWIDTH 12 0
BBX 15 12 -1 -2
BITMAP 
0000
0000
0370
0340
0180
0ff0
0ee0
0e00
0e00
1c00
3e00
0000
ENDCHAR
STARTCHAR U+015A
ENCODING 346
SWIDTH 1000 0
DWIDTH 12 0
BBX 15 12 -1 -2
BITMAP 
0000
00c0
0180
03a0
06e0
0e60
1f00
07c0
19e0
3980
3700
0000
ENDCHAR
STARTCHAR U+015B
ENCODING 347
SWIDTH 1000 0
DWIDTH 12 0
BBX 15 12 -1 -2
BITMAP 
0000
0000
00e0
0180
0300
07f0
1ce0
0f00
03c0
39c0
6f80
0000
ENDCHAR
STARTCHAR U+015C
ENCODING 348
SWIDTH 1000 0
DWIDTH 12 0
BBX 15 12 -1 -2
BITMAP 
0000
00c0
01a0
03a0
06e0
0e60
1f00
07c0
19e0
3980
3700
0000
ENDCHAR
STARTCHAR U+015D
ENCODING 349
SWIDTH 1000 0
DWIDTH 12 0
BBX 15 12 -1 -2
BITMAP 
0000
0000
01c0
0340
0660
07f0
1ce0
0f00
03c0
39c0
6f80
0000
ENDCHAR
STARTCHAR U+015E
ENCODING 350
SWIDTH 1000 0
DWIDTH 12 0
BBX 15 12 -1 -2
BITMAP 
0000
01d0
0370
0e60
0f00
07e0
03e0
18e0
1d80
3700
0600
1c00
ENDCHAR
STARTCHAR U+015F
ENCODING 351
SWIDTH 1000 0
DWIDTH 12 0
BBX 15 12 -1 -2
BITMAP 
0000
0000
0000
0000
07f0
0e70
0f00
03c0
3ce0
6f80
0300
0e00
ENDCHAR
STARTCHAR U+0160
ENCODING 352
SWIDTH 1000 0
DWIDTH 12 0
BBX 15 12 -1 -2
BITMAP 
0000
0330
0360
03a0
06e0
0e60
1f00
07c0
19e0
3980
3700
0000
ENDCHAR
STARTCHAR U+0161
ENCODING 353
SWIDTH 1000 0
DWIDTH 12 0
BBX 15 12 -1 -2
BITMAP 
0000
0000
0370
0340
0180
07f0
1ce0
0f00
03c0
39c0
6f80
0000
ENDCHAR
STARTCHAR U+0162
ENCODING 354
SWIDTH 1000 0
DWIDTH 12 0
BBX 15 12 -1 -2
BITMAP 
0000
0ff8
19d8
3398
0380
0380
0700
0700
0700
1f00
0c00
3800
ENDCHAR
STARTCHAR U+0163
ENCODING 355
SWIDTH 1000 0
DWIDTH 12 0
BBX 15 12 -1 -2
BITMAP 
0000
0000
00c0
0380
0380
0fe0
0700
0700
0760
0780
0600
1c00
ENDCHAR
STARTCHAR U+0164
ENCODING 356
SWIDTH 1000 0
DWIDTH 12 0
BBX 15 12 -1 -2
BITMAP 
0000
0330
01a0
1ff0
1bb0
3398
0700
0700
0700
0e00
1f00
0000
ENDCHAR
STARTCHAR U+0165
ENCODING 357
SWIDTH 1000 0
DWIDTH 12 0
BBX 15 12 -1 -2
BITMAP 
0000
0330
01e0
0180
0380
0fe0
0700
0700
0700
0ec0
0780
0000
ENDCHAR
STARTCHAR U+0166
ENCODING 358
SWIDTH 1000 0
DWIDTH 12 0
BBX 15 12 -1 -2
BITMAP 
03fc
0060
0060
00c0
03f0
00c0
0180
0180
0180
0000
0000
0000
ENDCHAR
STARTCHAR U+0167
ENCODING 359
SWIDTH 1000 0
DWIDTH 12 0
BBX 15 12 -1 -2
BITMAP 
00c0
00f0
03c0
0180
07e0
0180
0300
0340
0180
0000
0000
0000
ENDCHAR
STARTCHAR U+016A
ENCODING 362
SWIDTH 1000 0
DWIDTH 12 0
BBX 15 12 -1 -2
BITMAP 
0000
03f0
0000
1f78
0e30
0e30
1c60
1c60
1c60
1dc0
0f00
0000
ENDCHAR
STARTCHAR U+016B
ENCODING 363
SWIDTH 1000 0
DWIDTH 12 0
BBX 15 12 -1 -2
BITMAP 
0000
0000
0000
07e0
0000
0f70
0ee0
0ee0
0ee0
1dc0
0f60
0000
ENDCHAR
STARTCHAR U+016C
ENCODING 364
SWIDTH 1000 0
DWIDTH 12 0
BBX 15 12 -1 -2
BITMAP 
0000
0360
03c0
1e78
0e30
0e30
1c60
1c60
1c60
1dc0
0f00
0000
ENDCHAR
STARTCHAR U+016D
ENCODING 365
SWIDTH 1000 0
DWIDTH 12 0
BBX 15 12 -1 -2
BITMAP 
0000
0000
0360
0180
0000
0f70
0ee0
0ee0
0ee0
1dc0
0f60
0000
ENDCHAR
STARTCHAR U+016E
ENCODING 366
SWIDTH 1000 0
DWIDTH 12 0
BBX 15 12 -1 -2
BITMAP 
0000
00e0
01a0
1eb8
0ed0
0e30
1c60
1c60
1c60
1dc0
0f00
0000
ENDCHAR
STARTCHAR U+016F
ENCODING 367
SWIDTH 1000 0
DWIDTH 12 0
BBX 15 12 -1 -2
BITMAP 
0000
0000
0370
0340
0180
0f70
0ee0
0ee0
0ee0
1dc0
0f60
0000
ENDCHAR
STARTCHAR U+0170
ENCODING 368
SWIDTH 1000 0
DWIDTH 12 0
BBX 15 12 -1 -2
BITMAP 
0000
01b0
0360
1f38
0e30
0e30
1c60
1c60
1c60
1dc0
0f00
0000
ENDCHAR
STARTCHAR U+0171
ENCODING 369
SWIDTH 1000 0
DWIDTH 12 0
BBX 15 12 -1 -2
BITMAP 
0000
0000
03b0
06c0
0d80
0f70
0ee0
0ee0
0ee0
1dc0
0f60
0000
ENDCHAR
STARTCHAR U+0179
ENCODING 377
SWIDTH 1000 0
DWIDTH 12 0
BBX 15 12 -1 -2
BITMAP 
0000
0060
01c0
0f70
0ce0
19c0
0700
0e00
0c30
3860
7fc0
0000
ENDCHAR
STARTCHAR U+017A
ENCODING 378
SWIDTH 1000 0
DWIDTH 12 0
BBX 15 12 -1 -2
BITMAP 
0000
0000
00e0
0180
0300
0ff0
19c0
0380
0700
1cc0
3f80
0000
ENDCHAR
STARTCHAR U+017B
ENCODING 379
SWIDTH 1000 0
DWIDTH 12 0
BBX 15 12 -1 -2
BITMAP 
0000
01c0
01c0
0ff0
0ce0
19c0
0700
0e00
0c30
3860
7fc0
0000
ENDCHAR
STARTCHAR U+017C
ENCODING 380
SWIDTH 1000 0
DWIDTH 12 0
BBX 15 12 -1 -2
BITMAP 
0000
0000
01c0
0380
0000
0ff0
19c0
0380
0700
1cc0
3f80
0000
ENDCHAR
STARTCHAR U+017D
ENCODING 381
SWIDTH 1000 0
DWIDTH 12 0
BBX 15 12 -1 -2
BITMAP 
0000
0330
01a0
0ff0
0ce0
19c0
0700
0e00
0c30
3860
7fc0
0000
ENDCHAR
STARTCHAR U+017E
ENCODING 382
SWIDTH 1000 0
DWIDTH 12 0
BBX 15 12 -1 -2
BITMAP 
0000
0000
0370
0340
0180
0ff0
19c0
0380
0700
1cc0
3f80
0000
ENDCHAR
STARTCHAR U+0193
ENCODING 403
SWIDTH 1000 0
DWIDTH 12 0
BBX 15 12 -1 -2
BITMAP 
0000
01ec
033a
0e30
1c00
1c00
39f0
38e0
18e0
19c0
0f40
0000
ENDCHAR
STARTCHAR U+01C2
ENCODING 450
SWIDTH 1000 0
DWIDTH 12 0
BBX 15 12 -1 -2
BITMAP 
0000
0000
00c0
0180
07e0
0180
0300
0fc0
0300
0600
0600
0000
ENDCHAR
STARTCHAR U+01CD
ENCODING 461
SWIDTH 1000 0
DWIDTH 12 0
BBX 15 12 -1 -2
BITMAP 
0000
0330
0360
03c0
0340
06e0
0fc0
1dc0
18e0
71c0
f9e0
0000
ENDCHAR
STARTCHAR U+01CE
ENCODING 462
SWIDTH 1000 0
DWIDTH 12 0
BBX 15 12 -1 -2
BITMAP 
0000
0000
0370
0340
0180
0780
01c0
0fc0
1dc0
3b80
1ec0
0000
ENDCHAR
STARTCHAR U+01D0
ENCODING 464
SWIDTH 1000 0
DWIDTH 12 0
BBX 15 12 -1 -2
BITMAP 
0000
0000
06e0
0680
0300
0780
0700
0700
0700
0e00
1f00
0000
ENDCHAR
STARTCHAR U+01D1
ENCODING 465
SWIDTH 1000 0
DWIDTH 12 0
BBX 15 12 -1 -2
BITMAP 
0000
0330
01e0
0180
03c0
0e70
3870
3870
3870
39c0
0f00
0000
ENDCHAR
STARTCHAR U+01D2
ENCODING 466
SWIDTH 1000 0
DWIDTH 12 0
BBX 15 12 -1 -2
BITMAP 
0000
0000
0370
0340
0180
07e0
1ce0
1ce0
1ce0
39c0
1f80
0000
ENDCHAR
STARTCHAR U+01D4
ENCODING 468
SWIDTH 1000 0
DWIDTH 12 0
BBX 15 12 -1 -2
BITMAP 
0000
0000
0370
0340
0180
0f70
0ee0
0ee0
0ee0
1dc0
0f60
0000
ENDCHAR
STARTCHAR U+01D6
ENCODING 470
SWIDTH 1000 0
DWIDTH 12 0
BBX 15 12 -1 -2
BITMAP 
0000
03f0
0000
0760
0760
0000
1ee0
0ee0
0ee0
1dc0
0f60
0000
ENDCHAR
STARTCHAR U+01D8
ENCODING 472
SWIDTH 1000 0
DWIDTH 12 0
BBX 15 12 -1 -2
BITMAP 
0000
0060
01c0
0760
0760
0000
1ee0
0ee0
0ee0
1dc0
0f60
0000
ENDCHAR
STARTCHAR U+01DA
ENCODING 474
SWIDTH 1000 0
DWIDTH 12 0
BBX 15 12 -1 -2
BITMAP 
0000
0330
01a0
07e0
0760
0000
1ee0
0ee0
0ee0
1dc0
0f60
0000
ENDCHAR
STARTCHAR U+01DC
ENCODING 476
SWIDTH 1000 0
DWIDTH 12 0
BBX 15 12 -1 -2
BITMAP 
0000
0180
01c0
0760
0760
0000
1ee0
0ee0
0ee0
1dc0
0f60
0000
ENDCHAR
STARTCHAR U+01F8
ENCODING 504
SWIDTH 1000 0
DWIDTH 12 0
BBX 15 12 -1 -2
BITMAP 
0000
0180
0edc
0ef0
0f30
0db0
1ba0
1ba0
19e0
31c0
78c0
0000
ENDCHAR
STARTCHAR U+01F9
ENCODING 505
SWIDTH 1000 0
DWIDTH 12 0
BBX 15 12 -1 -2
BITMAP 
0000
0000
0180
0180
00c0
0fc0
0ee0
0ee0
0ee0
1dc0
3de0
0000
ENDCHAR
STARTCHAR U+01FD
ENCODING 509
SWIDTH 1000 0
DWIDTH 12 0
BBX 15 12 -1 -2
BITMAP 
0000
0060
01c0
0300
0000
1f60
07b0
3ff8
7780
ef30
7de0
0000
ENDCHAR
STARTCHAR U+0250
ENCODING 592
SWIDTH 1000 0
DWIDTH 12 0
BBX 15 12 -1 -2
BITMAP 
0000
0000
0000
0000
0000
0fe0
0ee0
0ee0
0fc0
1c00
0f80
0000
ENDCHAR
STARTCHAR U+0251
ENCODING 593
SWIDTH 1000 0
DWIDTH 12 0
BBX 15 12 -1 -2
BITMAP 
0000
0000
0000
0000
0000
0760
1dc0
1dc0
1dc0
3b80
1ec0
0000
ENDCHAR
STARTCHAR U+0252
ENCODING 594
SWIDTH 1000 0
DWIDTH 12 0
BBX 15 12 -1 -2
BITMAP 
0000
0000
0000
0000
0000
1fc0
1dc0
1dc0
1dc0
3580
3700
0000
ENDCHAR
STARTCHAR U+0253
ENCODING 595
SWIDTH 1000 0
DWIDTH 12 0
BBX 15 12 -1 -2
BITMAP 
0000
00f8
0198
0700
0700
07e0
0ee0
0ee0
0ee0
1dc0
3f80
0000
ENDCHAR
STARTCHAR U+0254
ENCODING 596
SWIDTH 1000 0
DWIDTH 12 0
BBX 15 12 -1 -2
BITMAP 
0000
0000
0000
0000
0000
0fc0
19c0
01c0
01c0
3380
3f00
0000
ENDCHAR
STARTCHAR U+0255
ENCODING 597
SWIDTH 1000 0
DWIDTH 12 0
BBX 15 12 -1 -2
BITMAP 
0000
0000
0000
0000
0000
07e0
1cc0
1c00
1f00
3d80
1f00
1800
ENDCHAR
STARTCHAR U+0256
ENCODING 598
SWIDTH 1000 0
DWIDTH 12 0
BBX 15 12 -1 -2
BITMAP 
0000
00f0
0070
00e0
00e0
07e0
1dc0
1dc0
1dc0
3b80
1fa0
01e0
ENDCHAR
STARTCHAR U+0257
ENCODING 599
SWIDTH 1000 0
DWIDTH 12 0
BBX 15 12 -1 -2
BITMAP 
0000
003c
0074
00e0
00e0
07e0
1dc0
1dc0
1dc0
3b80
1fc0
0000
ENDCHAR
STARTCHAR U+0258
ENCODING 600
SWIDTH 1000 0
DWIDTH 12 0
BBX 15 12 -1 -2
BITMAP 
0000
0000
0000
0000
0000
07e0
1ce0
1fe0
00e0
31c0
1f80
0000
ENDCHAR
STARTCHAR U+0259
ENCODING 601
SWIDTH 1000 0
DWIDTH 12 0
BBX 15 12 -1 -2
BITMAP 
0000
0000
0000
0000
0000
0fe0
18e0
00e0
1fe0
39c0
1f80
0000
ENDCHAR
STARTCHAR U+025A
ENCODING 602
SWIDTH 1000 0
DWIDTH 12 0
BBX 15 12 -1 -2
BITMAP 
0000
0000
0000
0000
0000
0fd8
19f0
07d0
1dd8
3380
1f00
0000
ENDCHAR
STARTCHAR U+025C
ENCODING 604
SWIDTH 1000 0
DWIDTH 12 0
BBX 15 12 -1 -2
BITMAP 
0000
0000
0000
0000
0000
0fe0
18e0
03c0
00e0
31c0
1f80
0000
ENDCHAR
STARTCHAR U+025E
ENCODING 606
SWIDTH 1000 0
DWIDTH 12 0
BBX 15 12 -1 -2
BITMAP 
0000
0000
0000
0000
0000
07e0
0ce0
1bc0
18e0
19c0
0f80
0000
ENDCHAR
STARTCHAR U+025F
ENCODING 607
SWIDTH 1000 0
DWIDTH 12 0
BBX 15 12 -1 -2
BITMAP 
0000
0000
0000
0000
0000
07e0
0380
0380
0fc0
0700
6600
7c00
ENDCHAR
STARTCHAR U+0260
ENCODING 608
SWIDTH 1000 0
DWIDTH 12 0
BBX 15 12 -1 -2
BITMAP 
0000
0000
0000
0018
0034
07b0
1ce0
1ce0
0ce0
0fc0
1980
1f00
ENDCHAR
STARTCHAR U+0261
ENCODING 609
SWIDTH 1000 0
DWIDTH 12 0
BBX 15 12 -1 -2
BITMAP 
0000
0000
0000
0000
0000
07b0
1ce0
1ce0
0ce0
0fc0
1980
1f00
ENDCHAR
STARTCHAR U+0264
ENCODING 612
SWIDTH 1000 0
DWIDTH 12 0
BBX 15 12 -1 -2
BITMAP 
0000
0000
0000
0000
1ef0
0c60
0cc0
0d80
0d00
0e00
0e00
0000
ENDCHAR
STARTCHAR U+0265
ENCODING 613
SWIDTH 1000 0
DWIDTH 12 0
BBX 15 12 -1 -2
BITMAP 
0000
07bc
03b8
0770
0770
0770
07e0
00e0
00e0
01c0
01e0
0000
ENDCHAR
STARTCHAR U+0266
ENCODING 614
SWIDTH 1000 0
DWIDTH 12 0
BBX 15 12 -1 -2
BITMAP 
0000
00f8
0198
0700
0700
07e0
0ee0
0ee0
0ee0
1dc0
3de0
0000
ENDCHAR
STARTCHAR U+0267
ENCODING 615
SWIDTH 1000 0
DWIDTH 12 0
BBX 15 12 -1 -2
BITMAP 
0000
00f8
0198
0700
0700
07e0
0ee0
0ee0
0ee0
1dc0
3dc0
0780
ENDCHAR
STARTCHAR U+0268
ENCODING 616
SWIDTH 1000 0
DWIDTH 12 0
BBX 15 12 -1 -2
BITMAP 
0000
00c0
01e0
0180
0000
0780
0700
1fc0
0700
0e00
1f00
0000
ENDCHAR
STARTCHAR U+026C
ENCODING 620
SWIDTH 1000 0
DWIDTH 12 0
BBX 15 12 -1 -2
BITMAP 
0000
03c0
01c0
0380
0780
0d80
0f00
07e0
0700
0e00
1f00
0000
ENDCHAR
STARTCHAR U+026D
ENCODING 621
SWIDTH 1000 0
DWIDTH 12 0
BBX 15 12 -1 -2
BITMAP 
0000
03c0
01c0
0380
0380
0380
0700
0700
0700
0e00
0e80
0780
ENDCHAR
STARTCHAR U+026E
ENCODING 622
SWIDTH 1000 0
DWIDTH 12 0
BBX 15 12 -1 -2
BITMAP 
0000
0f00
0700
0e00
0e00
0ff0
1dc0
1d80
1d80
39c0
7dc0
1f80
ENDCHAR
STARTCHAR U+026F
ENCODING 623
SWIDTH 1000 0
DWIDTH 12 0
BBX 15 12 -1 -2
BITMAP 
0000
0000
0000
0000
0000
1edc
1db0
1db0
1db0
3b60
1db0
0000
ENDCHAR
STARTCHAR U+0270
ENCODING 624
SWIDTH 1000 0
DWIDTH 12 0
BBX 15 12 -1 -2
BITMAP 
0000
0000
0000
0000
0000
1edc
1db0
1db0
1db0
3b60
1de0
00f0
ENDCHAR
STARTCHAR U+0271
ENCODING 625
SWIDTH 1000 0
DWIDTH 12 0
BBX 15 12 -1 -2
BITMAP 
0000
0000
0000
0000
0000
1fb0
1db0
1db0
1db0
3b60
7b60
01c0
ENDCHAR
STARTCHAR U+0272
ENCODING 626
SWIDTH 1000 0
DWIDTH 12 0
BBX 15 12 -1 -2
BITMAP 
0000
0000
0000
0000
0000
0fe0
0ee0
0ee0
0ee0
1dc0
6de0
7800
ENDCHAR
STARTCHAR U+0273
ENCODING 627
SWIDTH 1000 0
DWIDTH 12 0
BBX 15 12 -1 -2
BITMAP 
0000
0000
0000
0000
0000
1fc0
1dc0
1dc0
1dc0
3b80
7ba0
01e0
ENDCHAR
STARTCHAR U+0275
ENCODING 629
SWIDTH 1000 0
DWIDTH 12 0
BBX 15 12 -1 -2
BITMAP 
0000
0000
0000
0000
0000
07e0
1ce0
1fe0
1ce0
39c0
1f80
0000
ENDCHAR
STARTCHAR U+0279
ENCODING 633
SWIDTH 1000 0
DWIDTH 12 0
BBX 15 12 -1 -2
BITMAP 
0000
0000
0000
0000
0000
03e0
0380
0380
0380
7700
7d80
0000
ENDCHAR
STARTCHAR U+027A
ENCODING 634
SWIDTH 1000 0
DWIDTH 12 0
BBX 15 12 -1 -2
BITMAP 
0000
01f0
00e0
01c0
01c0
01c0
0380
0380
0380
7700
7d80
0000
ENDCHAR
STARTCHAR U+027B
ENCODING 635
SWIDTH 1000 0
DWIDTH 12 0
BBX 15 12 -1 -2
BITMAP 
0000
0000
0000
0000
0000
03e0
0380
0380
0380
7700
7d40
01c0
ENDCHAR
STARTCHAR U+027D
ENCODING 637
SWIDTH 1000 0
DWIDTH 12 0
BBX 15 12 -1 -2
BITMAP 
0000
0000
0000
0000
0000
0ff0
0ee0
0e00
0e00
1c00
1d00
0f00
ENDCHAR
STARTCHAR U+027E
ENCODING 638
SWIDTH 1000 0
DWIDTH 12 0
BBX 15 12 -1 -2
BITMAP 
0000
0000
0000
0000
0000
01e0
0760
0760
0700
0e00
1f00
0000
ENDCHAR
STARTCHAR U+0281
ENCODING 641
SWIDTH 1000 0
DWIDTH 12 0
BBX 15 12 -1 -2
BITMAP 
0000
0000
0000
0000
0f70
07f0
0f40
0ee0
0ee0
1ac0
1b80
0000
ENDCHAR
STARTCHAR U+0282
ENCODING 642
SWIDTH 1000 0
DWIDTH 12 0
BBX 15 12 -1 -2
BITMAP 
0000
0000
0000
0000
07f0
0e70
0f00
03c0
1ce0
3f80
3000
1c00
ENDCHAR
STARTCHAR U+0283
ENCODING 643
SWIDTH 1000 0
DWIDTH 12 0
BBX 15 12 -1 -2
BITMAP 
0000
00f0
01d8
0380
0380
0380
0700
0700
0700
0e00
7600
3c00
ENDCHAR
STARTCHAR U+0284
ENCODING 644
SWIDTH 1000 0
DWIDTH 12 0
BBX 15 12 -1 -2
BITMAP 
0000
0000
0000
0000
00f0
01b0
0700
0700
0700
1f00
6e00
7c00
ENDCHAR
STARTCHAR U+0288
ENCODING 648
SWIDTH 1000 0
DWIDTH 12 0
BBX 15 12 -1 -2
BITMAP 
0000
0000
00c0
0380
0380
0fe0
0700
0700
0700
0e00
0ec0
0780
ENDCHAR
STARTCHAR U+0289
ENCODING 649
SWIDTH 1000 0
DWIDTH 12 0
BBX 15 12 -1 -2
BITMAP 
0000
0000
0000
0000
0000
0f70
0ee0
3ff0
0ee0
1dc0
0f60
0000
ENDCHAR
STARTCHAR U+028A
ENCODING 650
SWIDTH 1000 0
DWIDTH 12 0
BBX 15 12 -1 -2
BITMAP 
0000
0000
0000
0000
0000
0f70
1aa0
0cc0
1ce0
39c0
1f80
0000
ENDCHAR
STARTCHAR U+028B
ENCODING 651
SWIDTH 1000 0
DWIDTH 12 0
BBX 15 12 -1 -2
BITMAP 
0000
0000
0000
0000
0000
0f70
0ee0
0ee0
0ee0
1d80
0f00
0000
ENDCHAR
STARTCHAR U+028C
ENCODING 652
SWIDTH 1000 0
DWIDTH 12 0
BBX 15 12 -1 -2
BITMAP 
0000
0000
0000
0000
0000
0300
0700
0f80
1b80
3380
7bc0
0000
ENDCHAR
STARTCHAR U+028D
ENCODING 653
SWIDTH 1000 0
DWIDTH 12 0
BBX 15 12 -1 -2
BITMAP 
0000
0000
0000
0000
0000
06c0
0ec0
1ee0
3f60
6ee0
f6f0
0000
ENDCHAR
STARTCHAR U+028E
ENCODING 654
SWIDTH 1000 0
DWIDTH 12 0
BBX 15 12 -1 -2
BITMAP 
0000
0000
0000
0078
00d8
01c0
03c0
07c0
0de0
19c0
3de0
0000
ENDCHAR
STARTCHAR U+0290
ENCODING 656
SWIDTH 1000 0
DWIDTH 12 0
BBX 15 12 -1 -2
BITMAP 
0000
0000
0000
0000
0000
0ff0
19c0
0380
0700
1cc0
3f80
00e0
ENDCHAR
STARTCHAR U+0291
ENCODING 657
SWIDTH 1000 0
DWIDTH 12 0
BBX 15 12 -1 -2
BITMAP 
0000
0000
0000
0000
0000
0ff0
19c0
0380
07e0
1d40
3fc0
0600
ENDCHAR
STARTCHAR U+0292
ENCODING 658
SWIDTH 1000 0
DWIDTH 12 0
BBX 15 12 -1 -2
BITMAP 
0000
0000
0000
0000
0000
0fe0
1b80
0700
0700
7380
7380
3f00
ENDCHAR
STARTCHAR U+0294
ENCODING 660
SWIDTH 1000 0
DWIDTH 12 0
BBX 15 12 -1 -2
BITMAP 
0000
03e0
0660
1c70
1c70
00e0
0780
0700
0700
0e00
1f00
0000
ENDCHAR
STARTCHAR U+0295
ENCODING 661
SWIDTH 1000 0
DWIDTH 12 0
BBX 15 12 -1 -2
BITMAP 
0000
03e0
0760
1c70
1c70
0c00
0f00
0700
0700
0e00
1f00
0000
ENDCHAR
STARTCHAR U+0298
ENCODING 664
SWIDTH 1000 0
DWIDTH 12 0
BBX 15 12 -1 -2
BITMAP 
0000
0000
0000
03c0
0660
0c60
1b60
1b60
18c0
1980
0f00
0000
ENDCHAR
STARTCHAR U+029D
ENCODING 669
SWIDTH 1000 0
DWIDTH 12 0
BBX 15 12 -1 -2
BITMAP 
0000
00c0
01e0
0180
0000
03c0
0380
0380
0380
3f80
3600
1c00
ENDCHAR
STARTCHAR U+02A1
ENCODING 673
SWIDTH 1000 0
DWIDTH 12 0
BBX 15 12 -1 -2
BITMAP 
0000
03e0
0660
1c70
1c70
00e0
0780
0700
1fc0
0e00
1f00
0000
ENDCHAR
STARTCHAR U+02A2
ENCODING 674
SWIDTH 1000 0
DWIDTH 12 0
BBX 15 12 -1 -2
BITMAP 
0000
03e0
0760
1c70
1c70
0c00
0f00
0700
1fc0
0e00
1f00
0000
ENDCHAR
STARTCHAR U+02C7
ENCODING 711
SWIDTH 1000 0
DWIDTH 12 0
BBX 15 12 -1 -2
BITMAP 
0330
01a0
00c0
0000
0000
0000
0000
0000
0000
0000
0000
0000
ENDCHAR
STARTCHAR U+02C8
ENCODING 712
SWIDTH 1000 0
DWIDTH 12 0
BBX 15 12 -1 -2
BITMAP 
0000
00c0
00c0
0180
0180
0000
0000
0000
0000
0000
0000
0000
ENDCHAR
STARTCHAR U+02C9
ENCODING 713
SWIDTH 1000 0
DWIDTH 12 0
BBX 15 12 -1 -2
BITMAP 
0000
0000
1ffc
0000
0000
0000
0000
0000
0000
0000
0000
0000
ENDCHAR
STARTCHAR U+02CA
ENCODING 714
SWIDTH 1000 0
DWIDTH 12 0
BBX 15 12 -1 -2
BITMAP 
0000
0000
0000
0000
00e0
03c0
0f00
0e00
0c00
0000
0000
0000
ENDCHAR
STARTCHAR U+02CB
ENCODING 715
SWIDTH 1000 0
DWIDTH 12 0
BBX 15 12 -1 -2
BITMAP 
0000
0000
0000
0000
0700
0700
0380
0180
00c0
0000
0000
0000
ENDCHAR
STARTCHAR U+02CC
ENCODING 716
SWIDTH 1000 0
DWIDTH 12 0
BBX 15 12 -1 -2
BITMAP 
0000
0000
0000
0000
0000
0000
0000
0000
0300
0600
0600
0600
ENDCHAR
STARTCHAR U+02D0
ENCODING 720
SWIDTH 1000 0
DWIDTH 12 0
BBX 15 12 -1 -2
BITMAP 
0000
00f0
0060
0000
0000
0000
0000
0180
03c0
0000
0000
0000
ENDCHAR
STARTCHAR U+02D1
ENCODING 721
SWIDTH 1000 0
DWIDTH 12 0
BBX 15 12 -1 -2
BITMAP 
0000
0000
0000
0000
07e0
03c0
0300
0000
0000
0000
0000
0000
ENDCHAR
STARTCHAR U+02D8
ENCODING 728
SWIDTH 1000 0
DWIDTH 12 0
BBX 15 12 -1 -2
BITMAP 
0330
0330
01e0
0000
0000
0000
0000
0000
0000
0000
0000
0000
ENDCHAR
STARTCHAR U+02D9
ENCODING 729
SWIDTH 1000 0
DWIDTH 12 0
BBX 15 12 -1 -2
BITMAP 
00e0
00e0
0000
0000
0000
0000
0000
0000
0000
0000
0000
0000
ENDCHAR
STARTCHAR U+02DA
ENCODING 730
SWIDTH 1000 0
DWIDTH 12 0
BBX 15 12 -1 -2
BITMAP 
00e0
01b0
01a0
01c0
0000
0000
0000
0000
0000
0000
0000
0000
ENDCHAR
STARTCHAR U+02DB
ENCODING 731
SWIDTH 1000 0
DWIDTH 12 0
BBX 15 12 -1 -2
BITMAP 
0000
0000
0000
0000
0000
0000
0180
0300
0340
0380
0000
0000
ENDCHAR
STARTCHAR U+02DD
ENCODING 733
SWIDTH 1000 0
DWIDTH 12 0
BBX 15 12 -1 -2
BITMAP 
01d8
01b0
0360
0000
0000
0000
0000
0000
0000
0000
0000
0000
ENDCHAR
STARTCHAR U+02DE
ENCODING 734
SWIDTH 1000 0
DWIDTH 12 0
BBX 15 12 -1 -2
BITMAP 
0000
0000
0000
0000
0000
03c0
01a0
01a0
00c0
0000
0000
0000
ENDCHAR
STARTCHAR U+02E5
ENCODING 741
SWIDTH 1000 0
DWIDTH 12 0
BBX 15 12 -1 -2
BITMAP 
3fc0
00c0
00c0
0180
0180
0180
0300
0300
0300
0600
0600
0600
ENDCHAR
STARTCHAR U+02E6
ENCODING 742
SWIDTH 1000 0
DWIDTH 12 0
BBX 15 12 -1 -2
BITMAP 
00c0
00c0
00c0
7f80
0180
0180
0300
0300
0300
0600
0600
0600
ENDCHAR
STARTCHAR U+02E7
ENCODING 743
SWIDTH 1000 0
DWIDTH 12 0
BBX 15 12 -1 -2
BITMAP 
00c0
00c0
00c0
0180
0180
0180
ff00
0300
0300
0600
0600
0600
ENDCHAR
STARTCHAR U+02E8
ENCODING 744
SWIDTH 1000 0
DWIDTH 12 0
BBX 15 12 -1 -2
BITMAP 
00c0
00c0
00c0
0180
0180
0180
0300
0300
ff00
0600
0600
0600
ENDCHAR
STARTCHAR U+02E9
ENCODING 745
SWIDTH 1000 0
DWIDTH 12 0
BBX 15 12 -1 -2
BITMAP 
00c0
00c0
00c0
0180
0180
0180
0300
0300
0300
0600
0600
fe00
ENDCHAR
STARTCHAR U+0300
ENCODING 768
SWIDTH 1000 0
DWIDTH 12 0
BBX 15 12 -1 -2
BITMAP 
0000
0180
00c0
00c0
0000
0000
0000
0000
0000
0000
0000
0000
ENDCHAR
STARTCHAR U+0301
ENCODING 769
SWIDTH 1000 0
DWIDTH 12 0
BBX 15 12 -1 -2
BITMAP 
0000
0060
01c0
0300
0000
0000
0000
0000
0000
0000
0000
0000
ENDCHAR
STARTCHAR U+0302
ENCODING 770
SWIDTH 1000 0
DWIDTH 12 0
BBX 15 12 -1 -2
BITMAP 
0000
00c0
03a0
0660
0000
0000
0000
0000
0000
0000
0000
0000
ENDCHAR
STARTCHAR U+0303
ENCODING 771
SWIDTH 1000 0
DWIDTH 12 0
BBX 15 12 -1 -2
BITMAP 
0000
03b0
06e0
0000
0000
0000
0000
0000
0000
0000
0000
0000
ENDCHAR
STARTCHAR U+0304
ENCODING 772
SWIDTH 1000 0
DWIDTH 12 0
BBX 15 12 -1 -2
BITMAP 
0000
03e0
0000
0000
0000
0000
0000
0000
0000
0000
0000
0000
ENDCHAR
STARTCHAR U+0306
ENCODING 774
SWIDTH 1000 0
DWIDTH 12 0
BBX 15 12 -1 -2
BITMAP 
0000
0330
0360
01c0
0000
0000
0000
0000
0000
0000
0000
0000
ENDCHAR
STARTCHAR U+0308
ENCODING 776
SWIDTH 1000 0
DWIDTH 12 0
BBX 15 12 -1 -2
BITMAP 
0000
03b0
03b0
0000
0000
0000
0000
0000
0000
0000
0000
0000
ENDCHAR
STARTCHAR U+030B
ENCODING 779
SWIDTH 1000 0
DWIDTH 12 0
BBX 15 12 -1 -2
BITMAP 
0000
01b0
0760
0d80
0000
0000
0000
0000
0000
0000
0000
0000
ENDCHAR
STARTCHAR U+030C
ENCODING 780
SWIDTH 1000 0
DWIDTH 12 0
BBX 15 12 -1 -2
BITMAP 
0000
0330
01a0
01c0
0000
0000
0000
0000
0000
0000
0000
0000
ENDCHAR
STARTCHAR U+030F
ENCODING 783
SWIDTH 1000 0
DWIDTH 12 0
BBX 15 12 -1 -2
BITMAP 
0000
06c0
0360
0360
0000
0000
0000
0000
0000
0000
0000
0000
ENDCHAR
STARTCHAR U+0318
ENCODING 792
SWIDTH 1000 0
DWIDTH 12 0
BBX 15 12 -1 -2
BITMAP 
0000
0000
0000
0000
0000
0000
0000
0300
0300
1e00
0600
0600
ENDCHAR
STARTCHAR U+0319
ENCODING 793
SWIDTH 1000 0
DWIDTH 12 0
BBX 15 12 -1 -2
BITMAP 
0000
0000
0000
0000
0000
0000
0000
0300
0300
0780
0600
0600
ENDCHAR
STARTCHAR U+031A
ENCODING 794
SWIDTH 1000 0
DWIDTH 12 0
BBX 15 12 -1 -2
BITMAP 
0000
0078
0018
0030
0000
0000
0000
0000
0000
0000
0000
0000
ENDCHAR
STARTCHAR U+031C
ENCODING 796
SWIDTH 1000 0
DWIDTH 12 0
BBX 15 12 -1 -2
BITMAP 
0000
0000
0000
0000
0000
0000
0000
0000
0000
0700
0c00
0700
ENDCHAR
STARTCHAR U+031D
ENCODING 797
SWIDTH 1000 0
DWIDTH 12 0
BBX 15 12 -1 -2
BITMAP 
0000
0000
0000
0000
0000
0000
0000
0300
0300
1f80
0000
0000
ENDCHAR
STARTCHAR U+031E
ENCODING 798
SWIDTH 1000 0
DWIDTH 12 0
BBX 15 12 -1 -2
BITMAP 
0000
0000
0000
0000
0000
0000
0000
0000
0000
1f80
0600
0600
ENDCHAR
STARTCHAR U+031F
ENCODING 799
SWIDTH 1000 0
DWIDTH 12 0
BBX 15 12 -1 -2
BITMAP 
0000
0000
0000
0000
0000
0000
0000
0000
0000
0600
1f80
0600
ENDCHAR
STARTCHAR U+0320
ENCODING 800
SWIDTH 1000 0
DWIDTH 12 0
BBX 15 12 -1 -2
BITMAP 
0000
0000
0000
0000
0000
0000
0000
0000
0000
0000
1f80
0000
ENDCHAR
STARTCHAR U+0324
ENCODING 804
SWIDTH 1000 0
DWIDTH 12 0
BBX 15 12 -1 -2
BITMAP 
0000
0000
0000
0000
0000
0000
0000
0000
0000
0000
1d80
1d80
ENDCHAR
STARTCHAR U+0325
ENCODING 805
SWIDTH 1000 0
DWIDTH 12 0
BBX 15 12 -1 -2
BITMAP 
0000
0000
0000
0000
0000
0000
0000
0000
0700
0d00
1b00
0e00
ENDCHAR
STARTCHAR U+0329
ENCODING 809
SWIDTH 1000 0
DWIDTH 12 0
BBX 15 12 -1 -2
BITMAP 
0000
0000
0000
0000
0000
0000
0000
0000
0000
0600
0600
0600
ENDCHAR
STARTCHAR U+032A
ENCODING 810
SWIDTH 1000 0
DWIDTH 12 0
BBX 15 12 -1 -2
BITMAP 
0000
0000
0000
0000
0000
0000
0000
0000
0000
1f80
1980
1980
ENDCHAR
STARTCHAR U+032C
ENCODING 812
SWIDTH 1000 0
DWIDTH 12 0
BBX 15 12 -1 -2
BITMAP 
0000
0000
0000
0000
0000
0000
0000
0000
0000
1980
1980
0f00
ENDCHAR
STARTCHAR U+032F
ENCODING 815
SWIDTH 1000 0
DWIDTH 12 0
BBX 15 12 -1 -2
BITMAP 
0000
0000
0000
0000
0000
0000
0000
0000
0000
0f00
1980
1980
ENDCHAR
STARTCHAR U+0330
ENCODING 816
SWIDTH 1000 0
DWIDTH 12 0
BBX 15 12 -1 -2
BITMAP 
0000
0000
0000
0000
0000
0000
0000
0000
0000
0000
1d80
3700
ENDCHAR
STARTCHAR U+0334
ENCODING 820
SWIDTH 1000 0
DWIDTH 12 0
BBX 15 12 -1 -2
BITMAP 
0000
0000
0000
0000
0000
0000
0ec0
1b80
0000
0000
0000
0000
ENDCHAR
STARTCHAR U+0339
ENCODING 825
SWIDTH 1000 0
DWIDTH 12 0
BBX 15 12 -1 -2
BITMAP 
0000
0000
0000
0000
0000
0000
0000
0000
0000
0700
0180
0700
ENDCHAR
STARTCHAR U+033A
ENCODING 826
SWIDTH 1000 0
DWIDTH 12 0
BBX 15 12 -1 -2
BITMAP 
0000
0000
0000
0000
0000
0000
0000
0000
0000
1980
1980
1f80
ENDCHAR
STARTCHAR U+033B
ENCODING 827
SWIDTH 1000 0
DWIDTH 12 0
BBX 15 12 -1 -2
BITMAP 
0000
0000
0000
0000
0000
0000
0000
0000
0fc0
1980
1980
1f80
ENDCHAR
STARTCHAR U+033C
ENCODING 828
SWIDTH 1000 0
DWIDTH 12 0
BBX 15 12 -1 -2
BITMAP 
0000
0000
0000
0000
0000
0000
0000
0000
0000
0000
1d80
36c0
ENDCHAR
STARTCHAR U+033D
ENCODING 829
SWIDTH 1000 0
DWIDTH 12 0
BBX 15 12 -1 -2
BITMAP 
0000
03b0
01c0
0760
0000
0000
0000
0000
0000
0000
0000
0000
ENDCHAR
STARTCHAR U+0361
ENCODING 865
SWIDTH 1000 0
DWIDTH 12 0
BBX 15 12 -1 -2
BITMAP 
0000
03f0
0e18
1818
0000
0000
0000
0000
0000
0000
0000
0000
ENDCHAR
STARTCHAR U+0391
ENCODING 913
SWIDTH 1000 0
DWIDTH 12 0
BBX 15 12 -1 -2
BITMAP 
0000
0180
0180
0380
0680
0d80
1980
1f80
3180
6180
f3c0
0000
ENDCHAR
STARTCHAR U+0392
ENCODING 914
SWIDTH 1000 0
DWIDTH 12 0
BBX 15 12 -1 -2
BITMAP 
0000
0fc0
0660
0c60
0cc0
0f00
1980
18c0
1980
3300
7e00
0000
ENDCHAR
STARTCHAR U+0393
ENCODING 915
SWIDTH 1000 0
DWIDTH 12 0
BBX 15 12 -1 -2
BITMAP 
0000
0fe0
0660
0c60
0c00
0c00
1800
1800
1800
3000
7800
0000
ENDCHAR
STARTCHAR U+0394
ENCODING 916
SWIDTH 1000 0
DWIDTH 12 0
BBX 15 12 -1 -2
BITMAP 
0000
0180
0180
0300
0680
0d80
0d80
1980
3180
6180
ffc0
0000
ENDCHAR
STARTCHAR U+0395
ENCODING 917
SWIDTH 1000 0
DWIDTH 12 0
BBX 15 12 -1 -2
BITMAP 
0000
0ff0
0618
0c00
0cc0
0fc0
1980
1800
1860
30c0
7f80
0000
ENDCHAR
STARTCHAR U+0396
ENCODING 918
SWIDTH 1000 0
DWIDTH 12 0
BBX 15 12 -1 -2
BITMAP 
0000
0ff8
1870
30c0
0180
0300
0600
0c00
3860
60c0
ffc0
0000
ENDCHAR
STARTCHAR U+0397
ENCODING 919
SWIDTH 1000 0
DWIDTH 12 0
BBX 15 12 -1 -2
BITMAP 
0000
1e78
0c30
1860
1860
1fe0
30c0
30c0
30c0
6180
f3c0
0000
ENDCHAR
STARTCHAR U+0398
ENCODING 920
SWIDTH 1000 0
DWIDTH 12 0
BBX 15 12 -1 -2
BITMAP 
0000
03c0
0e60
1860
34d0
37d0
69a0
6060
31c0
3300
1e00
0000
ENDCHAR
STARTCHAR U+0399
ENCODING 921
SWIDTH 1000 0
DWIDTH 12 0
BBX 15 12 -1 -2
BITMAP 
0000
03c0
0180
0300
0300
0300
0600
0600
0600
0c00
1e00
0000
ENDCHAR
STARTCHAR U+039A
ENCODING 922
SWIDTH 1000 0
DWIDTH 12 0
BBX 15 12 -1 -2
BITMAP 
0000
0f70
06e0
0d80
0d00
0e00
1a00
1b00
1980
3180
7bc0
0000
ENDCHAR
STARTCHAR U+039B
ENCODING 923
SWIDTH 1000 0
DWIDTH 12 0
BBX 15 12 -1 -2
BITMAP 
0000
0180
0180
0380
0680
0d80
1980
1980
3180
6180
f3c0
0000
ENDCHAR
STARTCHAR U+039C
ENCODING 924
SWIDTH 1000 0
DWIDTH 12 0
BBX 15 12 -1 -2
BITMAP 
0000
381c
1818
3870
3870
38d0
69a0
6d60
6e60
c6c0
ede0
0000
ENDCHAR
STARTCHAR U+039D
ENCODING 925
SWIDTH 1000 0
DWIDTH 12 0
BBX 15 12 -1 -2
BITMAP 
0000
0e78
0730
0d60
0d60
0d60
1b40
19c0
19c0
3180
7980
0000
ENDCHAR
STARTCHAR U+039E
ENCODING 926
SWIDTH 1000 0
DWIDTH 12 0
BBX 15 12 -1 -2
BITMAP 
0000
0ff8
0c18
0000
0c60
0fe0
18c0
0000
0000
60c0
7fc0
0000
ENDCHAR
STARTCHAR U+039F
ENCODING 927
SWIDTH 1000 0
DWIDTH 12 0
BBX 15 12 -1 -2
BITMAP 
0000
03c0
0e60
1860
3030
3030
6060
6060
30c0
3380
1e00
0000
ENDCHAR
STARTCHAR U+03A0
ENCODING 928
SWIDTH 1000 0
DWIDTH 12 0
BBX 15 12 -1 -2
BITMAP 
0000
1ff8
0c30
1860
1860
1860
30c0
30c0
30c0
6180
f3c0
0000
ENDCHAR
STARTCHAR U+03A1
ENCODING 929
SWIDTH 1000 0
DWIDTH 12 0
BBX 15 12 -1 -2
BITMAP 
0000
0fc0
0660
0c60
0c60
0dc0
1f00
1800
1800
3000
7800
0000
ENDCHAR
STARTCHAR U+03A3
ENCODING 931
SWIDTH 1000 0
DWIDTH 12 0
BBX 15 12 -1 -2
BITMAP 
0000
1fe0
0c60
0c60
0600
0600
0600
0c00
3860
60c0
ff80
0000
ENDCHAR
STARTCHAR U+03A4
ENCODING 932
SWIDTH 1000 0
DWIDTH 12 0
BBX 15 12 -1 -2
BITMAP 
0000
1ff8
1998
3330
0300
0300
0600
0600
0600
0c00
1e00
0000
ENDCHAR
STARTCHAR U+03A5
ENCODING 933
SWIDTH 1000 0
DWIDTH 12 0
BBX 15 12 -1 -2
BITMAP 
0000
0ef0
1b30
3330
0300
0300
0600
0600
0600
0c00
1e00
0000
ENDCHAR
STARTCHAR U+03A6
ENCODING 934
SWIDTH 1000 0
DWIDTH 12 0
BBX 15 12 -1 -2
BITMAP 
0000
03c0
0180
0fc0
1b60
1b60
1ac0
0f80
0600
0c00
1e00
0000
ENDCHAR
STARTCHAR U+03A7
ENCODING 935
SWIDTH 1000 0
DWIDTH 12 0
BBX 15 12 -1 -2
BITMAP 
0000
1e78
0c70
0cc0
0680
0700
0600
0d00
3980
6180
f3c0
0000
ENDCHAR
STARTCHAR U+03A8
ENCODING 936
SWIDTH 1000 0
DWIDTH 12 0
BBX 15 12 -1 -2
BITMAP 
0000
03c0
1998
1b30
1b60
1b40
1a80
0f00
0600
0c00
1e00
0000
ENDCHAR
STARTCHAR U+03A9
ENCODING 937
SWIDTH 1000 0
DWIDTH 12 0
BBX 15 12 -1 -2
BITMAP 
0000
03c0
0660
0c60
1860
1860
18c0
1980
6b60
dac0
fbc0
0000
ENDCHAR
STARTCHAR U+03B1
ENCODING 945
SWIDTH 1000 0
DWIDTH 12 0
BBX 15 12 -1 -2
BITMAP 
0000
0000
0000
0000
0760
0d40
1b80
3300
3600
3600
1b80
0000
ENDCHAR
STARTCHAR U+03B2
ENCODING 946
SWIDTH 1000 0
DWIDTH 12 0
BBX 15 12 -1 -2
BITMAP 
0000
00c0
01a0
0360
06c0
0d80
0d80
1980
3b00
6e00
c000
c000
ENDCHAR
STARTCHAR U+03B3
ENCODING 947
SWIDTH 1000 0
DWIDTH 12 0
BBX 15 12 -1 -2
BITMAP 
0000
0000
0000
0e70
1b40
0180
0300
0600
0c00
1800
3000
0000
ENDCHAR
STARTCHAR U+03B4
ENCODING 948
SWIDTH 1000 0
DWIDTH 12 0
BBX 15 12 -1 -2
BITMAP 
0000
01c0
0370
0300
0180
0780
0d80
1980
3300
3600
1c00
0000
ENDCHAR
STARTCHAR U+03B5
ENCODING 949
SWIDTH 1000 0
DWIDTH 12 0
BBX 15 12 -1 -2
BITMAP 
0000
0000
0000
0780
0cc0
0c00
0e00
1800
3380
3600
1c00
0000
ENDCHAR
STARTCHAR U+03B6
ENCODING 950
SWIDTH 1000 0
DWIDTH 12 0
BBX 15 12 -1 -2
BITMAP 
0000
0300
0370
03c0
0300
0600
0c00
1800
1800
0c00
6600
3c00
ENDCHAR
STARTCHAR U+03B7
ENCODING 951
SWIDTH 1000 0
DWIDTH 12 0
BBX 15 12 -1 -2
BITMAP 
0000
0000
0000
0000
0d80
1d40
0cc0
1980
3300
6300
0600
0600
ENDCHAR
STARTCHAR U+03B8
ENCODING 952
SWIDTH 1000 0
DWIDTH 12 0
BBX 15 12 -1 -2
BITMAP 
0000
00c0
03a0
0660
0c60
0fe0
1980
3180
3300
3600
1800
0000
ENDCHAR
STARTCHAR U+03B9
ENCODING 953
SWIDTH 1000 0
DWIDTH 12 0
BBX 15 12 -1 -2
BITMAP 
0000
0000
0000
0180
0300
0600
0c00
1800
19c0
1b00
0c00
0000
ENDCHAR
STARTCHAR U+03BA
ENCODING 954
SWIDTH 1000 0
DWIDTH 12 0
BBX 15 12 -1 -2
BITMAP 
0000
0000
0000
0c60
06c0
0780
0e00
1a00
36c0
6680
c300
0000
ENDCHAR
STARTCHAR U+03BB
ENCODING 955
SWIDTH 1000 0
DWIDTH 12 0
BBX 15 12 -1 -2
BITMAP 
0000
0000
0300
0180
0180
0180
0700
0d00
1b00
3300
61c0
0000
ENDCHAR
STARTCHAR U+03BC
ENCODING 956
SWIDTH 1000 0
DWIDTH 12 0
BBX 15 12 -1 -2
BITMAP 
0000
0000
0000
0660
0660
0cc0
18c0
3180
6b80
6dc0
c000
c000
ENDCHAR
STARTCHAR U+03BD
ENCODING 957
SWIDTH 1000 0
DWIDTH 12 0
BBX 15 12 -1 -2
BITMAP 
0000
0000
0000
0000
0c60
0cc0
0cc0
1980
1b00
3400
7800
0000
ENDCHAR
STARTCHAR U+03BE
ENCODING 958
SWIDTH 1000 0
DWIDTH 12 0
BBX 15 12 -1 -2
BITMAP 
0000
0180
01f0
0300
0600
0780
0c00
1800
0e00
0300
3300
1e00
ENDCHAR
STARTCHAR U+03BF
ENCODING 959
SWIDTH 1000 0
DWIDTH 12 0
BBX 15 12 -1 -2
BITMAP 
0000
0000
0000
0000
0700
0d80
1980
3180
3300
3600
1c00
0000
ENDCHAR
STARTCHAR U+03C0
ENCODING 960
SWIDTH 1000 0
DWIDTH 12 0
BBX 15 12 -1 -2
BITMAP 
0000
0000
0000
0030
0fe0
1cc0
0d80
1b00
3600
6680
c300
0000
ENDCHAR
STARTCHAR U+03C1
ENCODING 961
SWIDTH 1000 0
DWIDTH 12 0
BBX 15 12 -1 -2
BITMAP 
0000
0000
0000
03c0
0660
0c60
18c0
1d80
3700
3000
6000
6000
ENDCHAR
STARTCHAR U+03C2
ENCODING 962
SWIDTH 1000 0
DWIDTH 12 0
BBX 15 12 -1 -2
BITMAP 
0000
0000
0000
0000
03c0
0660
0c60
1860
0cc0
0c00
3600
1c00
ENDCHAR
STARTCHAR U+03C3
ENCODING 963
SWIDTH 1000 0
DWIDTH 12 0
BBX 15 12 -1 -2
BITMAP 
0000
0000
0000
0030
03e0
0e80
1980
3180
3300
3600
1c00
0000
ENDCHAR
STARTCHAR U+03C4
ENCODING 964
SWIDTH 1000 0
DWIDTH 12 0
BBX 15 12 -1 -2
BITMAP 
0000
0000
0070
0fc0
1b00
0600
0600
0c00
1800
1a00
0c00
0000
ENDCHAR
STARTCHAR U+03C5
ENCODING 965
SWIDTH 1000 0
DWIDTH 12 0
BBX 15 12 -1 -2
BITMAP 
0000
0000
0000
0000
18c0
38c0
18c0
1980
3300
3600
1800
0000
ENDCHAR
STARTCHAR U+03C6
ENCODING 966
SWIDTH 1000 0
DWIDTH 12 0
BBX 15 12 -1 -2
BITMAP 
0000
0060
00c0
0180
07c0
0d60
1b60
3660
36c0
1f80
1800
1800
ENDCHAR
STARTCHAR U+03C7
ENCODING 967
SWIDTH 1000 0
DWIDTH 12 0
BBX 15 12 -1 -2
BITMAP 
0000
0000
0030
0c60
1ac0
1b80
0600
0e00
1a00
3680
6300
0000
ENDCHAR
STARTCHAR U+03C8
ENCODING 968
SWIDTH 1000 0
DWIDTH 12 0
BBX 15 12 -1 -2
BITMAP 
0000
0060
0060
18e0
0db0
19b0
1b60
36c0
1f80
1800
1800
1800
ENDCHAR
STARTCHAR U+03C9
ENCODING 969
SWIDTH 1000 0
DWIDTH 12 0
BBX 15 12 -1 -2
BITMAP 
0000
0000
0000
0000
0c60
1860
3060
6660
66c0
6a80
3700
0000
ENDCHAR
STARTCHAR U+0401
ENCODING 1025
SWIDTH 1000 0
DWIDTH 12 0
BBX 15 12 -1 -2
BITMAP 
0770
0000
0fe0
0c30
0c00
0cc0
1f80
1980
1860
30c0
7f80
0000
ENDCHAR
STARTCHAR U+0410
ENCODING 1040
SWIDTH 1000 0
DWIDTH 12 0
BBX 15 12 -1 -2
BITMAP 
0000
0180
0180
0380
0680
0d80
1980
1f80
3180
6180
f3c0
0000
ENDCHAR
STARTCHAR U+0411
ENCODING 1041
SWIDTH 1000 0
DWIDTH 12 0
BBX 15 12 -1 -2
BITMAP 
0000
0ff0
0630
0c00
0c00
0f00
1980
18c0
1980
3300
7e00
0000
ENDCHAR
STARTCHAR U+0412
ENCODING 1042
SWIDTH 1000 0
DWIDTH 12 0
BBX 15 12 -1 -2
BITMAP 
0000
0fc0
0660
0c60
0cc0
0f00
1980
18c0
1980
3300
7e00
0000
ENDCHAR
STARTCHAR U+0413
ENCODING 1043
SWIDTH 1000 0
DWIDTH 12 0
BBX 15 12 -1 -2
BITMAP 
0000
0fe0
0660
0c60
0c00
0c00
1800
1800
1800
3000
7800
0000
ENDCHAR
STARTCHAR U+0414
ENCODING 1044
SWIDTH 1000 0
DWIDTH 12 0
BBX 15 12 -1 -2
BITMAP 
0000
07f8
0360
06c0
06c0
0cc0
0d80
1980
3180
6300
ffc0
c0c0
ENDCHAR
STARTCHAR U+0415
ENCODING 1045
SWIDTH 1000 0
DWIDTH 12 0
BBX 15 12 -1 -2
BITMAP 
0000
0ff0
0618
0c00
0cc0
0fc0
1980
1800
1860
30c0
7f80
0000
ENDCHAR
STARTCHAR U+0416
ENCODING 1046
SWIDTH 1000 0
DWIDTH 12 0
BBX 15 12 -1 -2
BITMAP 
0000
1bd8
19b0
1b60
0d40
0f80
1a80
3680
3680
6d80
eec0
0000
ENDCHAR
STARTCHAR U+0417
ENCODING 1047
SWIDTH 1000 0
DWIDTH 12 0
BBX 15 12 -1 -2
BITMAP 
0000
0380
0ec0
18c0
00c0
0300
0180
00c0
3180
7300
6e00
0000
ENDCHAR
STARTCHAR U+0418
ENCODING 1048
SWIDTH 1000 0
DWIDTH 12 0
BBX 15 12 -1 -2
BITMAP 
0000
0f38
0670
0ce0
0da0
0d60
1ac0
1cc0
1cc0
3180
7bc0
0000
ENDCHAR
STARTCHAR U+0419
ENCODING 1049
SWIDTH 1000 0
DWIDTH 12 0
BBX 15 12 -1 -2
BITMAP 
0360
01c0
0f38
0ce0
0da0
0d60
1ac0
1cc0
1cc0
3180
7bc0
0000
ENDCHAR
STARTCHAR U+041A
ENCODING 1050
SWIDTH 1000 0
DWIDTH 12 0
BBX 15 12 -1 -2
BITMAP 
0000
0f30
06e8
0d80
0d00
0e00
1a00
1b00
1980
3180
7bc0
0000
ENDCHAR
STARTCHAR U+041B
ENCODING 1051
SWIDTH 1000 0
DWIDTH 12 0
BBX 15 12 -1 -2
BITMAP 
0000
07f8
01b0
0360
0360
0660
06c0
0cc0
18c0
d180
63c0
0000
ENDCHAR
STARTCHAR U+041C
ENCODING 1052
SWIDTH 1000 0
DWIDTH 12 0
BBX 15 12 -1 -2
BITMAP 
0000
1c38
0c30
1ce0
1ce0
35a0
3560
6660
6660
ccc0
e1e0
0000
ENDCHAR
STARTCHAR U+041D
ENCODING 1053
SWIDTH 1000 0
DWIDTH 12 0
BBX 15 12 -1 -2
BITMAP 
0000
1e78
0c30
1860
1860
1fe0
30c0
30c0
30c0
6180
f3c0
0000
ENDCHAR
STARTCHAR U+041E
ENCODING 1054
SWIDTH 1000 0
DWIDTH 12 0
BBX 15 12 -1 -2
BITMAP 
0000
03c0
0e60
1860
3030
3030
6060
6060
30c0
3380
1e00
0000
ENDCHAR
STARTCHAR U+041F
ENCODING 1055
SWIDTH 1000 0
DWIDTH 12 0
BBX 15 12 -1 -2
BITMAP 
0000
1ff0
0c60
18c0
18c0
18c0
3180
3180
3180
6300
f780
0000
ENDCHAR
STARTCHAR U+0420
ENCODING 1056
SWIDTH 1000 0
DWIDTH 12 0
BBX 15 12 -1 -2
BITMAP 
0000
0fc0
0660
0c60
0c60
0dc0
1f00
1800
1800
3000
7800
0000
ENDCHAR
STARTCHAR U+0421
ENCODING 1057
SWIDTH 1000 0
DWIDTH 12 0
BBX 15 12 -1 -2
BITMAP 
0000
01e8
0738
0c30
1800
1800
3000
3000
18e0
1980
0f00
0000
ENDCHAR
STARTCHAR U+0422
ENCODING 1058
SWIDTH 1000 0
DWIDTH 12 0
BBX 15 12 -1 -2
BITMAP 
0000
1ff8
1998
3330
0300
0300
0600
0600
0600
0c00
1e00
0000
ENDCHAR
STARTCHAR U+0423
ENCODING 1059
SWIDTH 1000 0
DWIDTH 12 0
BBX 15 12 -1 -2
BITMAP 
0000
1e78
0c30
0c60
0cc0
0d80
0d00
0600
0600
6c00
3800
0000
ENDCHAR
STARTCHAR U+0424
ENCODING 1060
SWIDTH 1000 0
DWIDTH 12 0
BBX 15 12 -1 -2
BITMAP 
0000
03c0
0180
0fc0
1b60
3360
3660
36c0
1f80
0c00
1e00
0000
ENDCHAR
STARTCHAR U+0425
ENCODING 1061
SWIDTH 1000 0
DWIDTH 12 0
BBX 15 12 -1 -2
BITMAP 
0000
1e78
0c70
0cc0
0680
0700
0600
0d00
3980
6180
f3c0
0000
ENDCHAR
STARTCHAR U+0426
ENCODING 1062
SWIDTH 1000 0
DWIDTH 12 0
BBX 15 12 -1 -2
BITMAP 
0000
1ef0
0c60
18c0
18c0
18c0
3180
3180
3180
6300
ffc0
00c0
ENDCHAR
STARTCHAR U+0427
ENCODING 1063
SWIDTH 1000 0
DWIDTH 12 0
BBX 15 12 -1 -2
BITMAP 
0000
1ef0
0c60
18c0
18c0
18c0
1b80
0e80
0180
0300
0780
0000
ENDCHAR
STARTCHAR U+0428
ENCODING 1064
SWIDTH 1000 0
DWIDTH 12 0
BBX 15 12 -1 -2
BITMAP 
0000
3ddc
1998
3330
3330
3330
6660
6660
6660
ccc0
ffe0
0000
ENDCHAR
STARTCHAR U+0429
ENCODING 1065
SWIDTH 1000 0
DWIDTH 12 0
BBX 15 12 -1 -2
BITMAP 
0000
3ddc
1998
3330
3330
3330
6660
6660
6660
ccc0
fff0
0030
ENDCHAR
STARTCHAR U+042A
ENCODING 1066
SWIDTH 1000 0
DWIDTH 12 0
BBX 15 12 -1 -2
BITMAP 
0000
0f00
1b00
0600
0600
0780
0cc0
0c60
0cc0
1980
3f00
0000
ENDCHAR
STARTCHAR U+042B
ENCODING 1067
SWIDTH 1000 0
DWIDTH 12 0
BBX 15 12 -1 -2
BITMAP 
0000
1c78
0c30
1860
1860
1c60
36c0
3340
36c0
6d80
fbc0
0000
ENDCHAR
STARTCHAR U+042C
ENCODING 1068
SWIDTH 1000 0
DWIDTH 12 0
BBX 15 12 -1 -2
BITMAP 
0000
0e00
0600
0c00
0f80
0cc0
18c0
18c0
1980
3300
3e00
0000
ENDCHAR
STARTCHAR U+042D
ENCODING 1069
SWIDTH 1000 0
DWIDTH 12 0
BBX 15 12 -1 -2
BITMAP 
0000
0dc0
0e60
1860
0060
0f60
19c0
00c0
3180
3300
1e00
0000
ENDCHAR
STARTCHAR U+042E
ENCODING 1070
SWIDTH 1000 0
DWIDTH 12 0
BBX 15 12 -1 -2
BITMAP 
0000
3ce0
19b0
3330
3630
3e30
6c60
6c60
6cc0
cd80
e700
0000
ENDCHAR
STARTCHAR U+042F
ENCODING 1071
SWIDTH 1000 0
DWIDTH 12 0
BBX 15 12 -1 -2
BITMAP 
0000
03f8
0e30
1860
0c60
07e0
0340
06c0
0cc0
1980
f3c0
0000
ENDCHAR
STARTCHAR U+0430
ENCODING 1072
SWIDTH 1000 0
DWIDTH 12 0
BBX 15 12 -1 -2
BITMAP 
0000
0000
0000
0000
0380
06c0
0780
0d80
1b00
1a00
0d80
0000
ENDCHAR
STARTCHAR U+0431
ENCODING 1073
SWIDTH 1000 0
DWIDTH 12 0
BBX 15 12 -1 -2
BITMAP 
0000
00e0
0780
0c00
1800
1e00
3b00
3180
3300
3600
1c00
0000
ENDCHAR
STARTCHAR U+0432
ENCODING 1074
SWIDTH 1000 0
DWIDTH 12 0
BBX 15 12 -1 -2
BITMAP 
0000
0000
0000
0000
1f00
0d80
1980
1e00
1b00
3300
7e00
0000
ENDCHAR
STARTCHAR U+0433
ENCODING 1075
SWIDTH 1000 0
DWIDTH 12 0
BBX 15 12 -1 -2
BITMAP 
0000
0000
0000
0000
1f80
0cc0
1800
1800
1800
3000
7800
0000
ENDCHAR
STARTCHAR U+0434
ENCODING 1076
SWIDTH 1000 0
DWIDTH 12 0
BBX 15 12 -1 -2
BITMAP 
0000
0000
0000
0000
0fe0
06c0
0d80
0d80
1980
3300
ff80
c180
ENDCHAR
STARTCHAR U+0435
ENCODING 1077
SWIDTH 1000 0
DWIDTH 12 0
BBX 15 12 -1 -2
BITMAP 
0000
0000
0000
0000
0700
0d80
1980
3f80
3000
3300
1e00
0000
ENDCHAR
STARTCHAR U+0436
ENCODING 1078
SWIDTH 1000 0
DWIDTH 12 0
BBX 15 12 -1 -2
BITMAP 
0000
0000
0000
0000
37b0
1bc0
1a80
0f00
1a80
3580
eec0
0000
ENDCHAR
STARTCHAR U+0437
ENCODING 1079
SWIDTH 1000 0
DWIDTH 12 0
BBX 15 12 -1 -2
BITMAP 
0000
0000
0000
0000
0380
0ec0
00c0
0700
0180
3180
1f00
0000
ENDCHAR
STARTCHAR U+0438
ENCODING 1080
SWIDTH 1000 0
DWIDTH 12 0
BBX 15 12 -1 -2
BITMAP 
0000
0000
0000
0000
1ef0
0de0
1b40
1ac0
1cc0
3180
7bc0
0000
ENDCHAR
STARTCHAR U+0439
ENCODING 1081
SWIDTH 1000 0
DWIDTH 12 0
BBX 15 12 -1 -2
BITMAP 
0000
0360
01c0
0000
1ef0
0de0
1b40
1ac0
1cc0
3180
7bc0
0000
ENDCHAR
STARTCHAR U+043A
ENCODING 1082
SWIDTH 1000 0
DWIDTH 12 0
BBX 15 12 -1 -2
BITMAP 
0000
0000
0000
0000
1ec0
0da0
1a00
1c00
1a00
3600
7b80
0000
ENDCHAR
STARTCHAR U+043B
ENCODING 1083
SWIDTH 1000 0
DWIDTH 12 0
BBX 15 12 -1 -2
BITMAP 
0000
0000
0000
0000
0fc0
0680
0d00
0d00
1b00
d600
6f00
0000
ENDCHAR
STARTCHAR U+043C
ENCODING 1084
SWIDTH 1000 0
DWIDTH 12 0
BBX 15 12 -1 -2
BITMAP 
0000
0000
0000
0000
3870
1ce0
39c0
3540
36c0
6680
f5c0
0000
ENDCHAR
STARTCHAR U+043D
ENCODING 1085
SWIDTH 1000 0
DWIDTH 12 0
BBX 15 12 -1 -2
BITMAP 
0000
0000
0000
0000
1ee0
0cc0
1980
1f80
1980
3300
7b80
0000
ENDCHAR
STARTCHAR U+043E
ENCODING 1086
SWIDTH 1000 0
DWIDTH 12 0
BBX 15 12 -1 -2
BITMAP 
0000
0000
0000
0000
0780
0cc0
18c0
30c0
3180
3300
1e00
0000
ENDCHAR
STARTCHAR U+043F
ENCODING 1087
SWIDTH 1000 0
DWIDTH 12 0
BBX 15 12 -1 -2
BITMAP 
0000
0000
0000
0000
1fe0
0cc0
1980
1980
1980
3300
7b80
0000
ENDCHAR
STARTCHAR U+0440
ENCODING 1088
SWIDTH 1000 0
DWIDTH 12 0
BBX 15 12 -1 -2
BITMAP 
0000
0000
0000
0000
1d80
0ec0
18c0
18c0
1d80
3600
3000
7800
ENDCHAR
STARTCHAR U+0441
ENCODING 1089
SWIDTH 1000 0
DWIDTH 12 0
BBX 15 12 -1 -2
BITMAP 
0000
0000
0000
0000
0780
0cc0
1800
3000
3000
3300
1e00
0000
ENDCHAR
STARTCHAR U+0442
ENCODING 1090
SWIDTH 1000 0
DWIDTH 12 0
BBX 15 12 -1 -2
BITMAP 
0000
0000
0000
0000
1fe0
1b60
0600
0600
0600
0c00
1e00
0000
ENDCHAR
STARTCHAR U+0443
ENCODING 1091
SWIDTH 1000 0
DWIDTH 12 0
BBX 15 12 -1 -2
BITMAP 
0000
0000
0000
1ef0
0c60
06c0
06c0
0380
0600
0600
6c00
3800
ENDCHAR
STARTCHAR U+0444
ENCODING 1092
SWIDTH 1000 0
DWIDTH 12 0
BBX 15 12 -1 -2
BITMAP 
0000
03c0
0180
0d40
1ba0
3360
6660
6660
3740
3d80
0c00
1e00
ENDCHAR
STARTCHAR U+0445
ENCODING 1093
SWIDTH 1000 0
DWIDTH 12 0
BBX 15 12 -1 -2
BITMAP 
0000
0000
0000
0000
1ee0
0dc0
0d00
0600
1d00
3300
7b80
0000
ENDCHAR
STARTCHAR U+0446
ENCODING 1094
SWIDTH 1000 0
DWIDTH 12 0
BBX 15 12 -1 -2
BITMAP 
0000
0000
0000
0000
1ee0
0cc0
1980
1980
1980
3300
7f80
0180
ENDCHAR
STARTCHAR U+0447
ENCODING 1095
SWIDTH 1000 0
DWIDTH 12 0
BBX 15 12 -1 -2
BITMAP 
0000
0000
0000
0000
1ee0
0cc0
0d80
0780
0180
0300
0780
0000
ENDCHAR
STARTCHAR U+0448
ENCODING 1096
SWIDTH 1000 0
DWIDTH 12 0
BBX 15 12 -1 -2
BITMAP 
0000
0000
0000
0000
1b60
1b60
36c0
36c0
36c0
6d80
7f80
0000
ENDCHAR
STARTCHAR U+0449
ENCODING 1097
SWIDTH 1000 0
DWIDTH 12 0
BBX 15 12 -1 -2
BITMAP 
0000
0000
0000
0000
36c0
36c0
6d80
6d80
6d80
db00
ffc0
00c0
ENDCHAR
STARTCHAR U+044A
ENCODING 1098
SWIDTH 1000 0
DWIDTH 12 0
BBX 15 12 -1 -2
BITMAP 
0000
0000
0000
0000
1c00
3400
1f00
1980
1980
3300
7e00
0000
ENDCHAR
STARTCHAR U+044B
ENCODING 1099
SWIDTH 1000 0
DWIDTH 12 0
BBX 15 12 -1 -2
BITMAP 
0000
0000
0000
0000
3de0
18c0
3180
3980
3580
6d00
fb80
0000
ENDCHAR
STARTCHAR U+044C
ENCODING 1100
SWIDTH 1000 0
DWIDTH 12 0
BBX 15 12 -1 -2
BITMAP 
0000
0000
0000
0000
1e00
0c00
1f00
1980
1980
3300
7e00
0000
ENDCHAR
STARTCHAR U+044D
ENCODING 1101
SWIDTH 1000 0
DWIDTH 12 0
BBX 15 12 -1 -2
BITMAP 
0000
0000
0000
0000
0f80
18c0
0d80
1a80
0180
6300
3e00
0000
ENDCHAR
STARTCHAR U+044E
ENCODING 1102
SWIDTH 1000 0
DWIDTH 12 0
BBX 15 12 -1 -2
BITMAP 
0000
0000
0000
0000
3dc0
1b60
3660
3c60
34c0
6d80
f700
0000
ENDCHAR
STARTCHAR U+044F
ENCODING 1103
SWIDTH 1000 0
DWIDTH 12 0
BBX 15 12 -1 -2
BITMAP 
0000
0000
0000
0000
07e0
0cc0
0d80
0f80
1980
3300
7b80
0000
ENDCHAR
STARTCHAR U+0451
ENCODING 1105
SWIDTH 1000 0
DWIDTH 12 0
BBX 15 12 -1 -2
BITMAP 
0000
0000
06c0
0000
0700
0d80
1980
3f80
3000
3300
1e00
0000
ENDCHAR
STARTCHAR U+1E3E
ENCODING 7742
SWIDTH 1000 0
DWIDTH 12 0
BBX 15 12 -1 -2
BITMAP 
0000
0060
1eec
1d70
1ef0
1ef0
3560
3760
34e0
6dc0
f1e0
0000
ENDCHAR
STARTCHAR U+1E3F
ENCODING 7743
SWIDTH 1000 0
DWIDTH 12 0
BBX 15 12 -1 -2
BITMAP 
0000
0000
00e0
0180
0300
1f70
1db0
1db0
1db0
3b60
7b70
0000
ENDCHAR
STARTCHAR U+1F70
ENCODING 8048
SWIDTH 1000 0
DWIDTH 12 0
BBX 15 12 -1 -2
BITMAP 
0000
0000
0180
0180
00c0
0760
1dc0
1dc0
1dc0
3b80
1ec0
0000
ENDCHAR
STARTCHAR U+1F71
ENCODING 8049
SWIDTH 1000 0
DWIDTH 12 0
BBX 15 12 -1 -2
BITMAP 
0000
0000
00e0
0180
0300
07a0
1dc0
1dc0
1dc0
3b80
1ec0
0000
ENDCHAR
STARTCHAR U+1F72
ENCODING 8050
SWIDTH 1000 0
DWIDTH 12 0
BBX 15 12 -1 -2
BITMAP 
0000
0000
0180
0180
00c0
07e0
1c60
0f80
1c00
34c0
0780
0000
ENDCHAR
STARTCHAR U+1F73
ENCODING 8051
SWIDTH 1000 0
DWIDTH 12 0
BBX 15 12 -1 -2
BITMAP 
0000
0000
00e0
0180
0300
07c0
1c60
0f80
1c00
34c0
0780
0000
ENDCHAR
STARTCHAR U+2010
ENCODING 8208
SWIDTH 1000 0
DWIDTH 12 0
BBX 15 12 -1 -2
BITMAP 
0000
0000
0000
0000
0000
0000
0f80
0000
0000
0000
0000
0000
ENDCHAR
STARTCHAR U+2013
ENCODING 8211
SWIDTH 1000 0
DWIDTH 12 0
BBX 15 12 -1 -2
BITMAP 
0000
0000
0000
0000
0000
0000
0fc0
0000
0000
0000
0000
0000
ENDCHAR
STARTCHAR U+2014
ENCODING 8212
SWIDTH 1000 0
DWIDTH 12 0
BBX 15 12 -1 -2
BITMAP 
0000
0000
0000
0000
0000
0000
3fe0
0000
0000
0000
0000
0000
ENDCHAR
STARTCHAR U+2015
ENCODING 8213
SWIDTH 1000 0
DWIDTH 12 0
BBX 15 12 -1 -2
BITMAP 
0000
0000
0000
0000
0000
0000
fff8
0000
0000
0000
0000
0000
ENDCHAR
STARTCHAR U+2016
ENCODING 8214
SWIDTH 1000 0
DWIDTH 12 0
BBX 15 12 -1 -2
BITMAP 
0360
0360
0360
06c0
06c0
06c0
0d80
0d80
0d80
1b00
1b00
1b00
ENDCHAR
STARTCHAR U+2018
ENCODING 8216
SWIDTH 1000 0
DWIDTH 12 0
BBX 15 12 -1 -2
BITMAP 
000c
0018
0018
0038
0000
0000
0000
0000
0000
0000
0000
0000
ENDCHAR
STARTCHAR U+2019
ENCODING 8217
SWIDTH 1000 0
DWIDTH 12 0
BBX 15 12 -1 -2
BITMAP 
0e00
0600
0c00
1800
0000
0000
0000
0000
0000
0000
0000
0000
ENDCHAR
STARTCHAR U+201C
ENCODING 8220
SWIDTH 1000 0
DWIDTH 12 0
BBX 15 12 -1 -2
BITMAP 
006c
00d8
00d8
01d8
0000
0000
0000
0000
0000
0000
0000
0000
ENDCHAR
STARTCHAR U+201D
ENCODING 8221
SWIDTH 1000 0
DWIDTH 12 0
BBX 15 12 -1 -2
BITMAP 
1d80
0d80
1b80
3600
0000
0000
0000
0000
0000
0000
0000
0000
ENDCHAR
STARTCHAR U+2020
ENCODING 8224
SWIDTH 1000 0
DWIDTH 12 0
BBX 15 12 -1 -2
BITMAP 
0180
03c0
0db0
3ff0
1b60
0780
0f00
0600
0600
0c00
0c00
0c00
ENDCHAR
STARTCHAR U+2021
ENCODING 8225
SWIDTH 1000 0
DWIDTH 12 0
BBX 15 12 -1 -2
BITMAP 
03c0
03c0
0db0
3ff0
1b60
0300
0600
36c0
7fe0
6d80
1e00
1e00
ENDCHAR
STARTCHAR U+2022
ENCODING 8226
SWIDTH 1000 0
DWIDTH 12 0
BBX 15 12 -1 -2
BITMAP 
0000
0000
0000
03c0
07e0
07e0
0fc0
0780
0000
0000
0000
0000
ENDCHAR
STARTCHAR U+2025
ENCODING 8229
SWIDTH 1000 0
DWIDTH 12 0
BBX 15 12 -1 -2
BITMAP 
0000
0000
0000
0000
0000
1860
30c0
0000
0000
0000
0000
0000
ENDCHAR
STARTCHAR U+2026
ENCODING 8230
SWIDTH 1000 0
DWIDTH 12 0
BBX 15 12 -1 -2
BITMAP 
0000
0000
0000
0000
0000
3330
6660
0000
0000
0000
0000
0000
ENDCHAR
STARTCHAR U+2030
ENCODING 8240
SWIDTH 1000 0
DWIDTH 12 0
BBX 15 12 -1 -2
BITMAP 
0e60
1b60
1b40
1b80
0d00
0600
0c00
1a60
3ed0
6ae0
ccc0
0000
ENDCHAR
STARTCHAR U+2032
ENCODING 8242
SWIDTH 1000 0
DWIDTH 12 0
BBX 15 12 -1 -2
BITMAP 
0700
0300
0600
0c00
0000
0000
0000
0000
0000
0000
0000
0000
ENDCHAR
STARTCHAR U+2033
ENCODING 8243
SWIDTH 1000 0
DWIDTH 12 0
BBX 15 12 -1 -2
BITMAP 
0ec0
06c0
0dc0
1b00
0000
0000
0000
0000
0000
0000
0000
0000
ENDCHAR
STARTCHAR U+2035
ENCODING 8245
SWIDTH 1000 0
DWIDTH 12 0
BBX 15 12 -1 -2
BITMAP 
0000
0380
00c0
0000
0000
0000
0000
0000
0000
0000
0000
0000
ENDCHAR
STARTCHAR U+203B
ENCODING 8251
SWIDTH 1000 0
DWIDTH 12 0
BBX 15 12 -1 -2
BITMAP 
0000
19cc
0dd8
0c60
06c0
3ab8
7770
0d80
38c0
6ec0
ce60
0000
ENDCHAR
STARTCHAR U+203C
ENCODING 8252
SWIDTH 1000 0
DWIDTH 12 0
BBX 15 12 -1 -2
BITMAP 
0000
0360
03b0
0760
0760
0740
0d80
0d80
0000
1d80
1d80
0000
ENDCHAR
STARTCHAR U+203E
ENCODING 8254
SWIDTH 1000 0
DWIDTH 12 0
BBX 15 12 -1 -2
BITMAP 
0000
1ffe
0000
0000
0000
0000
0000
0000
0000
0000
0000
0000
ENDCHAR
STARTCHAR U+203F
ENCODING 8255
SWIDTH 1000 0
DWIDTH 12 0
BBX 15 12 -1 -2
BITMAP 
0000
0000
0000
0000
0000
0000
0000
0000
0000
6060
30c0
1f80
ENDCHAR
STARTCHAR U+2042
ENCODING 8258
SWIDTH 1000 0
DWIDTH 12 0
BBX 15 12 -1 -2
BITMAP 
0000
00c0
0370
03c0
03c0
06a0
0d60
6aa8
7cf0
79e0
d550
30c0
ENDCHAR
STARTCHAR U+2048
ENCODING 8264
SWIDTH 1000 0
DWIDTH 12 0
BBX 15 12 -1 -2
BITMAP 
0000
0398
069c
1dd8
1dd8
03b8
0660
0c60
0000
18c0
18c0
0000
ENDCHAR
STARTCHAR U+2049
ENCODING 8265
SWIDTH 1000 0
DWIDTH 12 0
BBX 15 12 -1 -2
BITMAP 
0000
0c70
0ed0
1db8
1db8
1c70
30c0
3180
0000
6300
6300
0000
ENDCHAR
STARTCHAR U+2074
ENCODING 8308
SWIDTH 1000 0
DWIDTH 12 0
BBX 15 12 -1 -2
BITMAP 
0700
0700
0d00
1a00
1f00
0600
0000
0000
0000
0000
0000
0000
ENDCHAR
STARTCHAR U+207F
ENCODING 8319
SWIDTH 1000 0
DWIDTH 12 0
BBX 15 12 -1 -2
BITMAP 
0f00
0d80
0d80
1b00
1b00
0000
0000
0000
0000
0000
0000
0000
ENDCHAR
STARTCHAR U+2081
ENCODING 8321
SWIDTH 1000 0
DWIDTH 12 0
BBX 15 12 -1 -2
BITMAP 
0000
0000
0000
0000
0600
0e00
0c00
0c00
0c00
1800
0000
0000
ENDCHAR
STARTCHAR U+2082
ENCODING 8322
SWIDTH 1000 0
DWIDTH 12 0
BBX 15 12 -1 -2
BITMAP 
0000
0000
0000
0000
0c00
1a00
0600
0c00
3800
6c00
0000
0000
ENDCHAR
STARTCHAR U+2083
ENCODING 8323
SWIDTH 1000 0
DWIDTH 12 0
BBX 15 12 -1 -2
BITMAP 
0000
0000
0000
0000
0e00
1b00
0c00
0600
3400
3800
0000
0000
ENDCHAR
STARTCHAR U+2084
ENCODING 8324
SWIDTH 1000 0
DWIDTH 12 0
BBX 15 12 -1 -2
BITMAP 
0000
0000
0000
0000
0e00
0e00
1c00
3400
3e00
1800
0000
0000
ENDCHAR
STARTCHAR U+20AC
ENCODING 8364
SWIDTH 1000 0
DWIDTH 12 0
BBX 15 12 -1 -2
BITMAP 
0000
01e0
0338
0e30
3fe0
1c00
7f80
3800
1860
19c0
0f00
0000
ENDCHAR
STARTCHAR U+2103
ENCODING 8451
SWIDTH 1000 0
DWIDTH 12 0
BBX 15 12 -1 -2
BITMAP 
0000
0ce8
1eb8
1a30
0c00
0c00
1800
1800
18e0
1980
0f00
0000
ENDCHAR
STARTCHAR U+2105
ENCODING 8453
SWIDTH 1000 0
DWIDTH 12 0
BBX 15 12 -1 -2
BITMAP 
0000
1e18
3070
60c0
6180
1d60
3430
1830
7660
c6c0
8380
0000
ENDCHAR
STARTCHAR U+2109
ENCODING 8457
SWIDTH 1000 0
DWIDTH 12 0
BBX 15 12 -1 -2
BITMAP 
06fe
0d40
0ec0
0d80
01f8
0180
0300
0300
0300
0600
0000
0000
ENDCHAR
STARTCHAR U+210F
ENCODING 8463
SWIDTH 1000 0
DWIDTH 12 0
BBX 15 12 -1 -2
BITMAP 
0000
07c0
01f0
0380
0f00
07c0
0e60
0ce0
1cc0
3ba0
31c0
0000
ENDCHAR
STARTCHAR U+2113
ENCODING 8467
SWIDTH 1000 0
DWIDTH 12 0
BBX 15 12 -1 -2
BITMAP 
0060
00d0
00d0
01a0
01a0
01c0
0300
0760
0dc0
0000
0000
0000
ENDCHAR
STARTCHAR U+2116
ENCODING 8470
SWIDTH 1000 0
DWIDTH 12 0
BBX 15 12 -1 -2
BITMAP 
0d80
0d80
0e80
1b70
1b58
1b58
36b0
36b0
36e0
0000
0000
0000
ENDCHAR
STARTCHAR U+2121
ENCODING 8481
SWIDTH 1000 0
DWIDTH 12 0
BBX 15 12 -1 -2
BITMAP 
0fc0
0300
0300
06f0
0698
06f8
0d00
0d30
0de0
0000
0000
0000
ENDCHAR
STARTCHAR U+2122
ENCODING 8482
SWIDTH 1000 0
DWIDTH 12 0
BBX 15 12 -1 -2
BITMAP 
0fd0
033a
033c
066c
0668
0660
0000
0000
0000
0000
0000
0000
ENDCHAR
STARTCHAR U+2126
ENCODING 8486
SWIDTH 1000 0
DWIDTH 12 0
BBX 15 12 -1 -2
BITMAP 
00f0
0198
0318
0318
0330
0360
0340
0d50
0f70
0000
0000
0000
ENDCHAR
STARTCHAR U+2127
ENCODING 8487
SWIDTH 1000 0
DWIDTH 12 0
BBX 15 12 -1 -2
BITMAP 
0000
0fbc
0dac
0360
0e70
1c38
3870
3870
18e0
1980
0f00
0000
ENDCHAR
STARTCHAR U+212B
ENCODING 8491
SWIDTH 1000 0
DWIDTH 12 0
BBX 15 12 -1 -2
BITMAP 
0180
0340
0380
0300
0680
0d80
1980
1f80
3180
6180
f3c0
0000
ENDCHAR
STARTCHAR U+2135
ENCODING 8501
SWIDTH 1000 0
DWIDTH 12 0
BBX 15 12 -1 -2
BITMAP 
0000
0660
0660
0e70
0778
07e0
0f80
19c0
18e0
39c0
71c0
0000
ENDCHAR
STARTCHAR U+2153
ENCODING 8531
SWIDTH 1000 0
DWIDTH 12 0
BBX 15 12 -1 -2
BITMAP 
0300
0706
031c
0630
0660
06d8
0368
0630
1c30
31b0
60e0
0000
ENDCHAR
STARTCHAR U+2154
ENCODING 8532
SWIDTH 1000 0
DWIDTH 12 0
BBX 15 12 -1 -2
BITMAP 
0700
0d86
031c
0630
0c60
1ed8
0368
0630
1c30
31b0
60e0
0000
ENDCHAR
STARTCHAR U+2155
ENCODING 8533
SWIDTH 1000 0
DWIDTH 12 0
BBX 15 12 -1 -2
BITMAP 
0000
0300
0f00
0630
0660
06c0
0300
06f0
1d80
33c0
6060
03c0
ENDCHAR
STARTCHAR U+215B
ENCODING 8539
SWIDTH 1000 0
DWIDTH 12 0
BBX 15 12 -1 -2
BITMAP 
0300
0706
031c
0630
0660
06d0
0358
0660
1cd0
30d0
6060
0000
ENDCHAR
STARTCHAR U+215C
ENCODING 8540
SWIDTH 1000 0
DWIDTH 12 0
BBX 15 12 -1 -2
BITMAP 
0700
0d86
031c
0330
1b60
0ed0
0358
0660
1cd0
30d0
6060
0000
ENDCHAR
STARTCHAR U+215D
ENCODING 8541
SWIDTH 1000 0
DWIDTH 12 0
BBX 15 12 -1 -2
BITMAP 
0f80
0c06
0e1c
0330
1b60
0ed0
0358
0660
1cd0
30d0
6060
0000
ENDCHAR
STARTCHAR U+215E
ENCODING 8542
SWIDTH 1000 0
DWIDTH 12 0
BBX 15 12 -1 -2
BITMAP 
07c0
00c6
019c
0330
0660
06d0
0358
0660
1cd0
30d0
6060
0000
ENDCHAR
STARTCHAR U+2160
ENCODING 8544
SWIDTH 1000 0
DWIDTH 12 0
BBX 15 12 -1 -2
BITMAP 
0060
0060
0060
00c0
00c0
00c0
0180
0180
0180
0000
0000
0000
ENDCHAR
STARTCHAR U+2161
ENCODING 8545
SWIDTH 1000 0
DWIDTH 12 0
BBX 15 12 -1 -2
BITMAP 
0198
0198
0198
0330
0330
0330
0660
0660
0660
0000
0000
0000
ENDCHAR
STARTCHAR U+2162
ENCODING 8546
SWIDTH 1000 0
DWIDTH 12 0
BBX 15 12 -1 -2
BITMAP 
036c
036c
036c
06d8
06d8
06d8
0db0
0db0
0db0
0000
0000
0000
ENDCHAR
STARTCHAR U+2163
ENCODING 8547
SWIDTH 1000 0
DWIDTH 12 0
BBX 15 12 -1 -2
BITMAP 
06cc
06cc
06d8
0cd8
0cd0
0ce0
1860
18c0
18c0
0000
0000
0000
ENDCHAR
STARTCHAR U+2164
ENCODING 8548
SWIDTH 1000 0
DWIDTH 12 0
BBX 15 12 -1 -2
BITMAP 
0198
0198
01b0
01b0
01a0
01c0
00c0
0180
0180
0000
0000
0000
ENDCHAR
STARTCHAR U+2165
ENCODING 8549
SWIDTH 1000 0
DWIDTH 12 0
BBX 15 12 -1 -2
BITMAP 
066c
066c
06cc
06d8
0698
0718
0330
0630
0630
0000
0000
0000
ENDCHAR
STARTCHAR U+2166
ENCODING 8550
SWIDTH 1000 0
DWIDTH 12 0
BBX 15 12 -1 -2
BITMAP 
066a
066a
06da
06d4
06b4
0734
0368
0668
0668
0000
0000
0000
ENDCHAR
STARTCHAR U+2167
ENCODING 8551
SWIDTH 1000 0
DWIDTH 12 0
BBX 15 12 -1 -2
BITMAP 
0cd4
0cd4
0db4
0da8
0d68
0e68
06d0
0cd0
0cd0
0000
0000
0000
ENDCHAR
STARTCHAR U+2168
ENCODING 8552
SWIDTH 1000 0
DWIDTH 12 0
BBX 15 12 -1 -2
BITMAP 
06cc
06cc
06d8
0cd0
0c60
0ce0
19a0
1b30
1b30
0000
0000
0000
ENDCHAR
STARTCHAR U+2169
ENCODING 8553
SWIDTH 1000 0
DWIDTH 12 0
BBX 15 12 -1 -2
BITMAP 
0198
0198
01b0
01a0
00c0
01c0
0340
0660
0660
0000
0000
0000
ENDCHAR
STARTCHAR U+216A
ENCODING 8554
SWIDTH 1000 0
DWIDTH 12 0
BBX 15 12 -1 -2
BITMAP 
0000
1efc
0eb8
1db0
0f70
0e70
1ee0
36e0
6f60
cec0
efe0
0000
ENDCHAR
STARTCHAR U+216B
ENCODING 8555
SWIDTH 1000 0
DWIDTH 12 0
BBX 15 12 -1 -2
BITMAP 
0000
1efc
0ee8
1d50
0f50
0ed0
1ea0
36a0
6fa0
cf40
efe0
0000
ENDCHAR
STARTCHAR U+2170
ENCODING 8560
SWIDTH 1000 0
DWIDTH 12 0
BBX 15 12 -1 -2
BITMAP 
0060
0000
0000
00c0
00c0
00c0
0180
0180
0180
0000
0000
0000
ENDCHAR
STARTCHAR U+2171
ENCODING 8561
SWIDTH 1000 0
DWIDTH 12 0
BBX 15 12 -1 -2
BITMAP 
01b0
0000
0000
0360
0360
0360
06c0
06c0
06c0
0000
0000
0000
ENDCHAR
STARTCHAR U+2172
ENCODING 8562
SWIDTH 1000 0
DWIDTH 12 0
BBX 15 12 -1 -2
BITMAP 
036c
0000
0000
06d8
06d8
06d8
0db0
0db0
0db0
0000
0000
0000
ENDCHAR
STARTCHAR U+2173
ENCODING 8563
SWIDTH 1000 0
DWIDTH 12 0
BBX 15 12 -1 -2
BITMAP 
0180
0000
0000
0350
0350
0360
06a0
06c0
06c0
0000
0000
0000
ENDCHAR
STARTCHAR U+2174
ENCODING 8564
SWIDTH 1000 0
DWIDTH 12 0
BBX 15 12 -1 -2
BITMAP 
0000
0000
0000
0330
0330
0360
0340
0180
0180
0000
0000
0000
ENDCHAR
STARTCHAR U+2175
ENCODING 8565
SWIDTH 1000 0
DWIDTH 12 0
BBX 15 12 -1 -2
BITMAP 
0018
0000
0000
0cd0
0cd0
0db0
0d60
0660
0660
0000
0000
0000
ENDCHAR
STARTCHAR U+2176
ENCODING 8566
SWIDTH 1000 0
DWIDTH 12 0
BBX 15 12 -1 -2
BITMAP 
0034
0000
0000
06a8
06a8
0768
0d50
06d0
06d0
0000
0000
0000
ENDCHAR
STARTCHAR U+2177
ENCODING 8567
SWIDTH 1000 0
DWIDTH 12 0
BBX 15 12 -1 -2
BITMAP 
006a
0000
0000
0d54
0d54
0ed4
1aa8
0da8
0da8
0000
0000
0000
ENDCHAR
STARTCHAR U+2178
ENCODING 8568
SWIDTH 1000 0
DWIDTH 12 0
BBX 15 12 -1 -2
BITMAP 
0600
0000
0000
0d98
0cd0
0ce0
18c0
19a0
1b30
0000
0000
0000
ENDCHAR
STARTCHAR U+2179
ENCODING 8569
SWIDTH 1000 0
DWIDTH 12 0
BBX 15 12 -1 -2
BITMAP 
0000
0000
0000
0330
01a0
01c0
0180
0340
0660
0000
0000
0000
ENDCHAR
STARTCHAR U+217A
ENCODING 8570
SWIDTH 1000 0
DWIDTH 12 0
BBX 15 12 -1 -2
BITMAP 
0000
0000
0038
0070
0000
1ff0
1d60
0ee0
1ee0
37c0
7be0
0000
ENDCHAR
STARTCHAR U+217B
ENCODING 8571
SWIDTH 1000 0
DWIDTH 12 0
BBX 15 12 -1 -2
BITMAP 
0000
0000
0034
0068
0000
3ffc
3ad0
1cd0
3cd0
6ea0
f7f0
0000
ENDCHAR
STARTCHAR U+2190
ENCODING 8592
SWIDTH 1000 0
DWIDTH 12 0
BBX 15 12 -1 -2
BITMAP 
0000
0000
0000
0700
1c00
7ffc
3800
0e00
0000
0000
0000
0000
ENDCHAR
STARTCHAR U+2191
ENCODING 8593
SWIDTH 1000 0
DWIDTH 12 0
BBX 15 12 -1 -2
BITMAP 
00c0
00c0
01e0
03c0
06a0
06a0
0300
0300
0300
0600
0600
0600
ENDCHAR
STARTCHAR U+2192
ENCODING 8594
SWIDTH 1000 0
DWIDTH 12 0
BBX 15 12 -1 -2
BITMAP 
0000
0000
0000
01c0
0070
7ffc
00e0
0380
0000
0000
0000
0000
ENDCHAR
STARTCHAR U+2193
ENCODING 8595
SWIDTH 1000 0
DWIDTH 12 0
BBX 15 12 -1 -2
BITMAP 
00c0
00c0
00c0
0180
0180
0180
0d40
0d40
0f80
0f00
0600
0600
ENDCHAR
STARTCHAR U+2194
ENCODING 8596
SWIDTH 1000 0
DWIDTH 12 0
BBX 15 12 -1 -2
BITMAP 
0000
0000
070c
0c0c
1ffc
0c18
0c30
0000
0000
0000
0000
0000
ENDCHAR
STARTCHAR U+2195
ENCODING 8597
SWIDTH 1000 0
DWIDTH 12 0
BBX 15 12 -1 -2
BITMAP 
0060
00f0
01a8
00c0
00c0
00c0
0180
0180
06e0
0780
0300
0000
ENDCHAR
STARTCHAR U+2196
ENCODING 8598
SWIDTH 1000 0
DWIDTH 12 0
BBX 15 12 -1 -2
BITMAP 
0000
07e0
0700
0d00
0d80
0cc0
00c0
0060
0030
0030
0000
0000
ENDCHAR
STARTCHAR U+2197
ENCODING 8599
SWIDTH 1000 0
DWIDTH 12 0
BBX 15 12 -1 -2
BITMAP 
007e
000e
003a
006c
00cc
0380
0600
0c00
1800
0000
0000
0000
ENDCHAR
STARTCHAR U+2198
ENCODING 8600
SWIDTH 1000 0
DWIDTH 12 0
BBX 15 12 -1 -2
BITMAP 
0000
0600
0300
0300
0180
00cc
00d8
0068
0038
03f0
0000
0000
ENDCHAR
STARTCHAR U+2199
ENCODING 8601
SWIDTH 1000 0
DWIDTH 12 0
BBX 15 12 -1 -2
BITMAP 
0006
000c
0038
0060
0cc0
0d80
1a00
1c00
1f00
0000
0000
0000
ENDCHAR
STARTCHAR U+21C4
ENCODING 8644
SWIDTH 1000 0
DWIDTH 12 0
BBX 15 12 -1 -2
BITMAP 
0000
0018
000c
3ffc
0018
0030
1800
3000
7ff8
6000
3000
0000
ENDCHAR
STARTCHAR U+21D2
ENCODING 8658
SWIDTH 1000 0
DWIDTH 12 0
BBX 15 12 -1 -2
BITMAP 
0000
0000
0030
0030
7ff8
001c
fff0
0060
00c0
0000
0000
0000
ENDCHAR
STARTCHAR U+21D4
ENCODING 8660
SWIDTH 1000 0
DWIDTH 12 0
BBX 15 12 -1 -2
BITMAP 
0000
0000
0e30
1830
3ff8
601c
3ff0
3060
18c0
0000
0000
0000
ENDCHAR
STARTCHAR U+21E6
ENCODING 8678
SWIDTH 1000 0
DWIDTH 12 0
BBX 15 12 -1 -2
BITMAP 
0000
0000
0300
0e00
1bfc
300c
3018
37f8
1c00
1800
0000
0000
ENDCHAR
STARTCHAR U+21E7
ENCODING 8679
SWIDTH 1000 0
DWIDTH 12 0
BBX 15 12 -1 -2
BITMAP 
0000
01c0
0760
0c60
1ef0
06c0
0d80
0d80
0d80
1b00
1b00
1f00
ENDCHAR
STARTCHAR U+21E8
ENCODING 8680
SWIDTH 1000 0
DWIDTH 12 0
BBX 15 12 -1 -2
BITMAP 
0000
0000
0030
0070
3fe8
3018
6018
7fd0
00e0
0180
0000
0000
ENDCHAR
STARTCHAR U+21E9
ENCODING 8681
SWIDTH 1000 0
DWIDTH 12 0
BBX 15 12 -1 -2
BITMAP 
0000
03e0
0360
06c0
06c0
06c0
0d80
0d80
3de0
3180
1b00
0e00
ENDCHAR
STARTCHAR U+2200
ENCODING 8704
SWIDTH 1000 0
DWIDTH 12 0
BBX 15 12 -1 -2
BITMAP 
0000
1818
1830
1830
1fe0
1980
1980
0d00
0e00
0600
0c00
0000
ENDCHAR
STARTCHAR U+2202
ENCODING 8706
SWIDTH 1000 0
DWIDTH 12 0
BBX 15 12 -1 -2
BITMAP 
0000
01c0
0360
0060
03a0
06e0
0dc0
3980
3b80
1a00
0c00
0000
ENDCHAR
STARTCHAR U+2203
ENCODING 8707
SWIDTH 1000 0
DWIDTH 12 0
BBX 15 12 -1 -2
BITMAP 
0000
0ff8
0018
0030
0030
1ff0
0060
0060
0060
7fc0
0000
0000
ENDCHAR
STARTCHAR U+2205
ENCODING 8709
SWIDTH 1000 0
DWIDTH 12 0
BBX 15 12 -1 -2
BITMAP 
0000
0000
001c
03d0
0660
0de0
1b60
1a60
1cc0
3780
6000
0000
ENDCHAR
STARTCHAR U+2207
ENCODING 8711
SWIDTH 1000 0
DWIDTH 12 0
BBX 15 12 -1 -2
BITMAP 
0000
3ffc
1ff8
3830
1860
18c0
18c0
1d80
0d00
1e00
0c00
0c00
ENDCHAR
STARTCHAR U+2208
ENCODING 8712
SWIDTH 1000 0
DWIDTH 12 0
BBX 15 12 -1 -2
BITMAP 
0000
0000
07f8
0c00
1800
1ff0
3000
1800
0fe0
0000
0000
0000
ENDCHAR
STARTCHAR U+2209
ENCODING 8713
SWIDTH 1000 0
DWIDTH 12 0
BBX 15 12 -1 -2
BITMAP 
0000
0000
00c0
07f0
0d80
0d80
1fe0
1b00
1b00
0fc0
0600
0000
ENDCHAR
STARTCHAR U+220B
ENCODING 8715
SWIDTH 1000 0
DWIDTH 12 0
BBX 15 12 -1 -2
BITMAP 
0000
0000
0fc0
0060
0030
1ff0
0060
00c0
3f80
0000
0000
0000
ENDCHAR
STARTCHAR U+220F
ENCODING 8719
SWIDTH 1000 0
DWIDTH 12 0
BBX 15 12 -1 -2
BITMAP 
0ffe
0318
0318
0630
0630
0630
0c60
0c60
0c60
18c0
0000
0000
ENDCHAR
STARTCHAR U+2211
ENCODING 8721
SWIDTH 1000 0
DWIDTH 12 0
BBX 15 12 -1 -2
BITMAP 
07fc
0300
0180
0180
00c0
0380
0600
0c00
1ff0
0000
0000
0000
ENDCHAR
STARTCHAR U+2212
ENCODING 8722
SWIDTH 1000 0
DWIDTH 12 0
BBX 15 12 -1 -2
BITMAP 
0000
0000
0000
0000
0000
1ff0
0000
0000
0000
0000
0000
0000
ENDCHAR
STARTCHAR U+2213
ENCODING 8723
SWIDTH 1000 0
DWIDTH 12 0
BBX 15 12 -1 -2
BITMAP 
0000
0000
0ffc
0000
0180
0180
0300
3ff0
0300
0600
0600
0000
ENDCHAR
STARTCHAR U+221A
ENCODING 8730
SWIDTH 1000 0
DWIDTH 12 0
BBX 15 12 -1 -2
BITMAP 
00fe
00c0
0180
0180
0300
0600
0600
6c00
f800
6800
3000
0000
ENDCHAR
STARTCHAR U+221D
ENCODING 8733
SWIDTH 1000 0
DWIDTH 12 0
BBX 15 12 -1 -2
BITMAP 
0000
0000
0000
0e70
1b58
3380
3300
36b0
1ce0
0000
0000
0000
ENDCHAR
STARTCHAR U+221E
ENCODING 8734
SWIDTH 1000 0
DWIDTH 12 0
BBX 15 12 -1 -2
BITMAP 
0000
0000
0000
1ce0
36b0
6730
6630
6d60
39c0
0000
0000
0000
ENDCHAR
STARTCHAR U+221F
ENCODING 8735
SWIDTH 1000 0
DWIDTH 12 0
BBX 15 12 -1 -2
BITMAP 
0000
0000
0c00
1800
1800
1800
3000
3000
3000
6000
7fe0
0000
ENDCHAR
STARTCHAR U+2220
ENCODING 8736
SWIDTH 1000 0
DWIDTH 12 0
BBX 15 12 -1 -2
BITMAP 
0000
0018
0070
00c0
0180
0700
0c00
1800
7000
dfe0
0000
0000
ENDCHAR
STARTCHAR U+2223
ENCODING 8739
SWIDTH 1000 0
DWIDTH 12 0
BBX 15 12 -1 -2
BITMAP 
0000
01c0
01c0
0380
0380
0380
0700
0700
0700
0e00
0e00
0e00
ENDCHAR
STARTCHAR U+2225
ENCODING 8741
SWIDTH 1000 0
DWIDTH 12 0
BBX 15 12 -1 -2
BITMAP 
01b0
01b0
01b0
0360
0360
0360
06c0
06c0
06c0
0000
0000
0000
ENDCHAR
STARTCHAR U+2226
ENCODING 8742
SWIDTH 1000 0
DWIDTH 12 0
BBX 15 12 -1 -2
BITMAP 
0000
0060
00cc
0d98
0730
0360
07c0
0d80
19c0
3340
6600
0c00
ENDCHAR
STARTCHAR U+2227
ENCODING 8743
SWIDTH 1000 0
DWIDTH 12 0
BBX 15 12 -1 -2
BITMAP 
0000
0180
0180
0380
0680
0d80
1980
30c0
60c0
60c0
c0c0
0000
ENDCHAR
STARTCHAR U+2228
ENCODING 8744
SWIDTH 1000 0
DWIDTH 12 0
BBX 15 12 -1 -2
BITMAP 
0000
1818
1830
1830
1860
18c0
1980
0d00
0e00
0600
0c00
0000
ENDCHAR
STARTCHAR U+2229
ENCODING 8745
SWIDTH 1000 0
DWIDTH 12 0
BBX 15 12 -1 -2
BITMAP 
0000
07c0
0c60
1860
3060
3060
60c0
60c0
60c0
c180
c180
0000
ENDCHAR
STARTCHAR U+222A
ENCODING 8746
SWIDTH 1000 0
DWIDTH 12 0
BBX 15 12 -1 -2
BITMAP 
0000
1830
1830
3060
3060
3060
60c0
60c0
6180
6300
3e00
0000
ENDCHAR
STARTCHAR U+222B
ENCODING 8747
SWIDTH 1000 0
DWIDTH 12 0
BBX 15 12 -1 -2
BITMAP 
0038
0060
00c0
0180
01c0
01c0
0180
01c0
01c0
0180
0300
0e00
ENDCHAR
STARTCHAR U+222C
ENCODING 8748
SWIDTH 1000 0
DWIDTH 12 0
BBX 15 12 -1 -2
BITMAP 
01dc
0330
0660
0cc0
0ee0
0ee0
0cc0
0ee0
0ee0
0cc0
1980
7700
ENDCHAR
STARTCHAR U+222E
ENCODING 8750
SWIDTH 1000 0
DWIDTH 12 0
BBX 15 12 -1 -2
BITMAP 
0030
0068
0060
00c0
01e0
0370
03c0
0180
0180
0d00
0600
0000
ENDCHAR
STARTCHAR U+2234
ENCODING 8756
SWIDTH 1000 0
DWIDTH 12 0
BBX 15 12 -1 -2
BITMAP 
0000
0000
01c0
0380
0000
0000
0000
0000
38e0
71c0
0000
0000
ENDCHAR
STARTCHAR U+2235
ENCODING 8757
SWIDTH 1000 0
DWIDTH 12 0
BBX 15 12 -1 -2
BITMAP 
0000
0000
1c70
38e0
0000
0000
0000
0000
0e00
1c00
0000
0000
ENDCHAR
STARTCHAR U+2236
ENCODING 8758
SWIDTH 1000 0
DWIDTH 12 0
BBX 15 12 -1 -2
BITMAP 
0000
0000
0000
0700
0300
0000
0000
0e00
0000
0000
0000
0000
ENDCHAR
STARTCHAR U+2237
ENCODING 8759
SWIDTH 1000 0
DWIDTH 12 0
BBX 15 12 -1 -2
BITMAP 
0000
0000
0e30
1c60
0000
0000
0000
00c0
39c0
0000
0000
0000
ENDCHAR
STARTCHAR U+223C
ENCODING 8764
SWIDTH 1000 0
DWIDTH 12 0
BBX 15 12 -1 -2
BITMAP 
0000
0000
0000
0000
0798
0cf0
0000
0000
0000
0000
0000
0000
ENDCHAR
STARTCHAR U+223D
ENCODING 8765
SWIDTH 1000 0
DWIDTH 12 0
BBX 15 12 -1 -2
BITMAP 
0000
0000
0000
0ee0
19b0
3330
3330
3660
1dc0
0000
0000
0000
ENDCHAR
STARTCHAR U+2243
ENCODING 8771
SWIDTH 1000 0
DWIDTH 12 0
BBX 15 12 -1 -2
BITMAP 
0000
0000
0000
0e0c
1bd8
3070
0000
0000
3ff0
0000
0000
0000
ENDCHAR
STARTCHAR U+2245
ENCODING 8773
SWIDTH 1000 0
DWIDTH 12 0
BBX 15 12 -1 -2
BITMAP 
0000
0000
0000
0e0c
1bd8
3070
0000
3ff0
0000
7fe0
0000
0000
ENDCHAR
STARTCHAR U+2248
ENCODING 8776
SWIDTH 1000 0
DWIDTH 12 0
BBX 15 12 -1 -2
BITMAP 
0000
0000
0000
0e0c
1bd8
3070
1c18
37b0
60e0
0000
0000
0000
ENDCHAR
STARTCHAR U+224C
ENCODING 8780
SWIDTH 1000 0
DWIDTH 12 0
BBX 15 12 -1 -2
BITMAP 
0000
0070
00d8
3198
3318
3630
38e0
7fe0
0000
ffc0
0000
0000
ENDCHAR
STARTCHAR U+2252
ENCODING 8786
SWIDTH 1000 0
DWIDTH 12 0
BBX 15 12 -1 -2
BITMAP 
0000
0700
0700
0000
3ff8
0000
0000
7ff0
0000
0380
0380
0000
ENDCHAR
STARTCHAR U+2260
ENCODING 8800
SWIDTH 1000 0
DWIDTH 12 0
BBX 15 12 -1 -2
BITMAP 
0000
0060
00c0
0180
3ff0
0300
0600
7fe0
0c00
1800
3000
0000
ENDCHAR
STARTCHAR U+2261
ENCODING 8801
SWIDTH 1000 0
DWIDTH 12 0
BBX 15 12 -1 -2
BITMAP 
0000
0000
0000
3ff8
0000
0000
7ff0
0000
0000
ffe0
0000
0000
ENDCHAR
STARTCHAR U+2262
ENCODING 8802
SWIDTH 1000 0
DWIDTH 12 0
BBX 15 12 -1 -2
BITMAP 
0000
0030
0030
1ff8
00c0
0180
3ff0
0300
0600
7fe0
1800
1800
ENDCHAR
STARTCHAR U+2264
ENCODING 8804
SWIDTH 1000 0
DWIDTH 12 0
BBX 15 12 -1 -2
BITMAP 
0000
0038
01e0
0700
01c0
0070
0000
0ff0
0000
0000
0000
0000
ENDCHAR
STARTCHAR U+2265
ENCODING 8805
SWIDTH 1000 0
DWIDTH 12 0
BBX 15 12 -1 -2
BITMAP 
0000
0380
00c0
0070
01c0
0700
0000
1fe0
0000
0000
0000
0000
ENDCHAR
STARTCHAR U+2266
ENCODING 8806
SWIDTH 1000 0
DWIDTH 12 0
BBX 15 12 -1 -2
BITMAP 
0000
001c
01f0
0f00
3800
0f00
01c0
0070
7ff0
0000
ffe0
0000
ENDCHAR
STARTCHAR U+2267
ENCODING 8807
SWIDTH 1000 0
DWIDTH 12 0
BBX 15 12 -1 -2
BITMAP 
0000
1c00
0780
00e0
0038
03e0
1e00
7000
7ff0
0000
ffe0
0000
ENDCHAR
STARTCHAR U+226A
ENCODING 8810
SWIDTH 1000 0
DWIDTH 12 0
BBX 15 12 -1 -2
BITMAP 
0000
0000
0398
0660
0cc0
3980
6600
3300
1980
1980
0cc0
0000
ENDCHAR
STARTCHAR U+226B
ENCODING 8811
SWIDTH 1000 0
DWIDTH 12 0
BBX 15 12 -1 -2
BITMAP 
0000
0000
1980
1980
0cc0
0660
0660
0cc0
3980
6600
cc00
0000
ENDCHAR
STARTCHAR U+226E
ENCODING 8814
SWIDTH 1000 0
DWIDTH 12 0
BBX 15 12 -1 -2
BITMAP 
0000
0370
03c0
0600
3e00
6600
6c00
1c00
0e00
1b00
0000
0000
ENDCHAR
STARTCHAR U+226F
ENCODING 8815
SWIDTH 1000 0
DWIDTH 12 0
BBX 15 12 -1 -2
BITMAP 
0000
0e60
0360
01c0
00f0
00d8
01a0
03c0
0680
3300
6000
0000
ENDCHAR
STARTCHAR U+2276
ENCODING 8822
SWIDTH 1000 0
DWIDTH 12 0
BBX 15 12 -1 -2
BITMAP 
0000
003c
03e0
1e00
03c0
0078
3c00
0780
01f0
0f00
7800
0000
ENDCHAR
STARTCHAR U+2277
ENCODING 8823
SWIDTH 1000 0
DWIDTH 12 0
BBX 15 12 -1 -2
BITMAP 
0000
0f00
01c0
0078
03c0
1e00
00f0
0780
3c00
0700
01e0
0000
ENDCHAR
STARTCHAR U+2282
ENCODING 8834
SWIDTH 1000 0
DWIDTH 12 0
BBX 15 12 -1 -2
BITMAP 
0000
0000
0ffc
1800
3000
3000
6000
6000
3000
1fe0
0000
0000
ENDCHAR
STARTCHAR U+2283
ENCODING 8835
SWIDTH 1000 0
DWIDTH 12 0
BBX 15 12 -1 -2
BITMAP 
0000
0000
1fe0
0030
0018
0018
0030
0030
00e0
ff80
0000
0000
ENDCHAR
STARTCHAR U+2284
ENCODING 8836
SWIDTH 1000 0
DWIDTH 12 0
BBX 15 12 -1 -2
BITMAP 
0000
0000
0018
07f8
0c60
18c0
3180
3300
1a00
1fe0
1800
0000
ENDCHAR
STARTCHAR U+2285
ENCODING 8837
SWIDTH 1000 0
DWIDTH 12 0
BBX 15 12 -1 -2
BITMAP 
0000
0000
0030
1fe0
00d0
01b0
0330
0630
0ce0
7f80
3000
0000
ENDCHAR
STARTCHAR U+2286
ENCODING 8838
SWIDTH 1000 0
DWIDTH 12 0
BBX 15 12 -1 -2
BITMAP 
0000
0000
0ffc
1800
3000
3000
3000
1ff0
0000
0000
7fe0
0000
ENDCHAR
STARTCHAR U+2287
ENCODING 8839
SWIDTH 1000 0
DWIDTH 12 0
BBX 15 12 -1 -2
BITMAP 
0000
0000
1fe0
0030
0018
0030
0060
7fc0
0000
0000
ffc0
0000
ENDCHAR
STARTCHAR U+228A
ENCODING 8842
SWIDTH 1000 0
DWIDTH 12 0
BBX 15 12 -1 -2
BITMAP 
0000
0000
07fc
0c00
1800
1800
1800
0ff0
0180
7fe0
0600
0600
ENDCHAR
STARTCHAR U+228B
ENCODING 8843
SWIDTH 1000 0
DWIDTH 12 0
BBX 15 12 -1 -2
BITMAP 
0000
0000
0fe0
0030
0018
0030
0060
3fc0
0180
7fe0
0600
0600
ENDCHAR
STARTCHAR U+2295
ENCODING 8853
SWIDTH 1000 0
DWIDTH 12 0
BBX 15 12 -1 -2
BITMAP 
0000
01e0
0750
0d98
1998
318c
7ff8
6318
6330
6660
3ac0
0f00
ENDCHAR
STARTCHAR U+2296
ENCODING 8854
SWIDTH 1000 0
DWIDTH 12 0
BBX 15 12 -1 -2
BITMAP 
0000
01e0
0730
0c18
1818
300c
7ff8
6018
6030
6060
39c0
0f00
ENDCHAR
STARTCHAR U+2297
ENCODING 8855
SWIDTH 1000 0
DWIDTH 12 0
BBX 15 12 -1 -2
BITMAP 
0000
01e0
0738
0c38
1a68
33d8
6318
6698
6cd0
70e0
39c0
0f00
ENDCHAR
STARTCHAR U+2299
ENCODING 8857
SWIDTH 1000 0
DWIDTH 12 0
BBX 15 12 -1 -2
BITMAP 
00f8
018c
0306
0600
0ce0
0ce0
0c00
0c18
0670
03c0
0000
0000
ENDCHAR
STARTCHAR U+22A5
ENCODING 8869
SWIDTH 1000 0
DWIDTH 12 0
BBX 15 12 -1 -2
BITMAP 
0000
0180
0180
0300
0300
0300
0600
0600
0600
ffe0
0000
0000
ENDCHAR
STARTCHAR U+22BF
ENCODING 8895
SWIDTH 1000 0
DWIDTH 12 0
BBX 15 12 -1 -2
BITMAP 
0000
0000
000c
0038
0068
01d8
0330
0630
1c30
3060
7fe0
0000
ENDCHAR
STARTCHAR U+22DA
ENCODING 8922
SWIDTH 1000 0
DWIDTH 12 0
BBX 15 12 -1 -2
BITMAP 
0000
003c
03e0
1e00
03c0
0078
3ff0
3c00
0700
01e0
0f00
7800
ENDCHAR
STARTCHAR U+22DB
ENCODING 8923
SWIDTH 1000 0
DWIDTH 12 0
BBX 15 12 -1 -2
BITMAP 
0000
0f00
01c0
0078
03c0
1e00
3ff0
00f0
0f80
7800
0f00
01e0
ENDCHAR
STARTCHAR U+2305
ENCODING 8965
SWIDTH 1000 0
DWIDTH 12 0
BBX 15 12 -1 -2
BITMAP 
0000
0000
0000
0000
1ff8
0380
0680
0cc0
1860
0000
0000
0000
ENDCHAR
STARTCHAR U+2306
ENCODING 8966
SWIDTH 1000 0
DWIDTH 12 0
BBX 15 12 -1 -2
BITMAP 
0000
0000
0000
1ff8
0000
1ff8
0300
0680
1cc0
30c0
0000
0000
ENDCHAR
STARTCHAR U+2312
ENCODING 8978
SWIDTH 1000 0
DWIDTH 12 0
BBX 15 12 -1 -2
BITMAP 
03e0
0e38
180c
0000
0000
0000
0000
0000
0000
0000
0000
0000
ENDCHAR
STARTCHAR U+2318
ENCODING 8984
SWIDTH 1000 0
DWIDTH 12 0
BBX 15 12 -1 -2
BITMAP 
0000
0c38
1a68
1ad8
0ff8
06c0
0d80
3fc0
6da0
69a0
31c0
0000
ENDCHAR
STARTCHAR U+2423
ENCODING 9251
SWIDTH 1000 0
DWIDTH 12 0
BBX 15 12 -1 -2
BITMAP 
0000
0000
0000
0000
0000
0000
0000
0000
0000
60c0
60c0
7fc0
ENDCHAR
STARTCHAR U+2460
ENCODING 9312
SWIDTH 1000 0
DWIDTH 12 0
BBX 15 12 -1 -2
BITMAP 
01f8
030c
0666
0dc0
18c0
18c0
3180
3180
19b8
1860
0fc0
0000
ENDCHAR
STARTCHAR U+2461
ENCODING 9313
SWIDTH 1000 0
DWIDTH 12 0
BBX 15 12 -1 -2
BITMAP 
01f8
030c
06c6
0d60
1860
18c0
3380
3600
1fd8
1860
0fc0
0000
ENDCHAR
STARTCHAR U+2462
ENCODING 9314
SWIDTH 1000 0
DWIDTH 12 0
BBX 15 12 -1 -2
BITMAP 
01f8
030c
06c6
0d60
1860
1980
30c0
36c0
1bb8
1860
0fc0
0000
ENDCHAR
STARTCHAR U+2463
ENCODING 9315
SWIDTH 1000 0
DWIDTH 12 0
BBX 15 12 -1 -2
BITMAP 
01f8
030c
0636
0ce0
19a0
1b60
37e0
30c0
18d8
1860
0fc0
0000
ENDCHAR
STARTCHAR U+2464
ENCODING 9316
SWIDTH 1000 0
DWIDTH 12 0
BBX 15 12 -1 -2
BITMAP 
01f8
030c
07f6
0d00
1b80
1b40
30c0
36c0
1bb8
1860
0fc0
0000
ENDCHAR
STARTCHAR U+2465
ENCODING 9317
SWIDTH 1000 0
DWIDTH 12 0
BBX 15 12 -1 -2
BITMAP 
01f8
030c
06c6
0d60
1b00
1b80
36c0
36c0
1bb8
1860
0fc0
0000
ENDCHAR
STARTCHAR U+2466
ENCODING 9318
SWIDTH 1000 0
DWIDTH 12 0
BBX 15 12 -1 -2
BITMAP 
01f8
030c
06f6
0c60
18c0
1980
3180
3300
1b38
1860
0fc0
0000
ENDCHAR
STARTCHAR U+2467
ENCODING 9319
SWIDTH 1000 0
DWIDTH 12 0
BBX 15 12 -1 -2
BITMAP 
01f8
030c
06c6
0d60
1b60
19c0
3340
36c0
1bb8
1860
0fc0
0000
ENDCHAR
STARTCHAR U+2468
ENCODING 9320
SWIDTH 1000 0
DWIDTH 12 0
BBX 15 12 -1 -2
BITMAP 
01f8
030c
06c6
0d60
1b60
19e0
30c0
36c0
1bb8
1860
0fc0
0000
ENDCHAR
STARTCHAR U+2469
ENCODING 9321
SWIDTH 1000 0
DWIDTH 12 0
BBX 15 12 -1 -2
BITMAP 
01f8
030c
06b6
0f58
1b58
1b58
36b0
36b0
1cd8
1860
0fc0
0000
ENDCHAR
STARTCHAR U+246A
ENCODING 9322
SWIDTH 1000 0
DWIDTH 12 0
BBX 15 12 -1 -2
BITMAP 
01f8
030c
06da
0db0
19b0
19b0
3360
3360
1b78
1860
0fc0
0000
ENDCHAR
STARTCHAR U+246B
ENCODING 9323
SWIDTH 1000 0
DWIDTH 12 0
BBX 15 12 -1 -2
BITMAP 
01f8
030c
06b6
0f58
1b18
1b30
36e0
3680
1df8
1860
0fc0
0000
ENDCHAR
STARTCHAR U+246C
ENCODING 9324
SWIDTH 1000 0
DWIDTH 12 0
BBX 15 12 -1 -2
BITMAP 
01f8
030c
06b6
0f58
1b18
1b60
3630
36b0
1cd8
1860
0fc0
0000
ENDCHAR
STARTCHAR U+246D
ENCODING 9325
SWIDTH 1000 0
DWIDTH 12 0
BBX 15 12 -1 -2
BITMAP 
01f8
030c
06ba
0f70
1b50
1b50
36f0
3660
1c78
1860
0fc0
0000
ENDCHAR
STARTCHAR U+246E
ENCODING 9326
SWIDTH 1000 0
DWIDTH 12 0
BBX 15 12 -1 -2
BITMAP 
01f8
030c
06be
0f40
1b60
1b50
3630
36b0
1cd8
1860
0fc0
0000
ENDCHAR
STARTCHAR U+246F
ENCODING 9327
SWIDTH 1000 0
DWIDTH 12 0
BBX 15 12 -1 -2
BITMAP 
0000
07f8
0c0c
1aec
36b4
368c
6dd8
6d68
6f58
7db0
6060
3fc0
ENDCHAR
STARTCHAR U+2470
ENCODING 9328
SWIDTH 1000 0
DWIDTH 12 0
BBX 15 12 -1 -2
BITMAP 
0000
07f8
0c1c
1af4
36b4
366c
6cd8
6d98
6d98
7d30
6060
3fc0
ENDCHAR
STARTCHAR U+2471
ENCODING 9329
SWIDTH 1000 0
DWIDTH 12 0
BBX 15 12 -1 -2
BITMAP 
0000
07f8
0c0c
1aec
36b4
36ac
6dd8
6d68
6f58
7db0
6060
3fc0
ENDCHAR
STARTCHAR U+2472
ENCODING 9330
SWIDTH 1000 0
DWIDTH 12 0
BBX 15 12 -1 -2
BITMAP 
0000
07f8
0c0c
1aec
36b4
36b4
6de8
6c68
6d58
7fb0
6060
3fc0
ENDCHAR
STARTCHAR U+2473
ENCODING 9331
SWIDTH 1000 0
DWIDTH 12 0
BBX 15 12 -1 -2
BITMAP 
0000
07f8
0c1c
1b74
35d4
33d4
66a8
6da8
69a8
7fd0
6060
3fc0
ENDCHAR
STARTCHAR U+2474
ENCODING 9332
SWIDTH 1000 0
DWIDTH 12 0
BBX 15 12 -1 -2
BITMAP 
030c
0606
0c66
0dc0
18c0
18c0
3180
3180
3198
3030
1860
0000
ENDCHAR
STARTCHAR U+2475
ENCODING 9333
SWIDTH 1000 0
DWIDTH 12 0
BBX 15 12 -1 -2
BITMAP 
030c
0606
0dc6
0d60
1860
18c0
3380
3600
37d8
3030
1860
0000
ENDCHAR
STARTCHAR U+2476
ENCODING 9334
SWIDTH 1000 0
DWIDTH 12 0
BBX 15 12 -1 -2
BITMAP 
030c
0606
0dc6
0d60
1860
1980
30c0
36c0
3398
3030
1860
0000
ENDCHAR
STARTCHAR U+2477
ENCODING 9335
SWIDTH 1000 0
DWIDTH 12 0
BBX 15 12 -1 -2
BITMAP 
030c
0606
0c36
0ce0
19a0
1b60
37e0
30c0
30d8
3030
1860
0000
ENDCHAR
STARTCHAR U+2478
ENCODING 9336
SWIDTH 1000 0
DWIDTH 12 0
BBX 15 12 -1 -2
BITMAP 
030c
0606
0df6
0d00
1b80
1b40
30c0
36c0
3398
3030
1860
0000
ENDCHAR
STARTCHAR U+2479
ENCODING 9337
SWIDTH 1000 0
DWIDTH 12 0
BBX 15 12 -1 -2
BITMAP 
030c
0606
0ce6
0da0
1b00
1b80
36c0
36c0
3398
3030
1860
0000
ENDCHAR
STARTCHAR U+247A
ENCODING 9338
SWIDTH 1000 0
DWIDTH 12 0
BBX 15 12 -1 -2
BITMAP 
030c
0606
0df6
0c60
18c0
1980
3180
3300
3318
3030
1860
0000
ENDCHAR
STARTCHAR U+247B
ENCODING 9339
SWIDTH 1000 0
DWIDTH 12 0
BBX 15 12 -1 -2
BITMAP 
030c
0606
0ce6
0da0
1b60
19c0
3340
36c0
3398
3030
1860
0000
ENDCHAR
STARTCHAR U+247C
ENCODING 9340
SWIDTH 1000 0
DWIDTH 12 0
BBX 15 12 -1 -2
BITMAP 
030c
0606
0ce6
0da0
1b60
19e0
30c0
36c0
3398
3030
1860
0000
ENDCHAR
STARTCHAR U+247D
ENCODING 9341
SWIDTH 1000 0
DWIDTH 12 0
BBX 15 12 -1 -2
BITMAP 
030c
0606
06bc
0f4c
1b58
1b58
36b0
36b0
36e8
3030
1860
0000
ENDCHAR
STARTCHAR U+247E
ENCODING 9342
SWIDTH 1000 0
DWIDTH 12 0
BBX 15 12 -1 -2
BITMAP 
030c
0606
0cda
0db0
19b0
19b0
3360
3360
3368
3030
1860
0000
ENDCHAR
STARTCHAR U+247F
ENCODING 9343
SWIDTH 1000 0
DWIDTH 12 0
BBX 15 12 -1 -2
BITMAP 
030c
0606
06bc
0f4c
1b58
1b70
36c0
3680
36f8
3030
1860
0000
ENDCHAR
STARTCHAR U+2480
ENCODING 9344
SWIDTH 1000 0
DWIDTH 12 0
BBX 15 12 -1 -2
BITMAP 
030c
0606
06bc
0f4c
1b18
1b60
3630
36b0
36e8
3030
1860
0000
ENDCHAR
STARTCHAR U+2481
ENCODING 9345
SWIDTH 1000 0
DWIDTH 12 0
BBX 15 12 -1 -2
BITMAP 
030c
0606
06ba
0f70
1b50
1b50
36f0
3660
3668
3030
1860
0000
ENDCHAR
STARTCHAR U+2482
ENCODING 9346
SWIDTH 1000 0
DWIDTH 12 0
BBX 15 12 -1 -2
BITMAP 
030c
0606
06be
0f40
1b60
1b30
3630
36b0
36e8
3030
1860
0000
ENDCHAR
STARTCHAR U+2483
ENCODING 9347
SWIDTH 1000 0
DWIDTH 12 0
BBX 15 12 -1 -2
BITMAP 
0000
30cc
346c
6a68
6a18
6b98
d6d0
d4d0
d4d0
a1a0
8760
0000
ENDCHAR
STARTCHAR U+2484
ENCODING 9348
SWIDTH 1000 0
DWIDTH 12 0
BBX 15 12 -1 -2
BITMAP 
0000
31f4
356c
6868
68d8
68d8
d030
d330
d330
a660
8060
0000
ENDCHAR
STARTCHAR U+2485
ENCODING 9349
SWIDTH 1000 0
DWIDTH 12 0
BBX 15 12 -1 -2
BITMAP 
0000
30cc
346c
6a68
6a68
6b98
d6d0
d4d0
d4d0
a1a0
8760
0000
ENDCHAR
STARTCHAR U+2486
ENCODING 9350
SWIDTH 1000 0
DWIDTH 12 0
BBX 15 12 -1 -2
BITMAP 
0000
30cc
346c
6a68
6a68
6a68
d350
d0d0
d0d0
a1a0
8760
0000
ENDCHAR
STARTCHAR U+2487
ENCODING 9351
SWIDTH 1000 0
DWIDTH 12 0
BBX 15 12 -1 -2
BITMAP 
0000
3674
36dc
66b8
66b8
6db8
db70
d370
e370
db60
f9a0
0000
ENDCHAR
STARTCHAR U+2488
ENCODING 9352
SWIDTH 1000 0
DWIDTH 12 0
BBX 15 12 -1 -2
BITMAP 
0000
0300
0700
0600
0600
0600
0c00
0c00
0c00
1800
1800
0000
ENDCHAR
STARTCHAR U+2489
ENCODING 9353
SWIDTH 1000 0
DWIDTH 12 0
BBX 15 12 -1 -2
BITMAP 
0000
0700
0d80
0180
0180
0300
0e00
0000
3000
6600
7e00
0000
ENDCHAR
STARTCHAR U+248A
ENCODING 9354
SWIDTH 1000 0
DWIDTH 12 0
BBX 15 12 -1 -2
BITMAP 
0000
0700
0d80
0180
0000
0600
0600
0300
3300
3600
1c00
0000
ENDCHAR
STARTCHAR U+248B
ENCODING 9355
SWIDTH 1000 0
DWIDTH 12 0
BBX 15 12 -1 -2
BITMAP 
0000
0380
0380
0300
0d00
1b00
3600
3f00
0600
0c00
0c00
0c00
ENDCHAR
STARTCHAR U+248C
ENCODING 9356
SWIDTH 1000 0
DWIDTH 12 0
BBX 15 12 -1 -2
BITMAP 
0000
0f80
0c00
1800
1800
1e00
3b00
0300
0300
6600
3c00
0000
ENDCHAR
STARTCHAR U+248D
ENCODING 9357
SWIDTH 1000 0
DWIDTH 12 0
BBX 15 12 -1 -2
BITMAP 
0000
0700
0d80
1980
1800
1e00
3b00
3300
3300
3600
1c00
0000
ENDCHAR
STARTCHAR U+248E
ENCODING 9358
SWIDTH 1000 0
DWIDTH 12 0
BBX 15 12 -1 -2
BITMAP 
0000
0fe0
0cc0
0180
0300
0600
0600
0c00
0c00
1800
1800
0000
ENDCHAR
STARTCHAR U+248F
ENCODING 9359
SWIDTH 1000 0
DWIDTH 12 0
BBX 15 12 -1 -2
BITMAP 
0000
0700
0d80
1980
0000
0e00
1a00
3300
3300
3600
1c00
0000
ENDCHAR
STARTCHAR U+2490
ENCODING 9360
SWIDTH 1000 0
DWIDTH 12 0
BBX 15 12 -1 -2
BITMAP 
0000
0700
0d80
1980
1980
1b80
0d00
0300
3300
3600
1c00
0000
ENDCHAR
STARTCHAR U+2491
ENCODING 9361
SWIDTH 1000 0
DWIDTH 12 0
BBX 15 12 -1 -2
BITMAP 
0000
1be0
3b60
36c0
36c0
36c0
6d80
6d80
6d80
db00
df00
0000
ENDCHAR
STARTCHAR U+2492
ENCODING 9362
SWIDTH 1000 0
DWIDTH 12 0
BBX 15 12 -1 -2
BITMAP 
0000
18c0
38c0
3180
3180
3180
6300
6300
6300
c600
c600
0000
ENDCHAR
STARTCHAR U+2493
ENCODING 9363
SWIDTH 1000 0
DWIDTH 12 0
BBX 15 12 -1 -2
BITMAP 
0000
1be0
3b60
30c0
30c0
3180
6700
6c00
6c00
db00
df00
0000
ENDCHAR
STARTCHAR U+2494
ENCODING 9364
SWIDTH 1000 0
DWIDTH 12 0
BBX 15 12 -1 -2
BITMAP 
0000
1be0
3b60
30c0
30c0
3300
6180
6180
6180
db00
df00
0000
ENDCHAR
STARTCHAR U+2495
ENCODING 9365
SWIDTH 1000 0
DWIDTH 12 0
BBX 15 12 -1 -2
BITMAP 
0000
18e0
39a0
3340
36c0
36c0
6d80
6fc0
6180
c300
c300
0000
ENDCHAR
STARTCHAR U+2496
ENCODING 9366
SWIDTH 1000 0
DWIDTH 12 0
BBX 15 12 -1 -2
BITMAP 
0000
1be0
3b00
3600
3600
3700
6d80
6180
6180
db00
df00
0000
ENDCHAR
STARTCHAR U+2497
ENCODING 9367
SWIDTH 1000 0
DWIDTH 12 0
BBX 15 12 -1 -2
BITMAP 
0000
1be0
3b60
3600
3600
3700
6d80
6d80
6d80
db00
df00
0000
ENDCHAR
STARTCHAR U+2498
ENCODING 9368
SWIDTH 1000 0
DWIDTH 12 0
BBX 15 12 -1 -2
BITMAP 
0000
1bf0
3b30
3060
30c0
3180
6180
6300
6300
c600
c600
0000
ENDCHAR
STARTCHAR U+2499
ENCODING 9369
SWIDTH 1000 0
DWIDTH 12 0
BBX 15 12 -1 -2
BITMAP 
0000
1be0
3b60
36c0
36c0
3380
6680
6d80
6d80
db00
df00
0000
ENDCHAR
STARTCHAR U+249A
ENCODING 9370
SWIDTH 1000 0
DWIDTH 12 0
BBX 15 12 -1 -2
BITMAP 
0000
1be0
3b60
36c0
36c0
36c0
6380
6180
6180
db00
df00
0000
ENDCHAR
STARTCHAR U+249B
ENCODING 9371
SWIDTH 1000 0
DWIDTH 12 0
BBX 15 12 -1 -2
BITMAP 
0000
1ef0
1ab0
0760
0760
1d60
36c0
66c0
66c0
da80
fb80
0000
ENDCHAR
STARTCHAR U+249C
ENCODING 9372
SWIDTH 1000 0
DWIDTH 12 0
BBX 15 12 -1 -2
BITMAP 
030c
0606
0c06
0dc0
1b60
1be0
36c0
33a0
3018
3030
1860
0000
ENDCHAR
STARTCHAR U+249D
ENCODING 9373
SWIDTH 1000 0
DWIDTH 12 0
BBX 15 12 -1 -2
BITMAP 
030c
0606
0cc6
0d80
19c0
19a0
3360
33c0
3018
3030
1860
0000
ENDCHAR
STARTCHAR U+249E
ENCODING 9374
SWIDTH 1000 0
DWIDTH 12 0
BBX 15 12 -1 -2
BITMAP 
030c
0606
0c06
0dc0
1b60
1b00
3340
3180
3018
3030
1860
0000
ENDCHAR
STARTCHAR U+249F
ENCODING 9375
SWIDTH 1000 0
DWIDTH 12 0
BBX 15 12 -1 -2
BITMAP 
030c
0606
0c36
0c60
19e0
1b60
3340
31c0
3018
3030
1860
0000
ENDCHAR
STARTCHAR U+24A0
ENCODING 9376
SWIDTH 1000 0
DWIDTH 12 0
BBX 15 12 -1 -2
BITMAP 
030c
0606
0c06
0dc0
1b60
1be0
3600
33c0
3018
3030
1860
0000
ENDCHAR
STARTCHAR U+24A1
ENCODING 9377
SWIDTH 1000 0
DWIDTH 12 0
BBX 15 12 -1 -2
BITMAP 
030c
0606
0cf6
0d80
1be0
1980
3300
3300
3018
3030
1860
0000
ENDCHAR
STARTCHAR U+24A2
ENCODING 9378
SWIDTH 1000 0
DWIDTH 12 0
BBX 15 12 -1 -2
BITMAP 
030c
0606
0c06
0de0
1b60
1b60
31c0
30c0
3798
3030
1860
0000
ENDCHAR
STARTCHAR U+24A3
ENCODING 9379
SWIDTH 1000 0
DWIDTH 12 0
BBX 15 12 -1 -2
BITMAP 
030c
0606
0cc6
0d80
19c0
19a0
3360
3360
3018
3030
1860
0000
ENDCHAR
STARTCHAR U+24A4
ENCODING 9380
SWIDTH 1000 0
DWIDTH 12 0
BBX 15 12 -1 -2
BITMAP 
030c
0606
0c66
0c00
18c0
18c0
3180
3180
3018
3030
1860
0000
ENDCHAR
STARTCHAR U+24A5
ENCODING 9381
SWIDTH 1000 0
DWIDTH 12 0
BBX 15 12 -1 -2
BITMAP 
030c
0606
0c66
0c00
18c0
18c0
3180
3680
3318
3030
1860
0000
ENDCHAR
STARTCHAR U+24A6
ENCODING 9382
SWIDTH 1000 0
DWIDTH 12 0
BBX 15 12 -1 -2
BITMAP 
030c
0606
0cc6
0d80
19a0
19c0
3340
3360
3018
3030
1860
0000
ENDCHAR
STARTCHAR U+24A7
ENCODING 9383
SWIDTH 1000 0
DWIDTH 12 0
BBX 15 12 -1 -2
BITMAP 
030c
0606
0c66
0cc0
18c0
18c0
3180
3180
3018
3030
1860
0000
ENDCHAR
STARTCHAR U+24A8
ENCODING 9384
SWIDTH 1000 0
DWIDTH 12 0
BBX 15 12 -1 -2
BITMAP 
030c
0606
0c06
0da0
1b50
1b50
36a0
36a0
3018
3030
1860
0000
ENDCHAR
STARTCHAR U+24A9
ENCODING 9385
SWIDTH 1000 0
DWIDTH 12 0
BBX 15 12 -1 -2
BITMAP 
030c
0606
0c06
0de0
19b0
19b0
3360
3360
3018
3030
1860
0000
ENDCHAR
STARTCHAR U+24AA
ENCODING 9386
SWIDTH 1000 0
DWIDTH 12 0
BBX 15 12 -1 -2
BITMAP 
030c
0606
0c06
0de0
1b30
1b30
3360
31c0
3018
3030
1860
0000
ENDCHAR
STARTCHAR U+24AB
ENCODING 9387
SWIDTH 1000 0
DWIDTH 12 0
BBX 15 12 -1 -2
BITMAP 
030c
0606
0c06
0de0
19b0
19a0
33c0
3300
3318
3030
1860
0000
ENDCHAR
STARTCHAR U+24AC
ENCODING 9388
SWIDTH 1000 0
DWIDTH 12 0
BBX 15 12 -1 -2
BITMAP 
030c
0606
0c06
0de0
1b60
1b60
31c0
30c0
30d8
3030
1860
0000
ENDCHAR
STARTCHAR U+24AD
ENCODING 9389
SWIDTH 1000 0
DWIDTH 12 0
BBX 15 12 -1 -2
BITMAP 
030c
0606
0c06
0da0
19c0
1980
3300
3300
3018
3030
1860
0000
ENDCHAR
STARTCHAR U+24AE
ENCODING 9390
SWIDTH 1000 0
DWIDTH 12 0
BBX 15 12 -1 -2
BITMAP 
030c
0606
0c06
0de0
1b00
1980
30c0
3780
3018
3030
1860
0000
ENDCHAR
STARTCHAR U+24AF
ENCODING 9391
SWIDTH 1000 0
DWIDTH 12 0
BBX 15 12 -1 -2
BITMAP 
030c
0606
0cc6
0d80
1be0
1980
3180
30c0
3018
3030
1860
0000
ENDCHAR
STARTCHAR U+24B0
ENCODING 9392
SWIDTH 1000 0
DWIDTH 12 0
BBX 15 12 -1 -2
BITMAP 
030c
0606
0c06
0d60
1b60
1b60
3340
31c0
3018
3030
1860
0000
ENDCHAR
STARTCHAR U+24B1
ENCODING 9393
SWIDTH 1000 0
DWIDTH 12 0
BBX 15 12 -1 -2
BITMAP 
030c
0606
0c06
0d30
1b30
1b60
3340
3180
3018
3030
1860
0000
ENDCHAR
STARTCHAR U+24B2
ENCODING 9394
SWIDTH 1000 0
DWIDTH 12 0
BBX 15 12 -1 -2
BITMAP 
030c
0606
0c06
0d50
1b50
1be0
3360
3340
3018
3030
1860
0000
ENDCHAR
STARTCHAR U+24B3
ENCODING 9395
SWIDTH 1000 0
DWIDTH 12 0
BBX 15 12 -1 -2
BITMAP 
030c
0606
0c06
0d30
19a0
19c0
3340
3660
3018
3030
1860
0000
ENDCHAR
STARTCHAR U+24B4
ENCODING 9396
SWIDTH 1000 0
DWIDTH 12 0
BBX 15 12 -1 -2
BITMAP 
030c
0606
0c06
0d30
19a0
19c0
3180
3180
3018
3030
1860
0000
ENDCHAR
STARTCHAR U+24B5
ENCODING 9397
SWIDTH 1000 0
DWIDTH 12 0
BBX 15 12 -1 -2
BITMAP 
030c
0606
0c06
0df0
1860
19c0
3300
37e0
3018
3030
1860
0000
ENDCHAR
STARTCHAR U+24D0
ENCODING 9424
SWIDTH 1000 0
DWIDTH 12 0
BBX 15 12 -1 -2
BITMAP 
01f8
030c
0606
0dc0
1b60
1be0
36c0
33a0
1838
1860
0fc0
0000
ENDCHAR
STARTCHAR U+24D1
ENCODING 9425
SWIDTH 1000 0
DWIDTH 12 0
BBX 15 12 -1 -2
BITMAP 
01f8
030c
06c6
0d80
19c0
19a0
3360
33c0
1838
1860
0fc0
0000
ENDCHAR
STARTCHAR U+24D2
ENCODING 9426
SWIDTH 1000 0
DWIDTH 12 0
BBX 15 12 -1 -2
BITMAP 
01f8
030c
0606
0dc0
1b60
1b00
3340
3180
1838
1860
0fc0
0000
ENDCHAR
STARTCHAR U+24D3
ENCODING 9427
SWIDTH 1000 0
DWIDTH 12 0
BBX 15 12 -1 -2
BITMAP 
01f8
030c
0636
0c60
19e0
1b60
3340
31c0
1838
1860
0fc0
0000
ENDCHAR
STARTCHAR U+24D4
ENCODING 9428
SWIDTH 1000 0
DWIDTH 12 0
BBX 15 12 -1 -2
BITMAP 
01f8
030c
0606
0dc0
1b60
1be0
3600
33c0
1838
1860
0fc0
0000
ENDCHAR
STARTCHAR U+24D5
ENCODING 9429
SWIDTH 1000 0
DWIDTH 12 0
BBX 15 12 -1 -2
BITMAP 
01f8
030c
06f6
0d80
1be0
1980
3300
3300
1838
1860
0fc0
0000
ENDCHAR
STARTCHAR U+24D6
ENCODING 9430
SWIDTH 1000 0
DWIDTH 12 0
BBX 15 12 -1 -2
BITMAP 
01f8
030c
0606
0de0
1b60
1b60
31c0
30c0
1f98
1860
0fc0
0000
ENDCHAR
STARTCHAR U+24D7
ENCODING 9431
SWIDTH 1000 0
DWIDTH 12 0
BBX 15 12 -1 -2
BITMAP 
01f8
030c
06c6
0d80
19c0
19a0
3360
3360
1838
1860
0fc0
0000
ENDCHAR
STARTCHAR U+24D8
ENCODING 9432
SWIDTH 1000 0
DWIDTH 12 0
BBX 15 12 -1 -2
BITMAP 
01f8
030c
0666
0c00
18c0
18c0
3180
3180
1838
1860
0fc0
0000
ENDCHAR
STARTCHAR U+24D9
ENCODING 9433
SWIDTH 1000 0
DWIDTH 12 0
BBX 15 12 -1 -2
BITMAP 
01f8
030c
0666
0c00
18c0
18c0
3180
3680
1b38
1860
0fc0
0000
ENDCHAR
STARTCHAR U+24DA
ENCODING 9434
SWIDTH 1000 0
DWIDTH 12 0
BBX 15 12 -1 -2
BITMAP 
01f8
030c
06c6
0d80
19a0
19c0
3340
3360
1838
1860
0fc0
0000
ENDCHAR
STARTCHAR U+24DB
ENCODING 9435
SWIDTH 1000 0
DWIDTH 12 0
BBX 15 12 -1 -2
BITMAP 
01f8
030c
0666
0cc0
18c0
18c0
3180
3180
1838
1860
0fc0
0000
ENDCHAR
STARTCHAR U+24DC
ENCODING 9436
SWIDTH 1000 0
DWIDTH 12 0
BBX 15 12 -1 -2
BITMAP 
01f8
030c
0606
0da0
1b50
1b50
36a0
36a0
1838
1860
0fc0
0000
ENDCHAR
STARTCHAR U+24DD
ENCODING 9437
SWIDTH 1000 0
DWIDTH 12 0
BBX 15 12 -1 -2
BITMAP 
01f8
030c
0606
0de0
19b0
19b0
3360
3360
1838
1860
0fc0
0000
ENDCHAR
STARTCHAR U+24DE
ENCODING 9438
SWIDTH 1000 0
DWIDTH 12 0
BBX 15 12 -1 -2
BITMAP 
01f8
030c
0606
0de0
1b30
1b30
3360
31c0
1838
1860
0fc0
0000
ENDCHAR
STARTCHAR U+24DF
ENCODING 9439
SWIDTH 1000 0
DWIDTH 12 0
BBX 15 12 -1 -2
BITMAP 
01f8
030c
0606
0de0
19b0
19a0
33c0
3300
1b38
1860
0fc0
0000
ENDCHAR
STARTCHAR U+24E0
ENCODING 9440
SWIDTH 1000 0
DWIDTH 12 0
BBX 15 12 -1 -2
BITMAP 
01f8
030c
0606
0de0
1b60
1b60
31c0
30c0
18d8
1860
0fc0
0000
ENDCHAR
STARTCHAR U+24E1
ENCODING 9441
SWIDTH 1000 0
DWIDTH 12 0
BBX 15 12 -1 -2
BITMAP 
01f8
030c
0606
0da0
19c0
1980
3300
3300
1838
1860
0fc0
0000
ENDCHAR
STARTCHAR U+24E2
ENCODING 9442
SWIDTH 1000 0
DWIDTH 12 0
BBX 15 12 -1 -2
BITMAP 
01f8
030c
0606
0de0
1b00
1980
30c0
3780
1838
1860
0fc0
0000
ENDCHAR
STARTCHAR U+24E3
ENCODING 9443
SWIDTH 1000 0
DWIDTH 12 0
BBX 15 12 -1 -2
BITMAP 
01f8
030c
06c6
0d80
1be0
1980
3180
30c0
1838
1860
0fc0
0000
ENDCHAR
STARTCHAR U+24E4
ENCODING 9444
SWIDTH 1000 0
DWIDTH 12 0
BBX 15 12 -1 -2
BITMAP 
01f8
030c
0606
0d60
1b60
1b60
3340
31c0
1838
1860
0fc0
0000
ENDCHAR
STARTCHAR U+24E5
ENCODING 9445
SWIDTH 1000 0
DWIDTH 12 0
BBX 15 12 -1 -2
BITMAP 
01f8
030c
0606
0d30
1b30
1b60
3340
3180
1838
1860
0fc0
0000
ENDCHAR
STARTCHAR U+24E6
ENCODING 9446
SWIDTH 1000 0
DWIDTH 12 0
BBX 15 12 -1 -2
BITMAP 
01f8
030c
0606
0d50
1b50
1be0
3360
3340
1838
1860
0fc0
0000
ENDCHAR
STARTCHAR U+24E7
ENCODING 9447
SWIDTH 1000 0
DWIDTH 12 0
BBX 15 12 -1 -2
BITMAP 
01f8
030c
0606
0d30
19a0
19c0
3340
3660
1838
1860
0fc0
0000
ENDCHAR
STARTCHAR U+24E8
ENCODING 9448
SWIDTH 1000 0
DWIDTH 12 0
BBX 15 12 -1 -2
BITMAP 
01f8
030c
0606
0d30
19a0
19c0
3180
3180
1838
1860
0fc0
0000
ENDCHAR
STARTCHAR U+24E9
ENCODING 9449
SWIDTH 1000 0
DWIDTH 12 0
BBX 15 12 -1 -2
BITMAP 
01f8
030c
0606
0df0
1860
19c0
3300
37e0
1838
1860
0fc0
0000
ENDCHAR
STARTCHAR U+2500
ENCODING 9472
SWIDTH 1000 0
DWIDTH 12 0
BBX 15 12 -1 -2
BITMAP 
0000
0000
0000
0000
0000
7ffc
0000
0000
0000
0000
0000
0000
ENDCHAR
STARTCHAR U+2501
ENCODING 9473
SWIDTH 1000 0
DWIDTH 12 0
BBX 15 12 -1 -2
BITMAP 
0000
0000
0000
0000
0000
7ffc
fff8
0000
0000
0000
0000
0000
ENDCHAR
STARTCHAR U+2502
ENCODING 9474
SWIDTH 1000 0
DWIDTH 12 0
BBX 15 12 -1 -2
BITMAP 
0180
0180
0180
0300
0300
0300
0600
0600
0600
0c00
0c00
0c00
ENDCHAR
STARTCHAR U+2503
ENCODING 9475
SWIDTH 1000 0
DWIDTH 12 0
BBX 15 12 -1 -2
BITMAP 
01c0
01c0
01c0
0380
0380
0380
0700
0700
0700
0e00
0e00
0e00
ENDCHAR
STARTCHAR U+2504
ENCODING 9476
SWIDTH 1000 0
DWIDTH 12 0
BBX 15 12 -1 -2
BITMAP 
0000
0000
0000
0000
0000
3bb0
0000
0000
0000
0000
0000
0000
ENDCHAR
STARTCHAR U+2505
ENCODING 9477
SWIDTH 1000 0
DWIDTH 12 0
BBX 15 12 -1 -2
BITMAP 
0000
0000
0000
0000
0000
3bb0
7760
0000
0000
0000
0000
0000
ENDCHAR
STARTCHAR U+2506
ENCODING 9478
SWIDTH 1000 0
DWIDTH 12 0
BBX 15 12 -1 -2
BITMAP 
0000
0180
0180
0000
0000
0300
0600
0000
0600
0c00
0000
0000
ENDCHAR
STARTCHAR U+2507
ENCODING 9479
SWIDTH 1000 0
DWIDTH 12 0
BBX 15 12 -1 -2
BITMAP 
0000
01c0
01c0
0000
0000
0380
0700
0000
0700
0e00
0000
0000
ENDCHAR
STARTCHAR U+2508
ENCODING 9480
SWIDTH 1000 0
DWIDTH 12 0
BBX 15 12 -1 -2
BITMAP 
0000
0000
0000
0000
0000
76d8
0000
0000
0000
0000
0000
0000
ENDCHAR
STARTCHAR U+2509
ENCODING 9481
SWIDTH 1000 0
DWIDTH 12 0
BBX 15 12 -1 -2
BITMAP 
0000
0000
0000
0000
0000
76d8
edb0
0000
0000
0000
0000
0000
ENDCHAR
STARTCHAR U+250A
ENCODING 9482
SWIDTH 1000 0
DWIDTH 12 0
BBX 15 12 -1 -2
BITMAP 
0180
0180
0000
0300
0300
0000
0600
0600
0000
0c00
0c00
0000
ENDCHAR
STARTCHAR U+250B
ENCODING 9483
SWIDTH 1000 0
DWIDTH 12 0
BBX 15 12 -1 -2
BITMAP 
01c0
01c0
0000
0380
0380
0000
0700
0700
0000
0e00
0e00
0000
ENDCHAR
STARTCHAR U+250C
ENCODING 9484
SWIDTH 1000 0
DWIDTH 12 0
BBX 15 12 -1 -2
BITMAP 
0000
0000
0000
0000
0000
03fc
0600
0600
0600
0c00
0c00
0c00
ENDCHAR
STARTCHAR U+250D
ENCODING 9485
SWIDTH 1000 0
DWIDTH 12 0
BBX 15 12 -1 -2
BITMAP 
0000
0000
0000
0000
00fc
00fc
0180
0180
0180
0300
0300
0000
ENDCHAR
STARTCHAR U+250E
ENCODING 9486
SWIDTH 1000 0
DWIDTH 12 0
BBX 15 12 -1 -2
BITMAP 
0000
0000
0000
0000
01fc
01c0
0380
0380
0380
0700
0700
0000
ENDCHAR
STARTCHAR U+250F
ENCODING 9487
SWIDTH 1000 0
DWIDTH 12 0
BBX 15 12 -1 -2
BITMAP 
0000
0000
0000
0000
0000
03fc
07f8
0700
0700
0e00
0e00
0e00
ENDCHAR
STARTCHAR U+2510
ENCODING 9488
SWIDTH 1000 0
DWIDTH 12 0
BBX 15 12 -1 -2
BITMAP 
0000
0000
0000
0000
0000
7f00
0600
0600
0600
0c00
0c00
0c00
ENDCHAR
STARTCHAR U+2511
ENCODING 9489
SWIDTH 1000 0
DWIDTH 12 0
BBX 15 12 -1 -2
BITMAP 
0000
0000
0000
0000
3fc0
3fc0
0180
0180
0180
0300
0300
0000
ENDCHAR
STARTCHAR U+2512
ENCODING 9490
SWIDTH 1000 0
DWIDTH 12 0
BBX 15 12 -1 -2
BITMAP 
0000
0000
0000
0000
3fc0
01c0
0380
0380
0380
0700
0700
0000
ENDCHAR
STARTCHAR U+2513
ENCODING 9491
SWIDTH 1000 0
DWIDTH 12 0
BBX 15 12 -1 -2
BITMAP 
0000
0000
0000
0000
0000
7f80
ff00
0700
0700
0e00
0e00
0e00
ENDCHAR
STARTCHAR U+2514
ENCODING 9492
SWIDTH 1000 0
DWIDTH 12 0
BBX 15 12 -1 -2
BITMAP 
0180
0180
0180
0300
0300
03fc
0000
0000
0000
0000
0000
0000
ENDCHAR
STARTCHAR U+2515
ENCODING 9493
SWIDTH 1000 0
DWIDTH 12 0
BBX 15 12 -1 -2
BITMAP 
0060
0060
0060
00c0
00c0
00fc
01f8
0000
0000
0000
0000
0000
ENDCHAR
STARTCHAR U+2516
ENCODING 9494
SWIDTH 1000 0
DWIDTH 12 0
BBX 15 12 -1 -2
BITMAP 
00e0
00e0
00e0
01c0
01c0
01fc
0000
0000
0000
0000
0000
0000
ENDCHAR
STARTCHAR U+2517
ENCODING 9495
SWIDTH 1000 0
DWIDTH 12 0
BBX 15 12 -1 -2
BITMAP 
01c0
01c0
01c0
0380
0380
03fc
07f8
0000
0000
0000
0000
0000
ENDCHAR
STARTCHAR U+2518
ENCODING 9496
SWIDTH 1000 0
DWIDTH 12 0
BBX 15 12 -1 -2
BITMAP 
0180
0180
0180
0300
0300
7f00
0000
0000
0000
0000
0000
0000
ENDCHAR
STARTCHAR U+2519
ENCODING 9497
SWIDTH 1000 0
DWIDTH 12 0
BBX 15 12 -1 -2
BITMAP 
0060
0060
0060
00c0
00c0
3fc0
7f80
0000
0000
0000
0000
0000
ENDCHAR
STARTCHAR U+251A
ENCODING 9498
SWIDTH 1000 0
DWIDTH 12 0
BBX 15 12 -1 -2
BITMAP 
00e0
00e0
00e0
01c0
01c0
3fc0
0000
0000
0000
0000
0000
0000
ENDCHAR
STARTCHAR U+251B
ENCODING 9499
SWIDTH 1000 0
DWIDTH 12 0
BBX 15 12 -1 -2
BITMAP 
01c0
01c0
01c0
0380
0380
7f80
ff00
0000
0000
0000
0000
0000
ENDCHAR
STARTCHAR U+251C
ENCODING 9500
SWIDTH 1000 0
DWIDTH 12 0
BBX 15 12 -1 -2
BITMAP 
0180
0180
0180
0300
0300
03fc
0600
0600
0600
0c00
0c00
0c00
ENDCHAR
STARTCHAR U+251D
ENCODING 9501
SWIDTH 1000 0
DWIDTH 12 0
BBX 15 12 -1 -2
BITMAP 
0180
0180
0180
0300
0300
03fc
07f8
0600
0600
0c00
0c00
0c00
ENDCHAR
STARTCHAR U+251E
ENCODING 9502
SWIDTH 1000 0
DWIDTH 12 0
BBX 15 12 -1 -2
BITMAP 
00e0
00e0
00e0
01c0
01c0
01fc
0180
0180
0180
0300
0300
0300
ENDCHAR
STARTCHAR U+251F
ENCODING 9503
SWIDTH 1000 0
DWIDTH 12 0
BBX 15 12 -1 -2
BITMAP 
0060
0060
0060
00c0
00c0
01fc
0380
0380
0380
0700
0700
0700
ENDCHAR
STARTCHAR U+2520
ENCODING 9504
SWIDTH 1000 0
DWIDTH 12 0
BBX 15 12 -1 -2
BITMAP 
01c0
01c0
01c0
0380
0380
03fc
0700
0700
0700
0e00
0e00
0e00
ENDCHAR
STARTCHAR U+2521
ENCODING 9505
SWIDTH 1000 0
DWIDTH 12 0
BBX 15 12 -1 -2
BITMAP 
00e0
00e0
00e0
01c0
01c0
01fc
03f8
0180
0180
0300
0300
0300
ENDCHAR
STARTCHAR U+2522
ENCODING 9506
SWIDTH 1000 0
DWIDTH 12 0
BBX 15 12 -1 -2
BITMAP 
0060
0060
0060
00c0
00c0
01fc
03f8
0380
0380
0700
0700
0700
ENDCHAR
STARTCHAR U+2523
ENCODING 9507
SWIDTH 1000 0
DWIDTH 12 0
BBX 15 12 -1 -2
BITMAP 
01c0
01c0
01c0
0380
0380
03fc
07f8
0700
0700
0e00
0e00
0e00
ENDCHAR
STARTCHAR U+2524
ENCODING 9508
SWIDTH 1000 0
DWIDTH 12 0
BBX 15 12 -1 -2
BITMAP 
0180
0180
0180
0300
0300
7f00
0600
0600
0600
0c00
0c00
0c00
ENDCHAR
STARTCHAR U+2525
ENCODING 9509
SWIDTH 1000 0
DWIDTH 12 0
BBX 15 12 -1 -2
BITMAP 
0180
0180
0180
0300
0300
7f00
fe00
0600
0600
0c00
0c00
0c00
ENDCHAR
STARTCHAR U+2526
ENCODING 9510
SWIDTH 1000 0
DWIDTH 12 0
BBX 15 12 -1 -2
BITMAP 
00e0
00e0
00e0
01c0
01c0
3fc0
0180
0180
0180
0300
0300
0300
ENDCHAR
STARTCHAR U+2527
ENCODING 9511
SWIDTH 1000 0
DWIDTH 12 0
BBX 15 12 -1 -2
BITMAP 
0060
0060
0060
00c0
00c0
3fc0
0380
0380
0380
0700
0700
0700
ENDCHAR
STARTCHAR U+2528
ENCODING 9512
SWIDTH 1000 0
DWIDTH 12 0
BBX 15 12 -1 -2
BITMAP 
01c0
01c0
01c0
0380
0380
7f80
0700
0700
0700
0e00
0e00
0e00
ENDCHAR
STARTCHAR U+2529
ENCODING 9513
SWIDTH 1000 0
DWIDTH 12 0
BBX 15 12 -1 -2
BITMAP 
00e0
00e0
00e0
01c0
01c0
3fc0
7f80
0180
0180
0300
0300
0300
ENDCHAR
STARTCHAR U+252A
ENCODING 9514
SWIDTH 1000 0
DWIDTH 12 0
BBX 15 12 -1 -2
BITMAP 
0060
0060
0060
00c0
00c0
3fc0
7f80
0380
0380
0700
0700
0700
ENDCHAR
STARTCHAR U+252B
ENCODING 9515
SWIDTH 1000 0
DWIDTH 12 0
BBX 15 12 -1 -2
BITMAP 
01c0
01c0
01c0
0380
0380
7f80
ff00
0700
0700
0e00
0e00
0e00
ENDCHAR
STARTCHAR U+252C
ENCODING 9516
SWIDTH 1000 0
DWIDTH 12 0
BBX 15 12 -1 -2
BITMAP 
0000
0000
0000
0000
0000
7ffc
0600
0600
0600
0c00
0c00
0c00
ENDCHAR
STARTCHAR U+252D
ENCODING 9517
SWIDTH 1000 0
DWIDTH 12 0
BBX 15 12 -1 -2
BITMAP 
0000
0000
0000
0000
3ffc
3fc0
0180
0180
0180
0300
0300
0000
ENDCHAR
STARTCHAR U+252E
ENCODING 9518
SWIDTH 1000 0
DWIDTH 12 0
BBX 15 12 -1 -2
BITMAP 
0000
0000
0000
0000
3ffc
00fc
0180
0180
0180
0300
0300
0000
ENDCHAR
STARTCHAR U+252F
ENCODING 9519
SWIDTH 1000 0
DWIDTH 12 0
BBX 15 12 -1 -2
BITMAP 
0000
0000
0000
0000
0000
7ffc
fff8
0600
0600
0c00
0c00
0c00
ENDCHAR
STARTCHAR U+2530
ENCODING 9520
SWIDTH 1000 0
DWIDTH 12 0
BBX 15 12 -1 -2
BITMAP 
0000
0000
0000
0000
0000
7ffc
0700
0700
0700
0e00
0e00
0e00
ENDCHAR
STARTCHAR U+2531
ENCODING 9521
SWIDTH 1000 0
DWIDTH 12 0
BBX 15 12 -1 -2
BITMAP 
0000
0000
0000
0000
3ffc
3fc0
0380
0380
0380
0700
0700
0000
ENDCHAR
STARTCHAR U+2532
ENCODING 9522
SWIDTH 1000 0
DWIDTH 12 0
BBX 15 12 -1 -2
BITMAP 
0000
0000
0000
0000
3ffc
01fc
0380
0380
0380
0700
0700
0000
ENDCHAR
STARTCHAR U+2533
ENCODING 9523
SWIDTH 1000 0
DWIDTH 12 0
BBX 15 12 -1 -2
BITMAP 
0000
0000
0000
0000
0000
7ffc
fff8
0700
0700
0e00
0e00
0e00
ENDCHAR
STARTCHAR U+2534
ENCODING 9524
SWIDTH 1000 0
DWIDTH 12 0
BBX 15 12 -1 -2
BITMAP 
0180
0180
0180
0300
0300
7ffc
0000
0000
0000
0000
0000
0000
ENDCHAR
STARTCHAR U+2535
ENCODING 9525
SWIDTH 1000 0
DWIDTH 12 0
BBX 15 12 -1 -2
BITMAP 
0060
0060
0060
00c0
00c0
3ffc
7f80
0000
0000
0000
0000
0000
ENDCHAR
STARTCHAR U+2536
ENCODING 9526
SWIDTH 1000 0
DWIDTH 12 0
BBX 15 12 -1 -2
BITMAP 
0060
0060
0060
00c0
00c0
3ffc
01f8
0000
0000
0000
0000
0000
ENDCHAR
STARTCHAR U+2537
ENCODING 9527
SWIDTH 1000 0
DWIDTH 12 0
BBX 15 12 -1 -2
BITMAP 
0180
0180
0180
0300
0300
7ffc
fff8
0000
0000
0000
0000
0000
ENDCHAR
STARTCHAR U+2538
ENCODING 9528
SWIDTH 1000 0
DWIDTH 12 0
BBX 15 12 -1 -2
BITMAP 
01c0
01c0
01c0
0380
0380
7ffc
0000
0000
0000
0000
0000
0000
ENDCHAR
STARTCHAR U+2539
ENCODING 9529
SWIDTH 1000 0
DWIDTH 12 0
BBX 15 12 -1 -2
BITMAP 
00e0
00e0
00e0
01c0
01c0
3ffc
7f80
0000
0000
0000
0000
0000
ENDCHAR
STARTCHAR U+253A
ENCODING 9530
SWIDTH 1000 0
DWIDTH 12 0
BBX 15 12 -1 -2
BITMAP 
00e0
00e0
00e0
01c0
01c0
3ffc
03f8
0000
0000
0000
0000
0000
ENDCHAR
STARTCHAR U+253B
ENCODING 9531
SWIDTH 1000 0
DWIDTH 12 0
BBX 15 12 -1 -2
BITMAP 
01c0
01c0
01c0
0380
0380
7ffc
fff8
0000
0000
0000
0000
0000
ENDCHAR
STARTCHAR U+253C
ENCODING 9532
SWIDTH 1000 0
DWIDTH 12 0
BBX 15 12 -1 -2
BITMAP 
0180
0180
0180
0300
0300
7ffc
0600
0600
0600
0c00
0c00
0c00
ENDCHAR
STARTCHAR U+253D
ENCODING 9533
SWIDTH 1000 0
DWIDTH 12 0
BBX 15 12 -1 -2
BITMAP 
0060
0060
0060
00c0
00c0
3ffc
7f80
0180
0180
0300
0300
0300
ENDCHAR
STARTCHAR U+253E
ENCODING 9534
SWIDTH 1000 0
DWIDTH 12 0
BBX 15 12 -1 -2
BITMAP 
0060
0060
0060
00c0
00c0
3ffc
01f8
0180
0180
0300
0300
0300
ENDCHAR
STARTCHAR U+253F
ENCODING 9535
SWIDTH 1000 0
DWIDTH 12 0
BBX 15 12 -1 -2
BITMAP 
0180
0180
0180
0300
0300
7ffc
fff8
0600
0600
0c00
0c00
0c00
ENDCHAR
STARTCHAR U+2540
ENCODING 9536
SWIDTH 1000 0
DWIDTH 12 0
BBX 15 12 -1 -2
BITMAP 
00e0
00e0
00e0
01c0
01c0
3ffc
0180
0180
0180
0300
0300
0300
ENDCHAR
STARTCHAR U+2541
ENCODING 9537
SWIDTH 1000 0
DWIDTH 12 0
BBX 15 12 -1 -2
BITMAP 
0060
0060
0060
00c0
00c0
3ffc
0380
0380
0380
0700
0700
0700
ENDCHAR
STARTCHAR U+2542
ENCODING 9538
SWIDTH 1000 0
DWIDTH 12 0
BBX 15 12 -1 -2
BITMAP 
01c0
01c0
01c0
0380
0380
7ffc
0700
0700
0700
0e00
0e00
0e00
ENDCHAR
STARTCHAR U+2543
ENCODING 9539
SWIDTH 1000 0
DWIDTH 12 0
BBX 15 12 -1 -2
BITMAP 
00e0
00e0
00e0
01c0
01c0
3fc0
7f80
0180
0180
0300
0300
0300
ENDCHAR
STARTCHAR U+2544
ENCODING 9540
SWIDTH 1000 0
DWIDTH 12 0
BBX 15 12 -1 -2
BITMAP 
00e0
00e0
00e0
01c0
01c0
3ffc
03f8
0180
0180
0300
0300
0300
ENDCHAR
STARTCHAR U+2545
ENCODING 9541
SWIDTH 1000 0
DWIDTH 12 0
BBX 15 12 -1 -2
BITMAP 
0060
0060
0060
00c0
00c0
3ffc
7f80
0380
0380
0700
0700
0700
ENDCHAR
STARTCHAR U+2546
ENCODING 9542
SWIDTH 1000 0
DWIDTH 12 0
BBX 15 12 -1 -2
BITMAP 
0060
0060
0060
00c0
00c0
3ffc
03f8
0380
0380
0700
0700
0700
ENDCHAR
STARTCHAR U+2547
ENCODING 9543
SWIDTH 1000 0
DWIDTH 12 0
BBX 15 12 -1 -2
BITMAP 
00e0
00e0
00e0
01c0
01c0
3ffc
7ff8
0180
0180
0300
0300
0300
ENDCHAR
STARTCHAR U+2548
ENCODING 9544
SWIDTH 1000 0
DWIDTH 12 0
BBX 15 12 -1 -2
BITMAP 
0060
0060
0060
00c0
00c0
3ffc
7ff8
0380
0380
0700
0700
0700
ENDCHAR
STARTCHAR U+2549
ENCODING 9545
SWIDTH 1000 0
DWIDTH 12 0
BBX 15 12 -1 -2
BITMAP 
00e0
00e0
00e0
01c0
01c0
3ffc
7f80
0380
0380
0700
0700
0700
ENDCHAR
STARTCHAR U+254A
ENCODING 9546
SWIDTH 1000 0
DWIDTH 12 0
BBX 15 12 -1 -2
BITMAP 
00e0
00e0
00e0
01c0
01c0
3ffc
03f8
0380
0380
0700
0700
0700
ENDCHAR
STARTCHAR U+254B
ENCODING 9547
SWIDTH 1000 0
DWIDTH 12 0
BBX 15 12 -1 -2
BITMAP 
01c0
01c0
01c0
0380
0380
7ffc
fff8
0700
0700
0e00
0e00
0e00
ENDCHAR
STARTCHAR U+2550
ENCODING 9552
SWIDTH 1000 0
DWIDTH 12 0
BBX 15 12 -1 -2
BITMAP 
0000
0000
0000
7ffc
7ffc
0000
0000
0000
fff8
fff0
0000
0000
ENDCHAR
STARTCHAR U+255E
ENCODING 9566
SWIDTH 1000 0
DWIDTH 12 0
BBX 15 12 -1 -2
BITMAP 
0000
01c0
01c0
03fc
03fc
0380
0700
0700
07f8
0ff0
0e00
0e00
ENDCHAR
STARTCHAR U+2561
ENCODING 9569
SWIDTH 1000 0
DWIDTH 12 0
BBX 15 12 -1 -2
BITMAP 
0000
01c0
01c0
7f80
7f80
0380
0700
0700
ff00
fe00
0e00
0e00
ENDCHAR
STARTCHAR U+256A
ENCODING 9578
SWIDTH 1000 0
DWIDTH 12 0
BBX 15 12 -1 -2
BITMAP 
0000
01c0
01c0
7ffc
7ffc
0380
0700
0700
fff8
fff0
0e00
0e00
ENDCHAR
STARTCHAR U+256D
ENCODING 9581
SWIDTH 1000 0
DWIDTH 12 0
BBX 15 12 -1 -2
BITMAP 
0000
0000
0000
0000
0000
0000
00f0
03f0
0380
0e00
0e00
0e00
ENDCHAR
STARTCHAR U+256E
ENCODING 9582
SWIDTH 1000 0
DWIDTH 12 0
BBX 15 12 -1 -2
BITMAP 
0000
0000
0000
0000
0000
0000
f000
fc00
0c00
1c00
1c00
1c00
ENDCHAR
STARTCHAR U+256F
ENCODING 9583
SWIDTH 1000 0
DWIDTH 12 0
BBX 15 12 -1 -2
BITMAP 
0000
0380
0380
0600
7e00
7800
0000
0000
0000
0000
0000
0000
ENDCHAR
STARTCHAR U+2570
ENCODING 9584
SWIDTH 1000 0
DWIDTH 12 0
BBX 15 12 -1 -2
BITMAP 
0000
01c0
01c0
01c0
01f8
0078
0000
0000
0000
0000
0000
0000
ENDCHAR
STARTCHAR U+2571
ENCODING 9585
SWIDTH 1000 0
DWIDTH 12 0
BBX 15 12 -1 -2
BITMAP 
0000
000e
001c
0070
00e0
01c0
0700
0e00
1c00
7000
e000
c000
ENDCHAR
STARTCHAR U+2572
ENCODING 9586
SWIDTH 1000 0
DWIDTH 12 0
BBX 15 12 -1 -2
BITMAP 
0000
3800
1800
1c00
0e00
0600
0700
0380
0180
01c0
00e0
0070
ENDCHAR
STARTCHAR U+2573
ENCODING 9587
SWIDTH 1000 0
DWIDTH 12 0
BBX 15 12 -1 -2
BITMAP 
0000
380e
181c
1c70
0ee0
07c0
0700
0f80
1d80
71c0
e0e0
c070
ENDCHAR
STARTCHAR U+2581
ENCODING 9601
SWIDTH 1000 0
DWIDTH 12 0
BBX 15 12 -1 -2
BITMAP 
0000
0000
0000
0000
0000
0000
0000
0000
0000
0000
fff0
fff0
ENDCHAR
STARTCHAR U+2582
ENCODING 9602
SWIDTH 1000 0
DWIDTH 12 0
BBX 15 12 -1 -2
BITMAP 
0000
0000
0000
0000
0000
0000
0000
0000
0000
fff0
fff0
fff0
ENDCHAR
STARTCHAR U+2583
ENCODING 9603
SWIDTH 1000 0
DWIDTH 12 0
BBX 15 12 -1 -2
BITMAP 
0000
0000
0000
0000
0000
0000
0000
fff8
fff8
fff0
fff0
fff0
ENDCHAR
STARTCHAR U+2584
ENCODING 9604
SWIDTH 1000 0
DWIDTH 12 0
BBX 15 12 -1 -2
BITMAP 
0000
0000
0000
0000
0000
0000
fff8
fff8
fff8
fff0
fff0
fff0
ENDCHAR
STARTCHAR U+2585
ENCODING 9605
SWIDTH 1000 0
DWIDTH 12 0
BBX 15 12 -1 -2
BITMAP 
0000
0000
0000
0000
7ffc
7ffc
fff8
fff8
fff8
fff0
fff0
fff0
ENDCHAR
STARTCHAR U+2586
ENCODING 9606
SWIDTH 1000 0
DWIDTH 12 0
BBX 15 12 -1 -2
BITMAP 
0000
0000
0000
7ffc
7ffc
7ffc
fff8
fff8
fff8
fff0
fff0
fff0
ENDCHAR
STARTCHAR U+2587
ENCODING 9607
SWIDTH 1000 0
DWIDTH 12 0
BBX 15 12 -1 -2
BITMAP 
0000
3ffe
3ffe
7ffc
7ffc
7ffc
fff8
fff8
fff8
fff0
fff0
fff0
ENDCHAR
STARTCHAR U+2588
ENCODING 9608
SWIDTH 1000 0
DWIDTH 12 0
BBX 15 12 -1 -2
BITMAP 
0000
3ffe
3ffe
7ffc
7ffc
7ffc
fff8
fff8
fff8
fff0
fff0
fff0
ENDCHAR
STARTCHAR U+2589
ENCODING 9609
SWIDTH 1000 0
DWIDTH 12 0
BBX 15 12 -1 -2
BITMAP 
0000
3ffc
3ffc
7ff8
7ff8
7ff8
fff0
fff0
fff0
ffe0
ffe0
ffe0
ENDCHAR
STARTCHAR U+258A
ENCODING 9610
SWIDTH 1000 0
DWIDTH 12 0
BBX 15 12 -1 -2
BITMAP 
0000
3ff0
3ff0
7fe0
7fe0
7fe0
ffc0
ffc0
ffc0
ff80
ff80
ff80
ENDCHAR
STARTCHAR U+258B
ENCODING 9611
SWIDTH 1000 0
DWIDTH 12 0
BBX 15 12 -1 -2
BITMAP 
0000
3fe0
3fe0
7fc0
7fc0
7fc0
ff80
ff80
ff80
ff00
ff00
ff00
ENDCHAR
STARTCHAR U+258C
ENCODING 9612
SWIDTH 1000 0
DWIDTH 12 0
BBX 15 12 -1 -2
BITMAP 
0000
3f80
3f80
7f00
7f00
7f00
fe00
fe00
fe00
fc00
fc00
fc00
ENDCHAR
STARTCHAR U+258D
ENCODING 9613
SWIDTH 1000 0
DWIDTH 12 0
BBX 15 12 -1 -2
BITMAP 
0000
3f00
3f00
7e00
7e00
7e00
fc00
fc00
fc00
f800
f800
f800
ENDCHAR
STARTCHAR U+258E
ENCODING 9614
SWIDTH 1000 0
DWIDTH 12 0
BBX 15 12 -1 -2
BITMAP 
0000
3c00
3c00
7800
7800
7800
f000
f000
f000
e000
e000
e000
ENDCHAR
STARTCHAR U+258F
ENCODING 9615
SWIDTH 1000 0
DWIDTH 12 0
BBX 15 12 -1 -2
BITMAP 
0000
3800
3800
7000
7000
7000
e000
e000
e000
c000
c000
c000
ENDCHAR
STARTCHAR U+2592
ENCODING 9618
SWIDTH 1000 0
DWIDTH 12 0
BBX 15 12 -1 -2
BITMAP 
0ffe
0db6
0c06
1adc
180c
1b6c
3018
35b8
3018
7ff0
0000
0000
ENDCHAR
STARTCHAR U+2594
ENCODING 9620
SWIDTH 1000 0
DWIDTH 12 0
BBX 15 12 -1 -2
BITMAP 
0000
3ffe
0000
0000
0000
0000
0000
0000
0000
0000
0000
0000
ENDCHAR
STARTCHAR U+2595
ENCODING 9621
SWIDTH 1000 0
DWIDTH 12 0
BBX 15 12 -1 -2
BITMAP 
0000
000e
000e
001c
001c
001c
0038
0038
0038
0070
0070
0070
ENDCHAR
STARTCHAR U+25A0
ENCODING 9632
SWIDTH 1000 0
DWIDTH 12 0
BBX 15 12 -1 -2
BITMAP 
0000
3ffc
3ffc
7ff8
7ff8
7ff8
fff0
fff0
fff0
ffe0
ffe0
ffe0
ENDCHAR
STARTCHAR U+25A1
ENCODING 9633
SWIDTH 1000 0
DWIDTH 12 0
BBX 15 12 -1 -2
BITMAP 
0000
3ffc
300c
6018
6018
6018
c030
c030
c030
8060
8060
ffe0
ENDCHAR
STARTCHAR U+25A3
ENCODING 9635
SWIDTH 1000 0
DWIDTH 12 0
BBX 15 12 -1 -2
BITMAP 
0ffe
0c06
0c06
1bec
1bec
1bec
37d8
3018
3018
7ff0
0000
0000
ENDCHAR
STARTCHAR U+25A4
ENCODING 9636
SWIDTH 1000 0
DWIDTH 12 0
BBX 15 12 -1 -2
BITMAP 
0ffe
0c06
0c06
1ffc
180c
180c
3ff8
3018
3018
7ff0
0000
0000
ENDCHAR
STARTCHAR U+25A5
ENCODING 9637
SWIDTH 1000 0
DWIDTH 12 0
BBX 15 12 -1 -2
BITMAP 
0ffe
0db6
0db6
1b6c
1b6c
1b6c
36d8
36d8
36d8
7ff0
0000
0000
ENDCHAR
STARTCHAR U+25A6
ENCODING 9638
SWIDTH 1000 0
DWIDTH 12 0
BBX 15 12 -1 -2
BITMAP 
0ffe
0db6
0db6
1ffc
1b6c
1b6c
3ff8
36d8
36d8
7ff0
0000
0000
ENDCHAR
STARTCHAR U+25A7
ENCODING 9639
SWIDTH 1000 0
DWIDTH 12 0
BBX 15 12 -1 -2
BITMAP 
0ffe
0e66
0d36
1b34
199c
1ccc
34d8
3668
3338
7ff0
0000
0000
ENDCHAR
STARTCHAR U+25A8
ENCODING 9640
SWIDTH 1000 0
DWIDTH 12 0
BBX 15 12 -1 -2
BITMAP 
0ffe
0cce
0d9a
1a6c
1ccc
1b9c
3668
34d8
3b98
7ef0
0000
0000
ENDCHAR
STARTCHAR U+25A9
ENCODING 9641
SWIDTH 1000 0
DWIDTH 12 0
BBX 15 12 -1 -2
BITMAP 
0ffe
0d56
0d9a
1aac
1ccc
1bac
3668
3558
3998
7ff0
0000
0000
ENDCHAR
STARTCHAR U+25B1
ENCODING 9649
SWIDTH 1000 0
DWIDTH 12 0
BBX 15 12 -1 -2
BITMAP 
0000
0000
0000
07fc
0c0c
1818
1830
3060
60c0
ff80
0000
0000
ENDCHAR
STARTCHAR U+25B2
ENCODING 9650
SWIDTH 1000 0
DWIDTH 12 0
BBX 15 12 -1 -2
BITMAP 
0180
0180
03c0
0780
0fc0
0fc0
3fc0
3fc0
7fe0
ffc0
ffe0
0000
ENDCHAR
STARTCHAR U+25B3
ENCODING 9651
SWIDTH 1000 0
DWIDTH 12 0
BBX 15 12 -1 -2
BITMAP 
0180
0180
0380
0680
0cc0
18c0
18c0
30c0
60c0
c0c0
ffe0
0000
ENDCHAR
STARTCHAR U+25B6
ENCODING 9654
SWIDTH 1000 0
DWIDTH 12 0
BBX 15 12 -1 -2
BITMAP 
0c00
0f00
0fc0
1fe0
1ff8
1ffc
3ff0
3fc0
3f00
7800
6000
0000
ENDCHAR
STARTCHAR U+25B7
ENCODING 9655
SWIDTH 1000 0
DWIDTH 12 0
BBX 15 12 -1 -2
BITMAP 
0c00
0f00
0dc0
1860
1838
181c
3070
31c0
3700
7800
6000
0000
ENDCHAR
STARTCHAR U+25BC
ENCODING 9660
SWIDTH 1000 0
DWIDTH 12 0
BBX 15 12 -1 -2
BITMAP 
0000
3ffc
1ff8
3ff0
1fe0
1fe0
1f80
1f80
0f00
1e00
0c00
0c00
ENDCHAR
STARTCHAR U+25BD
ENCODING 9661
SWIDTH 1000 0
DWIDTH 12 0
BBX 15 12 -1 -2
BITMAP 
0000
3ffc
1830
1830
1860
18c0
18c0
1980
1b00
1a00
0c00
0c00
ENDCHAR
STARTCHAR U+25C0
ENCODING 9664
SWIDTH 1000 0
DWIDTH 12 0
BBX 15 12 -1 -2
BITMAP 
0006
001e
007e
03fc
0ffc
1ffc
1ff8
07f8
01f8
00f0
0030
0000
ENDCHAR
STARTCHAR U+25C1
ENCODING 9665
SWIDTH 1000 0
DWIDTH 12 0
BBX 15 12 -1 -2
BITMAP 
0006
001e
00f6
038c
0e0c
180c
0c18
0718
01d8
0070
0030
0000
ENDCHAR
STARTCHAR U+25C6
ENCODING 9670
SWIDTH 1000 0
DWIDTH 12 0
BBX 15 12 -1 -2
BITMAP 
0000
0180
03c0
0fc0
1fe0
3ff0
fff0
7fe0
3fc0
3f00
1e00
0c00
ENDCHAR
STARTCHAR U+25C7
ENCODING 9671
SWIDTH 1000 0
DWIDTH 12 0
BBX 15 12 -1 -2
BITMAP 
0000
0180
0740
0cc0
1860
7030
c030
6060
31c0
3300
1a00
0c00
ENDCHAR
STARTCHAR U+25C8
ENCODING 9672
SWIDTH 1000 0
DWIDTH 12 0
BBX 15 12 -1 -2
BITMAP 
0060
00d0
03a8
06e8
0df4
1ff8
1be8
0dd0
07a0
0680
0300
0000
ENDCHAR
STARTCHAR U+25C9
ENCODING 9673
SWIDTH 1000 0
DWIDTH 12 0
BBX 15 12 -1 -2
BITMAP 
0000
01e0
0770
0dd8
1be8
3ff8
6fe8
6fe8
77d0
3760
19c0
0f00
ENDCHAR
STARTCHAR U+25CB
ENCODING 9675
SWIDTH 1000 0
DWIDTH 12 0
BBX 15 12 -1 -2
BITMAP 
0000
03c0
0e60
1830
3030
6030
c030
c030
c060
c0c0
7380
1e00
ENDCHAR
STARTCHAR U+25CE
ENCODING 9678
SWIDTH 1000 0
DWIDTH 12 0
BBX 15 12 -1 -2
BITMAP 
0000
03c0
0ee0
1bb0
34d0
78d0
d0d0
d1b0
eb60
6ec0
3380
1e00
ENDCHAR
STARTCHAR U+25CF
ENCODING 9679
SWIDTH 1000 0
DWIDTH 12 0
BBX 15 12 -1 -2
BITMAP 
0000
03c0
0ff0
3ff0
3ff0
7ff8
fff0
fff0
7fe0
ffc0
7f80
1e00
ENDCHAR
STARTCHAR U+25D0
ENCODING 9680
SWIDTH 1000 0
DWIDTH 12 0
BBX 15 12 -1 -2
BITMAP 
01f0
03d8
07cc
1f8c
1f8c
1f8c
3f18
1f30
0f60
0f80
0000
0000
ENDCHAR
STARTCHAR U+25D1
ENCODING 9681
SWIDTH 1000 0
DWIDTH 12 0
BBX 15 12 -1 -2
BITMAP 
01f0
0378
067c
0cfc
18fc
18fc
19f8
19f0
0de0
0780
0000
0000
ENDCHAR
STARTCHAR U+25D2
ENCODING 9682
SWIDTH 1000 0
DWIDTH 12 0
BBX 15 12 -1 -2
BITMAP 
0000
01e0
0730
0c18
1818
300c
7ff8
7ff8
3ff0
7fe0
3fc0
0f00
ENDCHAR
STARTCHAR U+25D3
ENCODING 9683
SWIDTH 1000 0
DWIDTH 12 0
BBX 15 12 -1 -2
BITMAP 
0000
01e0
07f8
1ff8
1ff8
3ffc
7ff8
6018
6030
6060
39c0
0f00
ENDCHAR
STARTCHAR U+25E2
ENCODING 9698
SWIDTH 1000 0
DWIDTH 12 0
BBX 15 12 -1 -2
BITMAP 
0000
0006
000e
003c
007c
00fc
03f8
07f8
0ff8
3ff0
7ff0
fff0
ENDCHAR
STARTCHAR U+25E3
ENCODING 9699
SWIDTH 1000 0
DWIDTH 12 0
BBX 15 12 -1 -2
BITMAP 
0000
3000
3800
7800
7c00
7e00
fe00
ff00
ff80
ff80
ffc0
ffe0
ENDCHAR
STARTCHAR U+25E4
ENCODING 9700
SWIDTH 1000 0
DWIDTH 12 0
BBX 15 12 -1 -2
BITMAP 
0000
3ffc
3ff8
7fe0
7fc0
7f80
fe00
fc00
f800
e000
c000
8000
ENDCHAR
STARTCHAR U+25E5
ENCODING 9701
SWIDTH 1000 0
DWIDTH 12 0
BBX 15 12 -1 -2
BITMAP 
0000
1ffe
0ffe
0ffc
07fc
03fc
03f8
01f8
00f8
00f0
0070
0030
ENDCHAR
STARTCHAR U+25E6
ENCODING 9702
SWIDTH 1000 0
DWIDTH 12 0
BBX 15 12 -1 -2
BITMAP 
0000
0000
0000
03c0
0760
0660
0ec0
0780
0000
0000
0000
0000
ENDCHAR
STARTCHAR U+25EF
ENCODING 9711
SWIDTH 1000 0
DWIDTH 12 0
BBX 15 12 -1 -2
BITMAP 
03e0
0e30
1818
3018
600c
600c
c018
c018
c030
c060
71c0
1f00
ENDCHAR
STARTCHAR U+2600
ENCODING 9728
SWIDTH 1000 0
DWIDTH 12 0
BBX 15 12 -1 -2
BITMAP 
0000
00c0
0cdc
0c30
03c0
07e0
77d8
0fc0
0780
30c0
6660
0600
ENDCHAR
STARTCHAR U+2601
ENCODING 9729
SWIDTH 1000 0
DWIDTH 12 0
BBX 15 12 -1 -2
BITMAP 
0000
0000
03c0
0fc0
1ff8
3ffc
7ff0
7ff8
3df0
03c0
0000
0000
ENDCHAR
STARTCHAR U+2602
ENCODING 9730
SWIDTH 1000 0
DWIDTH 12 0
BBX 15 12 -1 -2
BITMAP 
0000
00c0
00c0
0ff0
1ff8
3ff8
6d58
0300
0300
0600
3600
1c00
ENDCHAR
STARTCHAR U+2603
ENCODING 9731
SWIDTH 1000 0
DWIDTH 12 0
BBX 15 12 -1 -2
BITMAP 
0000
037a
1dfc
36f4
1b78
3f68
6aa8
3330
6030
c630
c630
7fe0
ENDCHAR
STARTCHAR U+2605
ENCODING 9733
SWIDTH 1000 0
DWIDTH 12 0
BBX 15 12 -1 -2
BITMAP 
0000
0180
0180
0780
7ff8
3ff0
3fc0
1f80
3fc0
7b80
e1c0
0000
ENDCHAR
STARTCHAR U+2606
ENCODING 9734
SWIDTH 1000 0
DWIDTH 12 0
BBX 15 12 -1 -2
BITMAP 
0000
0180
0380
0680
7ef8
3070
30c0
1980
36c0
7b80
e1c0
0000
ENDCHAR
STARTCHAR U+2609
ENCODING 9737
SWIDTH 1000 0
DWIDTH 12 0
BBX 15 12 -1 -2
BITMAP 
0000
07f0
0c18
1818
3018
3398
6730
6030
6060
60c0
3f80
0000
ENDCHAR
STARTCHAR U+260E
ENCODING 9742
SWIDTH 1000 0
DWIDTH 12 0
BBX 15 12 -1 -2
BITMAP 
03fc
07fe
0f9e
1ffc
1eec
07b8
0e70
1e78
1ff8
3f70
0000
0000
ENDCHAR
STARTCHAR U+260F
ENCODING 9743
SWIDTH 1000 0
DWIDTH 12 0
BBX 15 12 -1 -2
BITMAP 
03fc
0606
0d78
1b18
1edc
06d8
0d58
1998
1818
3ff0
0000
0000
ENDCHAR
STARTCHAR U+261C
ENCODING 9756
SWIDTH 1000 0
DWIDTH 12 0
BBX 15 12 -1 -2
BITMAP 
07fc
0c06
07e6
060c
03cc
060c
0798
0c18
07f0
0000
0000
0000
ENDCHAR
STARTCHAR U+261E
ENCODING 9758
SWIDTH 1000 0
DWIDTH 12 0
BBX 15 12 -1 -2
BITMAP 
0dfe
0e00
0e7e
1c18
1cf0
1c38
39e0
3830
37e0
0000
0000
0000
ENDCHAR
STARTCHAR U+2640
ENCODING 9792
SWIDTH 1000 0
DWIDTH 12 0
BBX 15 12 -1 -2
BITMAP 
0000
0380
06c0
0cc0
0cc0
0780
0600
0600
3fc0
0c00
0c00
0c00
ENDCHAR
STARTCHAR U+2641
ENCODING 9793
SWIDTH 1000 0
DWIDTH 12 0
BBX 15 12 -1 -2
BITMAP 
0000
07f0
0ed0
1bb8
3398
3ff8
7ff0
6730
6770
76c0
3f80
0000
ENDCHAR
STARTCHAR U+2642
ENCODING 9794
SWIDTH 1000 0
DWIDTH 12 0
BBX 15 12 -1 -2
BITMAP 
0000
00fc
003c
0068
00d8
0398
3e00
6600
6600
6c00
3800
0000
ENDCHAR
STARTCHAR U+2660
ENCODING 9824
SWIDTH 1000 0
DWIDTH 12 0
BBX 15 12 -1 -2
BITMAP 
0060
00f0
01f8
07f8
0ffc
1ffc
3ff8
1ff8
0eb0
0300
0780
0000
ENDCHAR
STARTCHAR U+2661
ENCODING 9825
SWIDTH 1000 0
DWIDTH 12 0
BBX 15 12 -1 -2
BITMAP 
039c
06d6
0c60
1800
1800
180c
1818
0c30
06e0
0680
0300
0000
ENDCHAR
STARTCHAR U+2662
ENCODING 9826
SWIDTH 1000 0
DWIDTH 12 0
BBX 15 12 -1 -2
BITMAP 
0000
00c0
03a0
0660
0c30
1830
1830
1860
0dc0
0d00
0600
0000
ENDCHAR
STARTCHAR U+2663
ENCODING 9827
SWIDTH 1000 0
DWIDTH 12 0
BBX 15 12 -1 -2
BITMAP 
00f0
01f8
01f8
03e8
0eec
1ffc
3ff8
3ff8
1eb8
0300
0780
0000
ENDCHAR
STARTCHAR U+2664
ENCODING 9828
SWIDTH 1000 0
DWIDTH 12 0
BBX 15 12 -1 -2
BITMAP 
0060
00d0
0398
0618
0c0c
1800
1980
1bd8
0eb0
0300
0780
0000
ENDCHAR
STARTCHAR U+2665
ENCODING 9829
SWIDTH 1000 0
DWIDTH 12 0
BBX 15 12 -1 -2
BITMAP 
039c
07de
0ffe
1ffc
1ffc
0ffc
1ff8
0ff0
07e0
0780
0300
0000
ENDCHAR
STARTCHAR U+2666
ENCODING 9830
SWIDTH 1000 0
DWIDTH 12 0
BBX 15 12 -1 -2
BITMAP 
0000
00c0
01e0
07e0
0ff0
1ff8
3ff0
1fe0
0fc0
0f00
0600
0000
ENDCHAR
STARTCHAR U+2667
ENCODING 9831
SWIDTH 1000 0
DWIDTH 12 0
BBX 15 12 -1 -2
BITMAP 
00f0
0198
0198
0318
0eac
1bb0
3000
3340
1fb8
0300
0780
0000
ENDCHAR
STARTCHAR U+2668
ENCODING 9832
SWIDTH 1000 0
DWIDTH 12 0
BBX 15 12 -1 -2
BITMAP 
01a8
0350
0350
03a0
0350
0f6c
1dc0
3000
3c38
3ff0
0fc0
0000
ENDCHAR
STARTCHAR U+2669
ENCODING 9833
SWIDTH 1000 0
DWIDTH 12 0
BBX 15 12 -1 -2
BITMAP 
0060
0060
0060
00c0
00c0
00c0
0180
0180
0380
0f00
0e00
0000
ENDCHAR
STARTCHAR U+266A
ENCODING 9834
SWIDTH 1000 0
DWIDTH 12 0
BBX 15 12 -1 -2
BITMAP 
00c0
00e0
00e0
01b0
01b0
01a0
0340
0300
1f00
7e00
3c00
0000
ENDCHAR
STARTCHAR U+266B
ENCODING 9835
SWIDTH 1000 0
DWIDTH 12 0
BBX 15 12 -1 -2
BITMAP 
0000
03e0
03fc
0678
0618
0618
0c30
0c30
3c30
f9e0
73e0
03c0
ENDCHAR
STARTCHAR U+266C
ENCODING 9836
SWIDTH 1000 0
DWIDTH 12 0
BBX 15 12 -1 -2
BITMAP 
003c
00ec
038c
0678
06d8
0718
0c30
0c70
1cf0
79c0
7000
0000
ENDCHAR
STARTCHAR U+266D
ENCODING 9837
SWIDTH 1000 0
DWIDTH 12 0
BBX 15 12 -1 -2
BITMAP 
0300
0300
0300
0600
0600
07c0
0ec0
0dc0
0d00
1a00
1c00
0000
ENDCHAR
STARTCHAR U+266E
ENCODING 9838
SWIDTH 1000 0
DWIDTH 12 0
BBX 15 12 -1 -2
BITMAP 
0000
0300
0318
06f0
07f0
07b0
0c60
0de0
0fe0
1ec0
18c0
00c0
ENDCHAR
STARTCHAR U+266F
ENCODING 9839
SWIDTH 1000 0
DWIDTH 12 0
BBX 15 12 -1 -2
BITMAP 
0060
0060
0378
07f0
1fc0
1ec0
0de0
0fe0
3f80
7b00
1800
1800
ENDCHAR
STARTCHAR U+2713
ENCODING 10003
SWIDTH 1000 0
DWIDTH 12 0
BBX 15 12 -1 -2
BITMAP 
0000
0000
001c
0030
0060
00c0
0180
7300
1e00
1800
1800
0000
ENDCHAR
STARTCHAR U+2756
ENCODING 10070
SWIDTH 1000 0
DWIDTH 12 0
BBX 15 12 -1 -2
BITMAP 
0000
01c0
03e0
07c0
0da0
1ef0
7ff0
3de0
1bc0
1f00
1f00
0e00
ENDCHAR
STARTCHAR U+2776
ENCODING 10102
SWIDTH 1000 0
DWIDTH 12 0
BBX 15 12 -1 -2
BITMAP 
0000
07f8
0ffc
3f7c
3efc
3f7c
7ef8
7ef8
7ef8
f0f0
7fe0
3fc0
ENDCHAR
STARTCHAR U+2777
ENCODING 10103
SWIDTH 1000 0
DWIDTH 12 0
BBX 15 12 -1 -2
BITMAP 
0000
07f8
0ffc
3e7c
3ddc
3fbc
7ef8
7df8
7bf8
f0f0
7fe0
3fc0
ENDCHAR
STARTCHAR U+2778
ENCODING 10104
SWIDTH 1000 0
DWIDTH 12 0
BBX 15 12 -1 -2
BITMAP 
0000
07f8
0ffc
3e7c
3ddc
3fdc
7ef8
7fb8
7fb8
f9f0
7fe0
3fc0
ENDCHAR
STARTCHAR U+2779
ENCODING 10105
SWIDTH 1000 0
DWIDTH 12 0
BBX 15 12 -1 -2
BITMAP 
0000
07f8
0ffc
3f7c
3efc
3d7c
76f8
7078
7ef8
f9f0
7fe0
3fc0
ENDCHAR
STARTCHAR U+277A
ENCODING 10106
SWIDTH 1000 0
DWIDTH 12 0
BBX 15 12 -1 -2
BITMAP 
0000
07f8
0ffc
3c3c
3dfc
3dfc
78f8
7fb8
7fb8
f9f0
7fe0
3fc0
ENDCHAR
STARTCHAR U+277B
ENCODING 10107
SWIDTH 1000 0
DWIDTH 12 0
BBX 15 12 -1 -2
BITMAP 
0000
07f8
0ffc
3e7c
3ddc
3dfc
78f8
7bb8
7fb8
f9f0
7fe0
3fc0
ENDCHAR
STARTCHAR U+277C
ENCODING 10108
SWIDTH 1000 0
DWIDTH 12 0
BBX 15 12 -1 -2
BITMAP 
0000
07f8
0ffc
3c3c
3ddc
3ffc
7f78
7ef8
7ef8
fdf0
7fe0
3fc0
ENDCHAR
STARTCHAR U+277D
ENCODING 10109
SWIDTH 1000 0
DWIDTH 12 0
BBX 15 12 -1 -2
BITMAP 
0000
07f8
0ffc
3e7c
3ddc
3fdc
7cf8
7bb8
7fb8
f9f0
7fe0
3fc0
ENDCHAR
STARTCHAR U+277E
ENCODING 10110
SWIDTH 1000 0
DWIDTH 12 0
BBX 15 12 -1 -2
BITMAP 
0000
07f8
0ffc
3e7c
3ddc
3fdc
7c78
7fb8
7fb8
f9f0
7fe0
3fc0
ENDCHAR
STARTCHAR U+277F
ENCODING 10111
SWIDTH 1000 0
DWIDTH 12 0
BBX 15 12 -1 -2
BITMAP 
0000
07f8
0ffc
3dbc
3b6c
3d6c
7ad8
7ad8
7bd8
e6f0
7fe0
3fc0
ENDCHAR
STARTCHAR U+3000
ENCODING 12288
SWIDTH 1000 0
DWIDTH 12 0
BBX 15 12 -1 -2
BITMAP 
0000
0000
0000
0000
0000
0000
0000
0000
0000
0000
0000
0000
ENDCHAR
STARTCHAR U+3001
ENCODING 12289
SWIDTH 1000 0
DWIDTH 12 0
BBX 15 12 -1 -2
BITMAP 
0000
0000
0000
0000
0000
0000
0000
0000
0000
c000
6000
6000
ENDCHAR
STARTCHAR U+3002
ENCODING 12290
SWIDTH 1000 0
DWIDTH 12 0
BBX 15 12 -1 -2
BITMAP 
0000
0000
0000
0000
0000
0000
0000
0000
0000
7000
d800
7000
ENDCHAR
STARTCHAR U+3003
ENCODING 12291
SWIDTH 1000 0
DWIDTH 12 0
BBX 15 12 -1 -2
BITMAP 
0000
0000
0000
06c0
06c0
0cc0
0d80
1b00
3600
0000
0000
0000
ENDCHAR
STARTCHAR U+3005
ENCODING 12293
SWIDTH 1000 0
DWIDTH 12 0
BBX 15 12 -1 -2
BITMAP 
0000
0000
0300
07e0
0660
0cc0
3980
6d00
0700
0300
0180
0000
ENDCHAR
STARTCHAR U+3006
ENCODING 12294
SWIDTH 1000 0
DWIDTH 12 0
BBX 15 12 -1 -2
BITMAP 
0000
0018
0030
0060
00c0
1d80
3700
6d80
7800
e000
0000
0000
ENDCHAR
STARTCHAR U+3007
ENCODING 12295
SWIDTH 1000 0
DWIDTH 12 0
BBX 15 12 -1 -2
BITMAP 
0000
03c0
0e60
1830
3030
6030
c030
c030
c060
c0c0
7380
1e00
ENDCHAR
STARTCHAR U+3008
ENCODING 12296
SWIDTH 1000 0
DWIDTH 12 0
BBX 15 12 -1 -2
BITMAP 
0018
0030
0060
0060
00c0
0180
0180
0180
0180
0180
0180
00c0
ENDCHAR
STARTCHAR U+3009
ENCODING 12297
SWIDTH 1000 0
DWIDTH 12 0
BBX 15 12 -1 -2
BITMAP 
0c00
0600
0600
0600
0600
0600
0600
0c00
1800
1800
3000
6000
ENDCHAR
STARTCHAR U+300A
ENCODING 12298
SWIDTH 1000 0
DWIDTH 12 0
BBX 15 12 -1 -2
BITMAP 
00d8
01b0
0330
0360
06c0
0d80
0d80
0d80
0d80
0d80
0d80
06c0
ENDCHAR
STARTCHAR U+300B
ENCODING 12299
SWIDTH 1000 0
DWIDTH 12 0
BBX 15 12 -1 -2
BITMAP 
0d80
06c0
06c0
06c0
06c0
06c0
06c0
0d80
1980
1b00
3600
6c00
ENDCHAR
STARTCHAR U+300C
ENCODING 12300
SWIDTH 1000 0
DWIDTH 12 0
BBX 15 12 -1 -2
BITMAP 
00f8
00c0
00c0
0180
0180
0180
0300
0300
0000
0000
0000
0000
ENDCHAR
STARTCHAR U+300D
ENCODING 12301
SWIDTH 1000 0
DWIDTH 12 0
BBX 15 12 -1 -2
BITMAP 
0000
0000
0000
0000
0300
0300
0600
0600
0600
0c00
0c00
7c00
ENDCHAR
STARTCHAR U+300E
ENCODING 12302
SWIDTH 1000 0
DWIDTH 12 0
BBX 15 12 -1 -2
BITMAP 
01f8
0198
01b8
0340
0340
0340
0680
0780
0000
0000
0000
0000
ENDCHAR
STARTCHAR U+300F
ENCODING 12303
SWIDTH 1000 0
DWIDTH 12 0
BBX 15 12 -1 -2
BITMAP 
0000
0000
0000
0000
0780
0680
0d00
0d00
0d00
7a00
6600
7e00
ENDCHAR
STARTCHAR U+3010
ENCODING 12304
SWIDTH 1000 0
DWIDTH 12 0
BBX 15 12 -1 -2
BITMAP 
00f8
00f0
00f0
01c0
01c0
01c0
0380
0380
0380
0780
0780
07c0
ENDCHAR
STARTCHAR U+3011
ENCODING 12305
SWIDTH 1000 0
DWIDTH 12 0
BBX 15 12 -1 -2
BITMAP 
0f80
0780
0780
0700
0700
0700
0e00
0e00
0e00
3c00
3c00
7c00
ENDCHAR
STARTCHAR U+3012
ENCODING 12306
SWIDTH 1000 0
DWIDTH 12 0
BBX 15 12 -1 -2
BITMAP 
0000
1ffc
1ffc
0000
7ffc
7ffc
0700
0700
0700
0e00
0e00
0e00
ENDCHAR
STARTCHAR U+3013
ENCODING 12307
SWIDTH 1000 0
DWIDTH 12 0
BBX 15 12 -1 -2
BITMAP 
0000
0000
0000
7ffc
7ffc
0000
0000
fff8
fff8
0000
0000
0000
ENDCHAR
STARTCHAR U+3014
ENCODING 12308
SWIDTH 1000 0
DWIDTH 12 0
BBX 15 12 -1 -2
BITMAP 
0038
00e0
00c0
0180
0180
0180
0300
0300
0300
0600
0700
01c0
ENDCHAR
STARTCHAR U+3015
ENCODING 12309
SWIDTH 1000 0
DWIDTH 12 0
BBX 15 12 -1 -2
BITMAP 
0e00
0380
0180
0300
0300
0300
0600
0600
0600
0c00
1c00
7000
ENDCHAR
STARTCHAR U+3016
ENCODING 12310
SWIDTH 1000 0
DWIDTH 12 0
BBX 15 12 -1 -2
BITMAP 
00fc
00d8
00d0
01a0
01c0
01c0
0380
0380
0380
0680
06c0
07e0
ENDCHAR
STARTCHAR U+3017
ENCODING 12311
SWIDTH 1000 0
DWIDTH 12 0
BBX 15 12 -1 -2
BITMAP 
0fc0
06c0
06c0
0680
0380
0380
0700
0700
0d00
1a00
3600
7e00
ENDCHAR
STARTCHAR U+3018
ENCODING 12312
SWIDTH 1000 0
DWIDTH 12 0
BBX 15 12 -1 -2
BITMAP 
001c
00f0
00dc
01b0
01a0
01a0
0340
0340
0340
06e0
0780
00e0
ENDCHAR
STARTCHAR U+3019
ENCODING 12313
SWIDTH 1000 0
DWIDTH 12 0
BBX 15 12 -1 -2
BITMAP 
0e00
03c0
0cc0
0680
0680
0680
0d00
0d00
1b00
7600
1e00
7000
ENDCHAR
STARTCHAR U+301C
ENCODING 12316
SWIDTH 1000 0
DWIDTH 12 0
BBX 15 12 -1 -2
BITMAP 
0000
0000
0000
0000
1e00
3300
0330
01e0
0000
0000
0000
0000
ENDCHAR
STARTCHAR U+301D
ENCODING 12317
SWIDTH 1000 0
DWIDTH 12 0
BBX 15 12 -1 -2
BITMAP 
0000
0038
01d8
0198
00c0
0000
0000
0000
0000
0000
0000
0000
ENDCHAR
STARTCHAR U+301E
ENCODING 12318
SWIDTH 1000 0
DWIDTH 12 0
BBX 15 12 -1 -2
BITMAP 
0000
00ec
01b8
0360
0000
0000
0000
0000
0000
0000
0000
0000
ENDCHAR
STARTCHAR U+301F
ENCODING 12319
SWIDTH 1000 0
DWIDTH 12 0
BBX 15 12 -1 -2
BITMAP 
0000
0000
0000
0000
0000
0000
0000
0000
0c00
cc00
6e00
7000
ENDCHAR
STARTCHAR U+3020
ENCODING 12320
SWIDTH 1000 0
DWIDTH 12 0
BBX 15 12 -1 -2
BITMAP 
0000
0ffc
0000
1ff8
1998
3db4
77b8
6d58
75a0
6760
30c0
1f80
ENDCHAR
STARTCHAR U+3021
ENCODING 12321
SWIDTH 1000 0
DWIDTH 12 0
BBX 15 12 -1 -2
BITMAP 
0000
01c0
01c0
0380
0380
0380
0700
0700
0700
0e00
0e00
0600
ENDCHAR
STARTCHAR U+3022
ENCODING 12322
SWIDTH 1000 0
DWIDTH 12 0
BBX 15 12 -1 -2
BITMAP 
0000
0060
0360
06c0
06c0
06c0
0d80
0d80
0d80
1b00
0300
0300
ENDCHAR
STARTCHAR U+3023
ENCODING 12323
SWIDTH 1000 0
DWIDTH 12 0
BBX 15 12 -1 -2
BITMAP 
0000
0038
0e38
1db0
1db0
1db0
3b60
3b60
3b60
76c0
01c0
00c0
ENDCHAR
STARTCHAR U+3024
ENCODING 12324
SWIDTH 1000 0
DWIDTH 12 0
BBX 15 12 -1 -2
BITMAP 
0000
1818
1838
1ce0
0ec0
0780
0f00
1d80
3980
61c0
c0c0
0000
ENDCHAR
STARTCHAR U+3025
ENCODING 12325
SWIDTH 1000 0
DWIDTH 12 0
BBX 15 12 -1 -2
BITMAP 
0000
0000
01d8
0760
07c0
03c0
0680
0dc0
0dc0
1b80
1f00
0000
ENDCHAR
STARTCHAR U+3026
ENCODING 12326
SWIDTH 1000 0
DWIDTH 12 0
BBX 15 12 -1 -2
BITMAP 
0000
0000
0180
0380
0380
03b0
7ff0
3ff0
0000
0000
0000
0000
ENDCHAR
STARTCHAR U+3027
ENCODING 12327
SWIDTH 1000 0
DWIDTH 12 0
BBX 15 12 -1 -2
BITMAP 
0000
0000
01c0
0380
3ff0
3ff8
0000
1fc0
3fe0
0000
0000
0000
ENDCHAR
STARTCHAR U+3028
ENCODING 12328
SWIDTH 1000 0
DWIDTH 12 0
BBX 15 12 -1 -2
BITMAP 
0000
0380
0380
0740
3fe0
0000
0000
3f80
0000
00c0
ffe0
0000
ENDCHAR
STARTCHAR U+3029
ENCODING 12329
SWIDTH 1000 0
DWIDTH 12 0
BBX 15 12 -1 -2
BITMAP 
0000
0180
0300
0ff0
1ff0
0ce0
0d80
0700
0f00
1980
71e0
0000
ENDCHAR
STARTCHAR U+3033
ENCODING 12339
SWIDTH 1000 0
DWIDTH 12 0
BBX 15 12 -1 -2
BITMAP 
0000
0000
0000
0000
0e00
1b80
00c0
0060
0030
0030
0000
0000
ENDCHAR
STARTCHAR U+3034
ENCODING 12340
SWIDTH 1000 0
DWIDTH 12 0
BBX 15 12 -1 -2
BITMAP 
0000
00e0
0180
00e0
0e80
1b80
00c0
0060
0030
0030
0000
0000
ENDCHAR
STARTCHAR U+3035
ENCODING 12341
SWIDTH 1000 0
DWIDTH 12 0
BBX 15 12 -1 -2
BITMAP 
0000
0000
0000
0000
00f0
0380
0e00
3800
e000
8000
0000
0000
ENDCHAR
STARTCHAR U+3041
ENCODING 12353
SWIDTH 1000 0
DWIDTH 12 0
BBX 15 12 -1 -2
BITMAP 
0000
0000
0000
0000
0600
0f80
0d00
1f80
3e80
6980
3300
0000
ENDCHAR
STARTCHAR U+3042
ENCODING 12354
SWIDTH 1000 0
DWIDTH 12 0
BBX 15 12 -1 -2
BITMAP 
0300
0300
0fe0
0600
07c0
0d60
3b60
6a60
6ec0
6980
3700
0000
ENDCHAR
STARTCHAR U+3043
ENCODING 12355
SWIDTH 1000 0
DWIDTH 12 0
BBX 15 12 -1 -2
BITMAP 
0000
0000
0000
0000
0000
1800
1b00
3180
3580
3800
0000
0000
ENDCHAR
STARTCHAR U+3044
ENCODING 12356
SWIDTH 1000 0
DWIDTH 12 0
BBX 15 12 -1 -2
BITMAP 
0000
0000
1800
18c0
3060
3060
6060
6c60
3860
3000
0000
0000
ENDCHAR
STARTCHAR U+3045
ENCODING 12357
SWIDTH 1000 0
DWIDTH 12 0
BBX 15 12 -1 -2
BITMAP 
0000
0000
0000
0000
0c00
0700
1e00
3300
0600
0c00
3800
0000
ENDCHAR
STARTCHAR U+3046
ENCODING 12358
SWIDTH 1000 0
DWIDTH 12 0
BBX 15 12 -1 -2
BITMAP 
0300
01c0
0000
0780
1cc0
00c0
00c0
0180
0300
0e00
3800
0000
ENDCHAR
STARTCHAR U+3047
ENCODING 12359
SWIDTH 1000 0
DWIDTH 12 0
BBX 15 12 -1 -2
BITMAP 
0000
0000
0000
0000
0c00
0600
3f00
0600
3800
6c00
cf00
0000
ENDCHAR
STARTCHAR U+3048
ENCODING 12360
SWIDTH 1000 0
DWIDTH 12 0
BBX 15 12 -1 -2
BITMAP 
0300
01c0
0000
0fc0
0180
0300
0600
0e00
3a00
6600
c3c0
0000
ENDCHAR
STARTCHAR U+3049
ENCODING 12361
SWIDTH 1000 0
DWIDTH 12 0
BBX 15 12 -1 -2
BITMAP 
0000
0000
0000
0000
0600
1f40
0cc0
0e00
3d00
6b00
3600
0000
ENDCHAR
STARTCHAR U+304A
ENCODING 12362
SWIDTH 1000 0
DWIDTH 12 0
BBX 15 12 -1 -2
BITMAP 
0300
0300
03d8
3e18
0618
0780
1cc0
3460
6cc0
6980
3700
0000
ENDCHAR
STARTCHAR U+304B
ENCODING 12363
SWIDTH 1000 0
DWIDTH 12 0
BBX 15 12 -1 -2
BITMAP 
0000
0600
0630
3f30
0db0
19b0
1b30
3300
7300
d600
1c00
0000
ENDCHAR
STARTCHAR U+304C
ENCODING 12364
SWIDTH 1000 0
DWIDTH 12 0
BBX 15 12 -1 -2
BITMAP 
0000
0634
0638
3f18
0db0
19b0
1b30
3300
7300
d600
1c00
0000
ENDCHAR
STARTCHAR U+304D
ENCODING 12365
SWIDTH 1000 0
DWIDTH 12 0
BBX 15 12 -1 -2
BITMAP 
0180
01e0
0f80
01e0
1f80
00c0
0f40
19c0
3000
3000
1f00
0000
ENDCHAR
STARTCHAR U+304E
ENCODING 12366
SWIDTH 1000 0
DWIDTH 12 0
BBX 15 12 -1 -2
BITMAP 
01a8
01e8
0f80
01e0
1f80
00c0
0f40
19c0
3000
3000
1f00
0000
ENDCHAR
STARTCHAR U+304F
ENCODING 12367
SWIDTH 1000 0
DWIDTH 12 0
BBX 15 12 -1 -2
BITMAP 
0000
00c0
0180
0300
0600
0c00
0c00
0c00
0600
0600
0600
0000
ENDCHAR
STARTCHAR U+3050
ENCODING 12368
SWIDTH 1000 0
DWIDTH 12 0
BBX 15 12 -1 -2
BITMAP 
0000
0180
03b0
06a0
0c00
1800
1800
1800
0c00
0c00
0c00
0000
ENDCHAR
STARTCHAR U+3051
ENCODING 12369
SWIDTH 1000 0
DWIDTH 12 0
BBX 15 12 -1 -2
BITMAP 
0030
0c30
183c
1be0
3060
3060
60c0
68c0
3180
0300
0e00
0000
ENDCHAR
STARTCHAR U+3052
ENCODING 12370
SWIDTH 1000 0
DWIDTH 12 0
BBX 15 12 -1 -2
BITMAP 
006a
0c6a
183c
1be0
3060
3060
60c0
68c0
3180
0300
0e00
0000
ENDCHAR
STARTCHAR U+3053
ENCODING 12371
SWIDTH 1000 0
DWIDTH 12 0
BBX 15 12 -1 -2
BITMAP 
0000
0600
03f0
0000
0000
0000
0000
3000
30e0
1f80
0000
0000
ENDCHAR
STARTCHAR U+3054
ENCODING 12372
SWIDTH 1000 0
DWIDTH 12 0
BBX 15 12 -1 -2
BITMAP 
0000
0c68
07e8
0000
0000
0000
0000
6000
61c0
3f00
0000
0000
ENDCHAR
STARTCHAR U+3055
ENCODING 12373
SWIDTH 1000 0
DWIDTH 12 0
BBX 15 12 -1 -2
BITMAP 
0180
0180
00f8
1fc0
0180
00c0
1f40
31c0
3000
1800
0f00
0000
ENDCHAR
STARTCHAR U+3056
ENCODING 12374
SWIDTH 1000 0
DWIDTH 12 0
BBX 15 12 -1 -2
BITMAP 
0368
0368
01f0
3f80
0300
0180
3e80
6380
6000
3000
1e00
0000
ENDCHAR
STARTCHAR U+3057
ENCODING 12375
SWIDTH 1000 0
DWIDTH 12 0
BBX 15 12 -1 -2
BITMAP 
0000
0600
0600
0c00
0c00
0c00
1800
1800
18e0
1b80
0e00
0000
ENDCHAR
STARTCHAR U+3058
ENCODING 12376
SWIDTH 1000 0
DWIDTH 12 0
BBX 15 12 -1 -2
BITMAP 
0000
0600
0668
0cd0
0c00
0c00
1800
1800
18e0
1b80
0e00
0000
ENDCHAR
STARTCHAR U+3059
ENCODING 12377
SWIDTH 1000 0
DWIDTH 12 0
BBX 15 12 -1 -2
BITMAP 
00c0
00c0
1ff8
0180
0780
0d80
0d00
0700
0700
0c00
3800
0000
ENDCHAR
STARTCHAR U+305A
ENCODING 12378
SWIDTH 1000 0
DWIDTH 12 0
BBX 15 12 -1 -2
BITMAP 
00d4
00d4
1ff8
0180
0780
0d80
0d00
0700
0700
0c00
3800
0000
ENDCHAR
STARTCHAR U+305B
ENCODING 12379
SWIDTH 1000 0
DWIDTH 12 0
BBX 15 12 -1 -2
BITMAP 
0000
0060
0660
0cf8
3fc0
0cc0
1980
1b00
1800
1800
0f80
0000
ENDCHAR
STARTCHAR U+305C
ENCODING 12380
SWIDTH 1000 0
DWIDTH 12 0
BBX 15 12 -1 -2
BITMAP 
0000
00d4
0cd4
19e0
7f80
1980
3300
3600
3000
3000
1f00
0000
ENDCHAR
STARTCHAR U+305D
ENCODING 12381
SWIDTH 1000 0
DWIDTH 12 0
BBX 15 12 -1 -2
BITMAP 
0000
07e0
01c0
0300
06f0
3f80
0600
0c00
0c00
0c00
0700
0000
ENDCHAR
STARTCHAR U+305E
ENCODING 12382
SWIDTH 1000 0
DWIDTH 12 0
BBX 15 12 -1 -2
BITMAP 
0000
07f4
01d4
0300
06f0
3f80
0600
0c00
0c00
0c00
0700
0000
ENDCHAR
STARTCHAR U+305F
ENCODING 12383
SWIDTH 1000 0
DWIDTH 12 0
BBX 15 12 -1 -2
BITMAP 
0300
0300
1fc0
0c00
0c70
19c0
1800
3000
6600
6600
c3c0
0000
ENDCHAR
STARTCHAR U+3060
ENCODING 12384
SWIDTH 1000 0
DWIDTH 12 0
BBX 15 12 -1 -2
BITMAP 
0300
0334
1fd4
0c00
0c70
19c0
1800
3000
6600
6600
c3c0
0000
ENDCHAR
STARTCHAR U+3061
ENCODING 12385
SWIDTH 1000 0
DWIDTH 12 0
BBX 15 12 -1 -2
BITMAP 
0600
0600
1fe0
0c00
0c00
1b00
3d80
30c0
0180
0700
3c00
0000
ENDCHAR
STARTCHAR U+3062
ENCODING 12386
SWIDTH 1000 0
DWIDTH 12 0
BBX 15 12 -1 -2
BITMAP 
0600
0668
1fe8
0c00
0c00
1b00
3d80
30c0
0180
0700
3c00
0000
ENDCHAR
STARTCHAR U+3063
ENCODING 12387
SWIDTH 1000 0
DWIDTH 12 0
BBX 15 12 -1 -2
BITMAP 
0000
0000
0000
0000
0000
0000
0f00
3980
0300
0600
1c00
0000
ENDCHAR
STARTCHAR U+3064
ENCODING 12388
SWIDTH 1000 0
DWIDTH 12 0
BBX 15 12 -1 -2
BITMAP 
0000
0000
07c0
7c60
0030
0060
00c0
0380
0e00
0000
0000
0000
ENDCHAR
STARTCHAR U+3065
ENCODING 12389
SWIDTH 1000 0
DWIDTH 12 0
BBX 15 12 -1 -2
BITMAP 
0000
0034
0fec
78c0
0060
00c0
0180
0700
1c00
0000
0000
0000
ENDCHAR
STARTCHAR U+3066
ENCODING 12390
SWIDTH 1000 0
DWIDTH 12 0
BBX 15 12 -1 -2
BITMAP 
0000
0078
1fc0
0180
0300
0600
0c00
0c00
0600
0380
0000
0000
ENDCHAR
STARTCHAR U+3067
ENCODING 12391
SWIDTH 1000 0
DWIDTH 12 0
BBX 15 12 -1 -2
BITMAP 
0000
00f0
3f80
0350
06d0
0c00
1800
1800
0c00
0700
0000
0000
ENDCHAR
STARTCHAR U+3068
ENCODING 12392
SWIDTH 1000 0
DWIDTH 12 0
BBX 15 12 -1 -2
BITMAP 
0000
0300
0300
0300
0370
03c0
0e00
1800
3000
3000
1fc0
0000
ENDCHAR
STARTCHAR U+3069
ENCODING 12393
SWIDTH 1000 0
DWIDTH 12 0
BBX 15 12 -1 -2
BITMAP 
0000
0334
0334
0300
0370
03c0
0e00
1800
3000
3000
1fc0
0000
ENDCHAR
STARTCHAR U+306A
ENCODING 12394
SWIDTH 1000 0
DWIDTH 12 0
BBX 15 12 -1 -2
BITMAP 
0300
0300
0fd8
0c38
0c60
1860
30c0
67c0
0ce0
0da0
0700
0000
ENDCHAR
STARTCHAR U+306B
ENCODING 12395
SWIDTH 1000 0
DWIDTH 12 0
BBX 15 12 -1 -2
BITMAP 
0000
0c00
18f0
1b80
3000
3000
6000
6600
6600
73c0
6000
0000
ENDCHAR
STARTCHAR U+306C
ENCODING 12396
SWIDTH 1000 0
DWIDTH 12 0
BBX 15 12 -1 -2
BITMAP 
0000
00c0
0cc0
1be0
1db0
1b30
3b30
6a30
6de0
6a60
33c0
0000
ENDCHAR
STARTCHAR U+306D
ENCODING 12397
SWIDTH 1000 0
DWIDTH 12 0
BBX 15 12 -1 -2
BITMAP 
0600
0600
0600
3ee0
0d30
0e30
1860
3860
7be0
d6e0
3380
0000
ENDCHAR
STARTCHAR U+306E
ENCODING 12398
SWIDTH 1000 0
DWIDTH 12 0
BBX 15 12 -1 -2
BITMAP 
0000
03e0
0eb0
1b30
3318
3618
6630
6c60
39c0
0700
0000
0000
ENDCHAR
STARTCHAR U+306F
ENCODING 12399
SWIDTH 1000 0
DWIDTH 12 0
BBX 15 12 -1 -2
BITMAP 
0000
0c30
183c
1be0
3060
3060
60c0
67c0
6ce0
75a0
6700
0000
ENDCHAR
STARTCHAR U+3070
ENCODING 12400
SWIDTH 1000 0
DWIDTH 12 0
BBX 15 12 -1 -2
BITMAP 
001a
0c3a
1830
1bf0
3060
3060
60c0
67c0
6ce0
75a0
6700
0000
ENDCHAR
STARTCHAR U+3071
ENCODING 12401
SWIDTH 1000 0
DWIDTH 12 0
BBX 15 12 -1 -2
BITMAP 
001c
0c36
183c
1be0
3060
3060
60c0
67c0
6ce0
75a0
6700
0000
ENDCHAR
STARTCHAR U+3072
ENCODING 12402
SWIDTH 1000 0
DWIDTH 12 0
BBX 15 12 -1 -2
BITMAP 
0000
00c0
0780
0660
0c60
1870
18d0
30c0
3180
3300
1e00
0000
ENDCHAR
STARTCHAR U+3073
ENCODING 12403
SWIDTH 1000 0
DWIDTH 12 0
BBX 15 12 -1 -2
BITMAP 
0000
019a
0f1a
0cc0
18c0
30e0
31a0
6180
6300
6600
3c00
0000
ENDCHAR
STARTCHAR U+3074
ENCODING 12404
SWIDTH 1000 0
DWIDTH 12 0
BBX 15 12 -1 -2
BITMAP 
001c
0336
1e1c
0cc0
18c0
30e0
31a0
6180
6300
6600
3c00
0000
ENDCHAR
STARTCHAR U+3075
ENCODING 12405
SWIDTH 1000 0
DWIDTH 12 0
BBX 15 12 -1 -2
BITMAP 
0000
0300
01e0
0000
0300
0360
1b60
1b30
7330
d300
1e00
0000
ENDCHAR
STARTCHAR U+3076
ENCODING 12406
SWIDTH 1000 0
DWIDTH 12 0
BBX 15 12 -1 -2
BITMAP 
0000
0334
01f4
0000
0300
0360
1b60
1b30
7330
d300
1e00
0000
ENDCHAR
STARTCHAR U+3077
ENCODING 12407
SWIDTH 1000 0
DWIDTH 12 0
BBX 15 12 -1 -2
BITMAP 
0000
031c
01f6
0018
0300
0360
1b60
1b30
7330
d300
1e00
0000
ENDCHAR
STARTCHAR U+3078
ENCODING 12408
SWIDTH 1000 0
DWIDTH 12 0
BBX 15 12 -1 -2
BITMAP 
0000
0000
0000
0700
0d80
38c0
00c0
0060
0030
0000
0000
0000
ENDCHAR
STARTCHAR U+3079
ENCODING 12409
SWIDTH 1000 0
DWIDTH 12 0
BBX 15 12 -1 -2
BITMAP 
0000
0034
0034
0700
0d80
38c0
00c0
0060
0030
0000
0000
0000
ENDCHAR
STARTCHAR U+307A
ENCODING 12410
SWIDTH 1000 0
DWIDTH 12 0
BBX 15 12 -1 -2
BITMAP 
0000
0038
006c
0730
0d80
38c0
e0c0
0060
0030
0000
0000
0000
ENDCHAR
STARTCHAR U+307B
ENCODING 12411
SWIDTH 1000 0
DWIDTH 12 0
BBX 15 12 -1 -2
BITMAP 
0000
0dfc
1830
1860
33f0
3060
60c0
67c0
6ce0
75a0
6700
0000
ENDCHAR
STARTCHAR U+307C
ENCODING 12412
SWIDTH 1000 0
DWIDTH 12 0
BBX 15 12 -1 -2
BITMAP 
001a
0dfa
1830
1860
33f0
3060
60c0
67c0
6ce0
75a0
6700
0000
ENDCHAR
STARTCHAR U+307D
ENCODING 12413
SWIDTH 1000 0
DWIDTH 12 0
BBX 15 12 -1 -2
BITMAP 
001c
0df6
183c
1860
33f0
3060
60c0
67c0
6ce0
75a0
6700
0000
ENDCHAR
STARTCHAR U+307E
ENCODING 12414
SWIDTH 1000 0
DWIDTH 12 0
BBX 15 12 -1 -2
BITMAP 
00c0
00c0
0ff8
0180
01e0
1f80
0300
1f00
3380
36c0
1c00
0000
ENDCHAR
STARTCHAR U+307F
ENCODING 12415
SWIDTH 1000 0
DWIDTH 12 0
BBX 15 12 -1 -2
BITMAP 
0000
0f80
0180
0360
0360
1fe0
34e0
6cd0
6980
7300
0600
0000
ENDCHAR
STARTCHAR U+3080
ENCODING 12416
SWIDTH 1000 0
DWIDTH 12 0
BBX 15 12 -1 -2
BITMAP 
0300
0300
1fb0
0618
1e00
3400
6c00
6860
3860
18c0
0f80
0000
ENDCHAR
STARTCHAR U+3081
ENCODING 12417
SWIDTH 1000 0
DWIDTH 12 0
BBX 15 12 -1 -2
BITMAP 
0000
00c0
0de0
1aa0
1db0
1b30
3a30
6c30
6860
71c0
0700
0000
ENDCHAR
STARTCHAR U+3082
ENCODING 12418
SWIDTH 1000 0
DWIDTH 12 0
BBX 15 12 -1 -2
BITMAP 
0300
0300
0fc0
0600
0cc0
3f80
1800
18c0
1980
1b00
0e00
0000
ENDCHAR
STARTCHAR U+3083
ENCODING 12419
SWIDTH 1000 0
DWIDTH 12 0
BBX 15 12 -1 -2
BITMAP 
0000
0000
0000
0000
0680
07e0
3ea0
0c60
0dc0
0c00
0c00
0000
ENDCHAR
STARTCHAR U+3084
ENCODING 12420
SWIDTH 1000 0
DWIDTH 12 0
BBX 15 12 -1 -2
BITMAP 
0180
0d80
0ce0
0db0
1e98
7470
0dc0
0c00
0c00
0c00
0c00
0000
ENDCHAR
STARTCHAR U+3085
ENCODING 12421
SWIDTH 1000 0
DWIDTH 12 0
BBX 15 12 -1 -2
BITMAP 
0000
0000
0000
0000
0180
0dc0
1b60
1d60
1bc0
0600
0c00
0000
ENDCHAR
STARTCHAR U+3086
ENCODING 12422
SWIDTH 1000 0
DWIDTH 12 0
BBX 15 12 -1 -2
BITMAP 
00c0
00c0
1be0
36b0
3598
39b0
7560
67c0
6700
0c00
1800
0000
ENDCHAR
STARTCHAR U+3087
ENCODING 12423
SWIDTH 1000 0
DWIDTH 12 0
BBX 15 12 -1 -2
BITMAP 
0000
0000
0000
0000
0300
03c0
0600
0600
3f00
6d80
3800
0000
ENDCHAR
STARTCHAR U+3088
ENCODING 12424
SWIDTH 1000 0
DWIDTH 12 0
BBX 15 12 -1 -2
BITMAP 
0180
0180
0180
03e0
0300
0300
0600
3e00
6780
6cc0
3800
0000
ENDCHAR
STARTCHAR U+3089
ENCODING 12425
SWIDTH 1000 0
DWIDTH 12 0
BBX 15 12 -1 -2
BITMAP 
0300
01c0
0000
1800
1800
1f80
38c0
30c0
0180
0700
3c00
0000
ENDCHAR
STARTCHAR U+308A
ENCODING 12426
SWIDTH 1000 0
DWIDTH 12 0
BBX 15 12 -1 -2
BITMAP 
0060
0330
0630
0660
0c60
0c60
0ec0
0cc0
0180
0300
0e00
0000
ENDCHAR
STARTCHAR U+308B
ENCODING 12427
SWIDTH 1000 0
DWIDTH 12 0
BBX 15 12 -1 -2
BITMAP 
0000
07e0
01c0
0300
07c0
1e60
3060
6060
1dc0
3700
1e00
0000
ENDCHAR
STARTCHAR U+308C
ENCODING 12428
SWIDTH 1000 0
DWIDTH 12 0
BBX 15 12 -1 -2
BITMAP 
0600
0600
06c0
0d60
3e60
0c60
18c0
38c0
78c0
d060
3000
0000
ENDCHAR
STARTCHAR U+308D
ENCODING 12429
SWIDTH 1000 0
DWIDTH 12 0
BBX 15 12 -1 -2
BITMAP 
0000
07e0
01c0
0300
07c0
1e60
3060
6060
00c0
0380
1e00
0000
ENDCHAR
STARTCHAR U+308E
ENCODING 12430
SWIDTH 1000 0
DWIDTH 12 0
BBX 15 12 -1 -2
BITMAP 
0000
0000
0000
0000
0600
0f00
0dc0
0e60
3cc0
6980
1b00
0000
ENDCHAR
STARTCHAR U+308F
ENCODING 12431
SWIDTH 1000 0
DWIDTH 12 0
BBX 15 12 -1 -2
BITMAP 
0600
0600
0600
0ee0
3d30
0e30
1830
3860
68c0
3380
3000
0000
ENDCHAR
STARTCHAR U+3090
ENCODING 12432
SWIDTH 1000 0
DWIDTH 12 0
BBX 15 12 -1 -2
BITMAP 
0000
07c0
00c0
0180
07e0
1e30
3630
6c30
6f60
75c0
0780
0000
ENDCHAR
STARTCHAR U+3091
ENCODING 12433
SWIDTH 1000 0
DWIDTH 12 0
BBX 15 12 -1 -2
BITMAP 
0000
07f0
00c0
07e0
0c30
1b60
0dc0
0700
0000
6dc0
c760
0000
ENDCHAR
STARTCHAR U+3092
ENCODING 12434
SWIDTH 1000 0
DWIDTH 12 0
BBX 15 12 -1 -2
BITMAP 
0180
0180
0fe0
0600
0c70
3ec0
6700
0d00
1b00
1800
0f80
0000
ENDCHAR
STARTCHAR U+3093
ENCODING 12435
SWIDTH 1000 0
DWIDTH 12 0
BBX 15 12 -1 -2
BITMAP 
0000
0180
0300
0300
0600
0c00
1e00
3300
6370
6340
c180
0000
ENDCHAR
STARTCHAR U+3094
ENCODING 12436
SWIDTH 1000 0
DWIDTH 12 0
BBX 15 12 -1 -2
BITMAP 
0000
0334
01dc
0034
1b80
0ec0
00c0
00c0
0180
0300
0600
0c00
ENDCHAR
STARTCHAR U+309B
ENCODING 12443
SWIDTH 1000 0
DWIDTH 12 0
BBX 15 12 -1 -2
BITMAP 
0c00
3600
3600
3000
0000
0000
0000
0000
0000
0000
0000
0000
ENDCHAR
STARTCHAR U+309C
ENCODING 12444
SWIDTH 1000 0
DWIDTH 12 0
BBX 15 12 -1 -2
BITMAP 
0000
1800
3800
6800
3000
0000
0000
0000
0000
0000
0000
0000
ENDCHAR
STARTCHAR U+309D
ENCODING 12445
SWIDTH 1000 0
DWIDTH 12 0
BBX 15 12 -1 -2
BITMAP 
0000
0000
0000
0000
0e00
0300
0180
03c0
0600
0000
0000
0000
ENDCHAR
STARTCHAR U+309E
ENCODING 12446
SWIDTH 1000 0
DWIDTH 12 0
BBX 15 12 -1 -2
BITMAP 
0000
0060
01b0
0180
1c00
0600
0300
0780
0c00
0000
0000
0000
ENDCHAR
STARTCHAR U+30A1
ENCODING 12449
SWIDTH 1000 0
DWIDTH 12 0
BBX 15 12 -1 -2
BITMAP 
0000
0000
0000
0000
0000
1fc0
0d80
0f00
0c00
1800
3000
0000
ENDCHAR
STARTCHAR U+30A2
ENCODING 12450
SWIDTH 1000 0
DWIDTH 12 0
BBX 15 12 -1 -2
BITMAP 
0000
0000
3ff8
0030
0660
06c0
0f00
0c00
1800
3000
6000
0000
ENDCHAR
STARTCHAR U+30A3
ENCODING 12451
SWIDTH 1000 0
DWIDTH 12 0
BBX 15 12 -1 -2
BITMAP 
0000
0000
0000
0000
0180
0300
0300
0e00
3a00
0c00
0c00
0000
ENDCHAR
STARTCHAR U+30A4
ENCODING 12452
SWIDTH 1000 0
DWIDTH 12 0
BBX 15 12 -1 -2
BITMAP 
0000
0030
0060
00c0
0180
0f80
3b00
0300
0300
0600
0600
0000
ENDCHAR
STARTCHAR U+30A5
ENCODING 12453
SWIDTH 1000 0
DWIDTH 12 0
BBX 15 12 -1 -2
BITMAP 
0000
0000
0000
0000
0600
0600
3f80
3300
3600
0c00
3800
0000
ENDCHAR
STARTCHAR U+30A6
ENCODING 12454
SWIDTH 1000 0
DWIDTH 12 0
BBX 15 12 -1 -2
BITMAP 
0180
0180
0180
3ff0
3030
3060
6060
00c0
0380
0e00
3800
0000
ENDCHAR
STARTCHAR U+30A7
ENCODING 12455
SWIDTH 1000 0
DWIDTH 12 0
BBX 15 12 -1 -2
BITMAP 
0000
0000
0000
0000
0000
0000
1f80
0600
0600
7f80
0000
0000
ENDCHAR
STARTCHAR U+30A8
ENCODING 12456
SWIDTH 1000 0
DWIDTH 12 0
BBX 15 12 -1 -2
BITMAP 
0000
0000
0000
1ff0
0300
0300
0600
0600
0600
ffe0
0000
0000
ENDCHAR
STARTCHAR U+30A9
ENCODING 12457
SWIDTH 1000 0
DWIDTH 12 0
BBX 15 12 -1 -2
BITMAP 
0000
0000
0000
0000
0180
0180
3fc0
0700
1d00
7600
0e00
0000
ENDCHAR
STARTCHAR U+30AA
ENCODING 12458
SWIDTH 1000 0
DWIDTH 12 0
BBX 15 12 -1 -2
BITMAP 
0060
0060
0060
1ff8
01c0
03c0
0680
0d80
3980
0300
0700
0000
ENDCHAR
STARTCHAR U+30AB
ENCODING 12459
SWIDTH 1000 0
DWIDTH 12 0
BBX 15 12 -1 -2
BITMAP 
0180
0180
0180
1ff0
0330
0630
0660
0c60
1860
30c0
6380
0000
ENDCHAR
STARTCHAR U+30AC
ENCODING 12460
SWIDTH 1000 0
DWIDTH 12 0
BBX 15 12 -1 -2
BITMAP 
01b4
01b4
0180
1ff0
0330
0630
0660
0c60
1860
30c0
6380
0000
ENDCHAR
STARTCHAR U+30AD
ENCODING 12461
SWIDTH 1000 0
DWIDTH 12 0
BBX 15 12 -1 -2
BITMAP 
0180
0180
01f0
3f00
0300
03f0
7f00
0300
0300
0600
0600
0000
ENDCHAR
STARTCHAR U+30AE
ENCODING 12462
SWIDTH 1000 0
DWIDTH 12 0
BBX 15 12 -1 -2
BITMAP 
01b4
01b4
01f0
3f00
0300
03f0
7f00
0300
0300
0600
0600
0000
ENDCHAR
STARTCHAR U+30AF
ENCODING 12463
SWIDTH 1000 0
DWIDTH 12 0
BBX 15 12 -1 -2
BITMAP 
0000
0180
01f8
0330
0630
1c60
30c0
0180
0700
1c00
7000
0000
ENDCHAR
STARTCHAR U+30B0
ENCODING 12464
SWIDTH 1000 0
DWIDTH 12 0
BBX 15 12 -1 -2
BITMAP 
001a
019a
01f8
0330
0630
1c60
30c0
0180
0700
1c00
7000
0000
ENDCHAR
STARTCHAR U+30B1
ENCODING 12465
SWIDTH 1000 0
DWIDTH 12 0
BBX 15 12 -1 -2
BITMAP 
0000
0600
0600
0ff8
0cc0
18c0
7180
0180
0300
0e00
3800
0000
ENDCHAR
STARTCHAR U+30B2
ENCODING 12466
SWIDTH 1000 0
DWIDTH 12 0
BBX 15 12 -1 -2
BITMAP 
0000
061a
061a
0ff0
0cc0
18c0
7180
0180
0300
0e00
3800
0000
ENDCHAR
STARTCHAR U+30B3
ENCODING 12467
SWIDTH 1000 0
DWIDTH 12 0
BBX 15 12 -1 -2
BITMAP 
0000
0000
0ff8
0030
0030
0030
0060
0060
3fe0
00c0
0000
0000
ENDCHAR
STARTCHAR U+30B4
ENCODING 12468
SWIDTH 1000 0
DWIDTH 12 0
BBX 15 12 -1 -2
BITMAP 
0000
0034
0034
3fe0
0060
0060
00c0
00c0
00c0
ff80
0180
0000
ENDCHAR
STARTCHAR U+30B5
ENCODING 12469
SWIDTH 1000 0
DWIDTH 12 0
BBX 15 12 -1 -2
BITMAP 
0000
0330
0330
0660
3ff8
0660
0cc0
0cc0
0180
0700
1c00
0000
ENDCHAR
STARTCHAR U+30B6
ENCODING 12470
SWIDTH 1000 0
DWIDTH 12 0
BBX 15 12 -1 -2
BITMAP 
0000
066a
066a
0cc0
3ff0
0cc0
1980
1980
0300
0e00
3800
0000
ENDCHAR
STARTCHAR U+30B7
ENCODING 12471
SWIDTH 1000 0
DWIDTH 12 0
BBX 15 12 -1 -2
BITMAP 
0000
0e00
0300
0030
3830
0c60
00c0
0180
0700
1c00
f000
0000
ENDCHAR
STARTCHAR U+30B8
ENCODING 12472
SWIDTH 1000 0
DWIDTH 12 0
BBX 15 12 -1 -2
BITMAP 
0000
0e34
0334
0000
3830
0c60
00c0
0180
0700
1c00
f000
0000
ENDCHAR
STARTCHAR U+30B9
ENCODING 12473
SWIDTH 1000 0
DWIDTH 12 0
BBX 15 12 -1 -2
BITMAP 
0000
0000
0ff0
0060
0060
00c0
0180
0340
0e60
3860
e060
0000
ENDCHAR
STARTCHAR U+30BA
ENCODING 12474
SWIDTH 1000 0
DWIDTH 12 0
BBX 15 12 -1 -2
BITMAP 
0000
0034
0ff4
0060
0060
00c0
0180
0340
0e60
3860
e060
0000
ENDCHAR
STARTCHAR U+30BB
ENCODING 12475
SWIDTH 1000 0
DWIDTH 12 0
BBX 15 12 -1 -2
BITMAP 
0000
0600
0600
0cf0
0fa0
7cc0
1980
1b00
1800
1800
0f80
0000
ENDCHAR
STARTCHAR U+30BC
ENCODING 12476
SWIDTH 1000 0
DWIDTH 12 0
BBX 15 12 -1 -2
BITMAP 
0000
0634
0638
0ce8
0fb0
7ce0
1980
1b00
1800
1800
0f80
0000
ENDCHAR
STARTCHAR U+30BD
ENCODING 12477
SWIDTH 1000 0
DWIDTH 12 0
BBX 15 12 -1 -2
BITMAP 
0000
0000
0c18
0c30
0c30
0060
00c0
0180
0700
1c00
7000
0000
ENDCHAR
STARTCHAR U+30BE
ENCODING 12478
SWIDTH 1000 0
DWIDTH 12 0
BBX 15 12 -1 -2
BITMAP 
0000
0034
0c38
0c18
0c30
0060
00c0
0180
0700
1c00
7000
0000
ENDCHAR
STARTCHAR U+30BF
ENCODING 12479
SWIDTH 1000 0
DWIDTH 12 0
BBX 15 12 -1 -2
BITMAP 
0000
0180
03f8
0630
0c30
3b60
01c0
0180
0700
1c00
7000
0000
ENDCHAR
STARTCHAR U+30C0
ENCODING 12480
SWIDTH 1000 0
DWIDTH 12 0
BBX 15 12 -1 -2
BITMAP 
0000
019a
03fa
0630
0c30
3b60
01c0
0180
0700
1c00
7000
0000
ENDCHAR
STARTCHAR U+30C1
ENCODING 12481
SWIDTH 1000 0
DWIDTH 12 0
BBX 15 12 -1 -2
BITMAP 
0000
0070
0fc0
0180
0180
3ff8
0300
0300
0600
0c00
3800
0000
ENDCHAR
STARTCHAR U+30C2
ENCODING 12482
SWIDTH 1000 0
DWIDTH 12 0
BBX 15 12 -1 -2
BITMAP 
0000
007a
0fda
0180
0180
3ff8
0300
0300
0600
0c00
3800
0000
ENDCHAR
STARTCHAR U+30C3
ENCODING 12483
SWIDTH 1000 0
DWIDTH 12 0
BBX 15 12 -1 -2
BITMAP 
0000
0000
0000
0000
0600
1ac0
1ac0
1980
0300
0e00
3800
0000
ENDCHAR
STARTCHAR U+30C4
ENCODING 12484
SWIDTH 1000 0
DWIDTH 12 0
BBX 15 12 -1 -2
BITMAP 
0000
0300
1b18
1b30
1b30
1860
00c0
0180
0700
1c00
7000
0000
ENDCHAR
STARTCHAR U+30C5
ENCODING 12485
SWIDTH 1000 0
DWIDTH 12 0
BBX 15 12 -1 -2
BITMAP 
0034
0334
1b00
1b30
1b30
1860
00c0
0180
0700
1c00
7000
0000
ENDCHAR
STARTCHAR U+30C6
ENCODING 12486
SWIDTH 1000 0
DWIDTH 12 0
BBX 15 12 -1 -2
BITMAP 
0000
0000
07f0
0000
0000
3ff8
0300
0300
0600
1c00
7000
0000
ENDCHAR
STARTCHAR U+30C7
ENCODING 12487
SWIDTH 1000 0
DWIDTH 12 0
BBX 15 12 -1 -2
BITMAP 
0000
0034
07f4
0000
0000
3ff8
0300
0300
0600
1c00
7000
0000
ENDCHAR
STARTCHAR U+30C8
ENCODING 12488
SWIDTH 1000 0
DWIDTH 12 0
BBX 15 12 -1 -2
BITMAP 
0600
0600
0600
0c00
0f00
0d80
18c0
1800
1800
3000
3000
0000
ENDCHAR
STARTCHAR U+30C9
ENCODING 12489
SWIDTH 1000 0
DWIDTH 12 0
BBX 15 12 -1 -2
BITMAP 
0600
0668
0668
0c00
0f00
0d80
18c0
1800
1800
3000
3000
0000
ENDCHAR
STARTCHAR U+30CA
ENCODING 12490
SWIDTH 1000 0
DWIDTH 12 0
BBX 15 12 -1 -2
BITMAP 
00c0
00c0
00c0
3ff8
0180
0300
0300
0600
0c00
1800
7000
0000
ENDCHAR
STARTCHAR U+30CB
ENCODING 12491
SWIDTH 1000 0
DWIDTH 12 0
BBX 15 12 -1 -2
BITMAP 
0000
0000
0000
0fe0
0000
0000
0000
0000
7ff0
0000
0000
0000
ENDCHAR
STARTCHAR U+30CC
ENCODING 12492
SWIDTH 1000 0
DWIDTH 12 0
BBX 15 12 -1 -2
BITMAP 
0000
0000
07f8
0030
0060
06c0
0380
0340
0e60
3860
e000
0000
ENDCHAR
STARTCHAR U+30CD
ENCODING 12493
SWIDTH 1000 0
DWIDTH 12 0
BBX 15 12 -1 -2
BITMAP 
0180
0180
0ff0
0060
00c0
0380
1ec0
7670
0600
0c00
0c00
0000
ENDCHAR
STARTCHAR U+30CE
ENCODING 12494
SWIDTH 1000 0
DWIDTH 12 0
BBX 15 12 -1 -2
BITMAP 
0000
0000
0030
0030
0060
00c0
0180
0300
0e00
7800
0000
0000
ENDCHAR
STARTCHAR U+30CF
ENCODING 12495
SWIDTH 1000 0
DWIDTH 12 0
BBX 15 12 -1 -2
BITMAP 
0000
0000
0000
06c0
0660
0c60
0c60
1860
3060
6060
c060
0000
ENDCHAR
STARTCHAR U+30D0
ENCODING 12496
SWIDTH 1000 0
DWIDTH 12 0
BBX 15 12 -1 -2
BITMAP 
0000
001a
001a
06c0
0660
0c60
0c60
1860
3060
6060
c060
0000
ENDCHAR
STARTCHAR U+30D1
ENCODING 12497
SWIDTH 1000 0
DWIDTH 12 0
BBX 15 12 -1 -2
BITMAP 
0000
001c
0076
06d8
0660
0c60
0c60
1860
3060
6060
c060
0000
ENDCHAR
STARTCHAR U+30D2
ENCODING 12498
SWIDTH 1000 0
DWIDTH 12 0
BBX 15 12 -1 -2
BITMAP 
0000
0c00
0c00
1800
18e0
1f80
3000
3000
3000
1fc0
0000
0000
ENDCHAR
STARTCHAR U+30D3
ENCODING 12499
SWIDTH 1000 0
DWIDTH 12 0
BBX 15 12 -1 -2
BITMAP 
0000
0c34
0c34
1800
19e0
1f00
3000
3000
3000
1fc0
0000
0000
ENDCHAR
STARTCHAR U+30D4
ENCODING 12500
SWIDTH 1000 0
DWIDTH 12 0
BBX 15 12 -1 -2
BITMAP 
0000
0c38
0c6c
1870
19e0
1f00
3000
3000
3000
1fc0
0000
0000
ENDCHAR
STARTCHAR U+30D5
ENCODING 12501
SWIDTH 1000 0
DWIDTH 12 0
BBX 15 12 -1 -2
BITMAP 
0000
0000
1ff8
0030
0030
0060
00c0
0180
0700
1c00
7000
0000
ENDCHAR
STARTCHAR U+30D6
ENCODING 12502
SWIDTH 1000 0
DWIDTH 12 0
BBX 15 12 -1 -2
BITMAP 
0068
0068
1ff0
0060
0060
00c0
0180
0300
0e00
3800
e000
0000
ENDCHAR
STARTCHAR U+30D7
ENCODING 12503
SWIDTH 1000 0
DWIDTH 12 0
BBX 15 12 -1 -2
BITMAP 
0038
006c
1ff8
0060
0060
00c0
0180
0300
0e00
3800
e000
0000
ENDCHAR
STARTCHAR U+30D8
ENCODING 12504
SWIDTH 1000 0
DWIDTH 12 0
BBX 15 12 -1 -2
BITMAP 
0000
0000
0000
0700
0d80
38c0
60c0
0060
0030
0000
0000
0000
ENDCHAR
STARTCHAR U+30D9
ENCODING 12505
SWIDTH 1000 0
DWIDTH 12 0
BBX 15 12 -1 -2
BITMAP 
0000
0034
0034
0700
0d80
38c0
60c0
0060
0030
0000
0000
0000
ENDCHAR
STARTCHAR U+30DA
ENCODING 12506
SWIDTH 1000 0
DWIDTH 12 0
BBX 15 12 -1 -2
BITMAP 
0000
0038
006c
0730
0d80
38c0
60c0
0060
0030
0000
0000
0000
ENDCHAR
STARTCHAR U+30DB
ENCODING 12507
SWIDTH 1000 0
DWIDTH 12 0
BBX 15 12 -1 -2
BITMAP 
0180
0180
0180
3ff0
0300
1b40
1ac0
3660
6660
cc00
1c00
0000
ENDCHAR
STARTCHAR U+30DC
ENCODING 12508
SWIDTH 1000 0
DWIDTH 12 0
BBX 15 12 -1 -2
BITMAP 
0300
0368
0370
7fe0
0600
3680
3580
6cc0
ccc0
9800
3800
0000
ENDCHAR
STARTCHAR U+30DD
ENCODING 12509
SWIDTH 1000 0
DWIDTH 12 0
BBX 15 12 -1 -2
BITMAP 
0300
0338
036c
7fb0
0600
3680
3580
6cc0
ccc0
9800
3800
0000
ENDCHAR
STARTCHAR U+30DE
ENCODING 12510
SWIDTH 1000 0
DWIDTH 12 0
BBX 15 12 -1 -2
BITMAP 
0000
0000
1ff8
0030
0060
01c0
3b00
0e00
0300
0300
0000
0000
ENDCHAR
STARTCHAR U+30DF
ENCODING 12511
SWIDTH 1000 0
DWIDTH 12 0
BBX 15 12 -1 -2
BITMAP 
0000
0780
00c0
0060
0000
0e00
0300
0000
3c00
0600
0380
0000
ENDCHAR
STARTCHAR U+30E0
ENCODING 12512
SWIDTH 1000 0
DWIDTH 12 0
BBX 15 12 -1 -2
BITMAP 
0000
0180
0300
0300
0600
0d80
0d80
18c0
77c0
d8c0
00c0
0000
ENDCHAR
STARTCHAR U+30E1
ENCODING 12513
SWIDTH 1000 0
DWIDTH 12 0
BBX 15 12 -1 -2
BITMAP 
0000
0018
0018
0030
0730
01e0
00c0
01a0
0730
1c00
7000
0000
ENDCHAR
STARTCHAR U+30E2
ENCODING 12514
SWIDTH 1000 0
DWIDTH 12 0
BBX 15 12 -1 -2
BITMAP 
0000
0000
0ff0
0600
0600
3ff8
0c00
0c00
0c00
07c0
0000
0000
ENDCHAR
STARTCHAR U+30E3
ENCODING 12515
SWIDTH 1000 0
DWIDTH 12 0
BBX 15 12 -1 -2
BITMAP 
0000
0000
0000
0000
0600
0600
0de0
3ec0
0680
0c00
0c00
0000
ENDCHAR
STARTCHAR U+30E4
ENCODING 12516
SWIDTH 1000 0
DWIDTH 12 0
BBX 15 12 -1 -2
BITMAP 
0000
0600
0600
0cf8
0fb0
7ce0
0d80
0c00
0c00
0c00
0c00
0000
ENDCHAR
STARTCHAR U+30E5
ENCODING 12517
SWIDTH 1000 0
DWIDTH 12 0
BBX 15 12 -1 -2
BITMAP 
0000
0000
0000
0000
0000
0000
1f00
0300
0300
7f80
0000
0000
ENDCHAR
STARTCHAR U+30E6
ENCODING 12518
SWIDTH 1000 0
DWIDTH 12 0
BBX 15 12 -1 -2
BITMAP 
0000
0000
0000
1fe0
0060
00c0
00c0
0180
0180
ffe0
0000
0000
ENDCHAR
STARTCHAR U+30E7
ENCODING 12519
SWIDTH 1000 0
DWIDTH 12 0
BBX 15 12 -1 -2
BITMAP 
0000
0000
0000
0000
0000
1fc0
0180
1f80
0180
0300
7f00
0000
ENDCHAR
STARTCHAR U+30E8
ENCODING 12520
SWIDTH 1000 0
DWIDTH 12 0
BBX 15 12 -1 -2
BITMAP 
0000
0000
1ff8
0030
0030
1ff0
0060
0060
0060
ffc0
00c0
0000
ENDCHAR
STARTCHAR U+30E9
ENCODING 12521
SWIDTH 1000 0
DWIDTH 12 0
BBX 15 12 -1 -2
BITMAP 
0000
0ff0
0000
0000
3ff0
0030
0060
00c0
0380
0e00
7800
0000
ENDCHAR
STARTCHAR U+30EA
ENCODING 12522
SWIDTH 1000 0
DWIDTH 12 0
BBX 15 12 -1 -2
BITMAP 
0000
0630
0630
0c60
0c60
0cc0
18c0
0180
0300
0600
1c00
0000
ENDCHAR
STARTCHAR U+30EB
ENCODING 12523
SWIDTH 1000 0
DWIDTH 12 0
BBX 15 12 -1 -2
BITMAP 
0000
00c0
06c0
0d80
0d80
0d98
1b30
1b60
33c0
6700
c000
0000
ENDCHAR
STARTCHAR U+30EC
ENCODING 12524
SWIDTH 1000 0
DWIDTH 12 0
BBX 15 12 -1 -2
BITMAP 
0000
0c00
0c00
1800
1800
1800
30c0
3180
3700
6c00
7000
0000
ENDCHAR
STARTCHAR U+30ED
ENCODING 12525
SWIDTH 1000 0
DWIDTH 12 0
BBX 15 12 -1 -2
BITMAP 
0000
0000
0ff8
1830
1830
1830
3060
3060
3fe0
60c0
0000
0000
ENDCHAR
STARTCHAR U+30EE
ENCODING 12526
SWIDTH 1000 0
DWIDTH 12 0
BBX 15 12 -1 -2
BITMAP 
0000
0000
0000
0000
0000
1fc0
3180
3180
0300
0e00
3800
0000
ENDCHAR
STARTCHAR U+30EF
ENCODING 12527
SWIDTH 1000 0
DWIDTH 12 0
BBX 15 12 -1 -2
BITMAP 
0000
0000
0ff8
1830
1830
1860
0060
00c0
0380
0e00
3800
0000
ENDCHAR
STARTCHAR U+30F0
ENCODING 12528
SWIDTH 1000 0
DWIDTH 12 0
BBX 15 12 -1 -2
BITMAP 
0060
0060
0060
3ff0
0cc0
0cc0
1980
7ff0
0180
0300
0300
0000
ENDCHAR
STARTCHAR U+30F1
ENCODING 12529
SWIDTH 1000 0
DWIDTH 12 0
BBX 15 12 -1 -2
BITMAP 
0000
0000
0ff0
0060
0340
0380
0600
0600
0600
ffc0
0000
0000
ENDCHAR
STARTCHAR U+30F2
ENCODING 12530
SWIDTH 1000 0
DWIDTH 12 0
BBX 15 12 -1 -2
BITMAP 
0000
0000
0ff8
0030
0030
0ff0
00c0
00c0
0380
0e00
7800
0000
ENDCHAR
STARTCHAR U+30F3
ENCODING 12531
SWIDTH 1000 0
DWIDTH 12 0
BBX 15 12 -1 -2
BITMAP 
0000
0000
1800
0c30
0030
0060
00c0
0180
0700
1c00
f000
0000
ENDCHAR
STARTCHAR U+30F4
ENCODING 12532
SWIDTH 1000 0
DWIDTH 12 0
BBX 15 12 -1 -2
BITMAP 
01b4
01b4
0180
3ff0
3030
3060
0060
00c0
0380
0e00
3800
0000
ENDCHAR
STARTCHAR U+30F5
ENCODING 12533
SWIDTH 1000 0
DWIDTH 12 0
BBX 15 12 -1 -2
BITMAP 
0000
0000
0000
0000
0600
0600
3f80
0d80
1980
3300
6e00
0000
ENDCHAR
STARTCHAR U+30F6
ENCODING 12534
SWIDTH 1000 0
DWIDTH 12 0
BBX 15 12 -1 -2
BITMAP 
0000
0000
0000
0000
0600
0600
0fc0
3b00
0600
0c00
3800
0000
ENDCHAR
STARTCHAR U+30F7
ENCODING 12535
SWIDTH 1000 0
DWIDTH 12 0
BBX 15 12 -1 -2
BITMAP 
0000
0034
1bfc
1ed4
18c0
1980
1980
0300
0600
0c00
1800
0000
ENDCHAR
STARTCHAR U+30F8
ENCODING 12536
SWIDTH 1000 0
DWIDTH 12 0
BBX 15 12 -1 -2
BITMAP 
0000
00d4
006c
01f4
1f40
0cc0
0d80
0de0
3eb0
0300
0300
0300
ENDCHAR
STARTCHAR U+30F9
ENCODING 12537
SWIDTH 1000 0
DWIDTH 12 0
BBX 15 12 -1 -2
BITMAP 
0000
0034
001c
01f4
1f30
0360
0300
0300
03e0
fe30
0000
0000
ENDCHAR
STARTCHAR U+30FA
ENCODING 12538
SWIDTH 1000 0
DWIDTH 12 0
BBX 15 12 -1 -2
BITMAP 
0000
0034
1bfc
0ed4
00c0
07c0
3d80
0180
0300
0e00
3800
0000
ENDCHAR
STARTCHAR U+30FB
ENCODING 12539
SWIDTH 1000 0
DWIDTH 12 0
BBX 15 12 -1 -2
BITMAP 
0000
0000
0000
0000
0000
0380
0700
0000
0000
0000
0000
0000
ENDCHAR
STARTCHAR U+30FC
ENCODING 12540
SWIDTH 1000 0
DWIDTH 12 0
BBX 15 12 -1 -2
BITMAP 
0000
0000
0000
0000
0000
1ff0
0000
0000
0000
0000
0000
0000
ENDCHAR
STARTCHAR U+30FD
ENCODING 12541
SWIDTH 1000 0
DWIDTH 12 0
BBX 15 12 -1 -2
BITMAP 
0000
0000
0000
0000
0000
1c00
0600
0300
0180
0000
0000
0000
ENDCHAR
STARTCHAR U+30FE
ENCODING 12542
SWIDTH 1000 0
DWIDTH 12 0
BBX 15 12 -1 -2
BITMAP 
0000
0000
0060
0360
0180
1c00
0600
0300
0180
0000
0000
0000
ENDCHAR
STARTCHAR U+3105
ENCODING 12549
SWIDTH 1000 0
DWIDTH 12 0
BBX 15 12 -1 -2
BITMAP 
0000
0600
0c00
1ff0
0030
0030
0060
0060
00c0
00c0
0180
0300
ENDCHAR
STARTCHAR U+3106
ENCODING 12550
SWIDTH 1000 0
DWIDTH 12 0
BBX 15 12 -1 -2
BITMAP 
0000
0300
0e00
1bf0
0030
0060
06c0
0380
0780
1d80
7000
0000
ENDCHAR
STARTCHAR U+3107
ENCODING 12551
SWIDTH 1000 0
DWIDTH 12 0
BBX 15 12 -1 -2
BITMAP 
0000
0000
0000
3ff0
3030
3030
6060
6060
6060
0000
0000
0000
ENDCHAR
STARTCHAR U+3108
ENCODING 12552
SWIDTH 1000 0
DWIDTH 12 0
BBX 15 12 -1 -2
BITMAP 
0000
0ff0
0c00
1800
1800
1800
3000
3000
3000
3000
1fc0
0000
ENDCHAR
STARTCHAR U+3109
ENCODING 12553
SWIDTH 1000 0
DWIDTH 12 0
BBX 15 12 -1 -2
BITMAP 
0000
0300
0e00
1bf0
0330
0630
0660
0c60
18c0
30c0
6180
0300
ENDCHAR
STARTCHAR U+310A
ENCODING 12554
SWIDTH 1000 0
DWIDTH 12 0
BBX 15 12 -1 -2
BITMAP 
0000
0180
0180
0300
3ff0
0300
0600
0c00
3800
6f80
0000
0000
ENDCHAR
STARTCHAR U+310B
ENCODING 12555
SWIDTH 1000 0
DWIDTH 12 0
BBX 15 12 -1 -2
BITMAP 
0000
0fc0
00e0
0180
03c0
0060
0060
0060
00c0
00c0
0180
0300
ENDCHAR
STARTCHAR U+310C
ENCODING 12556
SWIDTH 1000 0
DWIDTH 12 0
BBX 15 12 -1 -2
BITMAP 
0000
0180
0e80
1b00
0ff0
0630
0660
0c60
0c60
00c0
0180
0300
ENDCHAR
STARTCHAR U+310D
ENCODING 12557
SWIDTH 1000 0
DWIDTH 12 0
BBX 15 12 -1 -2
BITMAP 
0000
0000
0660
06c0
0d80
1b80
3600
1b00
0000
1b00
1b00
0000
ENDCHAR
STARTCHAR U+310E
ENCODING 12558
SWIDTH 1000 0
DWIDTH 12 0
BBX 15 12 -1 -2
BITMAP 
0000
1ff8
0300
0600
0c00
1fe0
00c0
00c0
0180
0180
0300
0300
ENDCHAR
STARTCHAR U+310F
ENCODING 12559
SWIDTH 1000 0
DWIDTH 12 0
BBX 15 12 -1 -2
BITMAP 
0000
0ff8
0c00
1800
1800
1800
3000
3000
0000
c000
8000
0000
ENDCHAR
STARTCHAR U+3110
ENCODING 12560
SWIDTH 1000 0
DWIDTH 12 0
BBX 15 12 -1 -2
BITMAP 
0000
0060
0360
06c0
06c0
0cc0
1980
1e80
0180
0300
0300
0300
ENDCHAR
STARTCHAR U+3111
ENCODING 12561
SWIDTH 1000 0
DWIDTH 12 0
BBX 15 12 -1 -2
BITMAP 
0000
00c0
0180
0180
0300
0600
0000
0600
0600
0600
0300
0000
ENDCHAR
STARTCHAR U+3112
ENCODING 12562
SWIDTH 1000 0
DWIDTH 12 0
BBX 15 12 -1 -2
BITMAP 
0000
1ff8
0180
0300
0300
0300
0600
0600
0600
0c00
0c00
0000
ENDCHAR
STARTCHAR U+3113
ENCODING 12563
SWIDTH 1000 0
DWIDTH 12 0
BBX 15 12 -1 -2
BITMAP 
0000
0180
0db0
1b60
1b60
1b60
1ac0
0fc0
0600
0c00
ffc0
0000
ENDCHAR
STARTCHAR U+3114
ENCODING 12564
SWIDTH 1000 0
DWIDTH 12 0
BBX 15 12 -1 -2
BITMAP 
0000
00c0
0380
0600
0d80
1b00
0e00
1a00
3600
0c00
0c00
0c00
ENDCHAR
STARTCHAR U+3115
ENCODING 12565
SWIDTH 1000 0
DWIDTH 12 0
BBX 15 12 -1 -2
BITMAP 
0000
07e0
0030
0030
0ff0
1800
3000
3000
6000
6000
c000
8000
ENDCHAR
STARTCHAR U+3116
ENCODING 12566
SWIDTH 1000 0
DWIDTH 12 0
BBX 15 12 -1 -2
BITMAP 
0000
07e0
0660
0cc0
0cc0
0d40
1b80
1980
1980
3300
3f00
0000
ENDCHAR
STARTCHAR U+3117
ENCODING 12567
SWIDTH 1000 0
DWIDTH 12 0
BBX 15 12 -1 -2
BITMAP 
0000
0ff0
0330
0660
0660
06c0
0cc0
0d80
0c00
1800
1800
1800
ENDCHAR
STARTCHAR U+3118
ENCODING 12568
SWIDTH 1000 0
DWIDTH 12 0
BBX 15 12 -1 -2
BITMAP 
0000
0300
0300
3ff0
0600
0600
1fc0
00c0
0000
0300
0600
0c00
ENDCHAR
STARTCHAR U+3119
ENCODING 12569
SWIDTH 1000 0
DWIDTH 12 0
BBX 15 12 -1 -2
BITMAP 
0000
0180
0300
0300
0600
0600
0c00
1800
3180
7f80
0000
0000
ENDCHAR
STARTCHAR U+311A
ENCODING 12570
SWIDTH 1000 0
DWIDTH 12 0
BBX 15 12 -1 -2
BITMAP 
0000
0000
0000
0000
0000
0300
0600
0600
0600
0c00
0c00
0c00
ENDCHAR
STARTCHAR U+311B
ENCODING 12571
SWIDTH 1000 0
DWIDTH 12 0
BBX 15 12 -1 -2
BITMAP 
0000
1ff8
0180
0300
0f00
1800
3000
6000
60e0
6180
3f00
0000
ENDCHAR
STARTCHAR U+311C
ENCODING 12572
SWIDTH 1000 0
DWIDTH 12 0
BBX 15 12 -1 -2
BITMAP 
0000
0180
0180
3ff0
0300
1f00
3000
6000
6000
00c0
3f80
0000
ENDCHAR
STARTCHAR U+311D
ENCODING 12573
SWIDTH 1000 0
DWIDTH 12 0
BBX 15 12 -1 -2
BITMAP 
0000
0000
0660
0cc0
3ff0
0cc0
1800
1b00
1a00
1800
0f80
0000
ENDCHAR
STARTCHAR U+311E
ENCODING 12574
SWIDTH 1000 0
DWIDTH 12 0
BBX 15 12 -1 -2
BITMAP 
0000
1ff8
0680
0d00
1fc0
0360
0660
0660
0cc0
00c0
0180
0000
ENDCHAR
STARTCHAR U+311F
ENCODING 12575
SWIDTH 1000 0
DWIDTH 12 0
BBX 15 12 -1 -2
BITMAP 
0000
0600
0600
0600
0600
0600
0000
0600
0300
0300
0180
0000
ENDCHAR
STARTCHAR U+3120
ENCODING 12576
SWIDTH 1000 0
DWIDTH 12 0
BBX 15 12 -1 -2
BITMAP 
0000
0300
0300
00c0
0cc0
1f80
0600
0c00
3980
6f80
0000
0000
ENDCHAR
STARTCHAR U+3121
ENCODING 12577
SWIDTH 1000 0
DWIDTH 12 0
BBX 15 12 -1 -2
BITMAP 
0000
0000
0ff0
0060
00c0
06c0
0600
0300
0e00
1800
3000
0000
ENDCHAR
STARTCHAR U+3122
ENCODING 12578
SWIDTH 1000 0
DWIDTH 12 0
BBX 15 12 -1 -2
BITMAP 
0000
0fe0
0660
0cc0
18c0
1ff0
0060
0060
00c0
0180
0300
0000
ENDCHAR
STARTCHAR U+3123
ENCODING 12579
SWIDTH 1000 0
DWIDTH 12 0
BBX 15 12 -1 -2
BITMAP 
0000
0600
0c00
0c00
1800
1800
3fe0
0060
00c0
00c0
0180
0000
ENDCHAR
STARTCHAR U+3124
ENCODING 12580
SWIDTH 1000 0
DWIDTH 12 0
BBX 15 12 -1 -2
BITMAP 
0000
0300
0300
0600
3ff0
0680
0d00
0d00
1b00
3600
e7c0
0000
ENDCHAR
STARTCHAR U+3125
ENCODING 12581
SWIDTH 1000 0
DWIDTH 12 0
BBX 15 12 -1 -2
BITMAP 
0000
0000
0300
0300
0600
0600
0000
0000
0000
7fc0
0000
0000
ENDCHAR
STARTCHAR U+3126
ENCODING 12582
SWIDTH 1000 0
DWIDTH 12 0
BBX 15 12 -1 -2
BITMAP 
0000
0000
0340
0680
0680
0680
0d00
0d00
1b00
3660
e7e0
0000
ENDCHAR
STARTCHAR U+3127
ENCODING 12583
SWIDTH 1000 0
DWIDTH 12 0
BBX 15 12 -1 -2
BITMAP 
0000
0180
0180
0300
0300
0300
0600
0600
0600
0c00
0c00
0c00
ENDCHAR
STARTCHAR U+3128
ENCODING 12584
SWIDTH 1000 0
DWIDTH 12 0
BBX 15 12 -1 -2
BITMAP 
0000
0030
0060
0c60
06c0
0380
0180
0300
0180
0180
e000
0000
ENDCHAR
STARTCHAR U+3129
ENCODING 12585
SWIDTH 1000 0
DWIDTH 12 0
BBX 15 12 -1 -2
BITMAP 
0000
0000
0018
1830
1830
1830
3060
61e0
7f60
00c0
0000
0000
ENDCHAR
STARTCHAR U+3131
ENCODING 12593
SWIDTH 1000 0
DWIDTH 12 0
BBX 15 12 -1 -2
BITMAP 
0000
0000
03f8
0030
0030
0030
0060
0060
0000
0000
0000
0000
ENDCHAR
STARTCHAR U+3132
ENCODING 12594
SWIDTH 1000 0
DWIDTH 12 0
BBX 15 12 -1 -2
BITMAP 
0000
0000
07fc
0198
0198
0198
0330
0330
0000
0000
0000
0000
ENDCHAR
STARTCHAR U+3133
ENCODING 12595
SWIDTH 1000 0
DWIDTH 12 0
BBX 15 12 -1 -2
BITMAP 
0000
0000
07d8
01b0
01b0
01b0
0350
0398
0000
0000
0000
0000
ENDCHAR
STARTCHAR U+3134
ENCODING 12596
SWIDTH 1000 0
DWIDTH 12 0
BBX 15 12 -1 -2
BITMAP 
0000
0000
0300
0600
0600
0600
0c00
0fe0
0000
0000
0000
0000
ENDCHAR
STARTCHAR U+3135
ENCODING 12597
SWIDTH 1000 0
DWIDTH 12 0
BBX 15 12 -1 -2
BITMAP 
0000
0000
06fc
0c60
0c60
0ce0
19a0
1f30
0000
0000
0000
0000
ENDCHAR
STARTCHAR U+3136
ENCODING 12598
SWIDTH 1000 0
DWIDTH 12 0
BBX 15 12 -1 -2
BITMAP 
0000
0000
0c78
1800
1bfc
19d0
3330
3ee0
0000
0000
0000
0000
ENDCHAR
STARTCHAR U+3137
ENCODING 12599
SWIDTH 1000 0
DWIDTH 12 0
BBX 15 12 -1 -2
BITMAP 
0000
0000
03f8
0600
0600
0600
0c00
0fe0
0000
0000
0000
0000
ENDCHAR
STARTCHAR U+3138
ENCODING 12600
SWIDTH 1000 0
DWIDTH 12 0
BBX 15 12 -1 -2
BITMAP 
0000
0000
07fc
0cc0
0cc0
0cc0
1980
1ff0
0000
0000
0000
0000
ENDCHAR
STARTCHAR U+3139
ENCODING 12601
SWIDTH 1000 0
DWIDTH 12 0
BBX 15 12 -1 -2
BITMAP 
0000
0000
03f8
0030
07f0
0600
0c00
0fe0
0000
0000
0000
0000
ENDCHAR
STARTCHAR U+313A
ENCODING 12602
SWIDTH 1000 0
DWIDTH 12 0
BBX 15 12 -1 -2
BITMAP 
0000
0000
07fe
00cc
0fcc
0c0c
1818
1f98
0000
0000
0000
0000
ENDCHAR
STARTCHAR U+313B
ENCODING 12603
SWIDTH 1000 0
DWIDTH 12 0
BBX 15 12 -1 -2
BITMAP 
0000
0000
07de
01ac
0fac
0c6c
18d8
1ff8
0000
0000
0000
0000
ENDCHAR
STARTCHAR U+313C
ENCODING 12604
SWIDTH 1000 0
DWIDTH 12 0
BBX 15 12 -1 -2
BITMAP 
0000
0000
07d6
01ac
0fbc
0c6c
18d8
1ff8
0000
0000
0000
0000
ENDCHAR
STARTCHAR U+313D
ENCODING 12605
SWIDTH 1000 0
DWIDTH 12 0
BBX 15 12 -1 -2
BITMAP 
0000
0000
07d8
01b0
0fb0
0c70
18d0
1f98
0000
0000
0000
0000
ENDCHAR
STARTCHAR U+313E
ENCODING 12606
SWIDTH 1000 0
DWIDTH 12 0
BBX 15 12 -1 -2
BITMAP 
0000
0000
07de
01a0
0fbc
0c60
18c0
1ff8
0000
0000
0000
0000
ENDCHAR
STARTCHAR U+313F
ENCODING 12607
SWIDTH 1000 0
DWIDTH 12 0
BBX 15 12 -1 -2
BITMAP 
0000
0000
07fe
0180
0fa8
0c68
18d0
1ff8
0000
0000
0000
0000
ENDCHAR
STARTCHAR U+3140
ENCODING 12608
SWIDTH 1000 0
DWIDTH 12 0
BBX 15 12 -1 -2
BITMAP 
0000
0000
0fbc
0300
1ffc
18e8
3198
3ef0
0000
0000
0000
0000
ENDCHAR
STARTCHAR U+3141
ENCODING 12609
SWIDTH 1000 0
DWIDTH 12 0
BBX 15 12 -1 -2
BITMAP 
0000
0000
03f8
0630
0630
0630
0c60
0fe0
0000
0000
0000
0000
ENDCHAR
STARTCHAR U+3142
ENCODING 12610
SWIDTH 1000 0
DWIDTH 12 0
BBX 15 12 -1 -2
BITMAP 
0000
0000
0318
0630
07f0
0630
0c60
0fe0
0000
0000
0000
0000
ENDCHAR
STARTCHAR U+3143
ENCODING 12611
SWIDTH 1000 0
DWIDTH 12 0
BBX 15 12 -1 -2
BITMAP 
0000
0000
06d6
0dac
0fbc
0dac
1b58
1f78
0000
0000
0000
0000
ENDCHAR
STARTCHAR U+3144
ENCODING 12612
SWIDTH 1000 0
DWIDTH 12 0
BBX 15 12 -1 -2
BITMAP 
0000
0000
06d8
0db0
0fb0
0db0
1b50
1f98
0000
0000
0000
0000
ENDCHAR
STARTCHAR U+3145
ENCODING 12613
SWIDTH 1000 0
DWIDTH 12 0
BBX 15 12 -1 -2
BITMAP 
0000
0000
0060
00c0
00c0
01a0
0760
0c30
0000
0000
0000
0000
ENDCHAR
STARTCHAR U+3146
ENCODING 12614
SWIDTH 1000 0
DWIDTH 12 0
BBX 15 12 -1 -2
BITMAP 
0000
0000
0198
0330
0330
0768
0d58
1998
0000
0000
0000
0000
ENDCHAR
STARTCHAR U+3147
ENCODING 12615
SWIDTH 1000 0
DWIDTH 12 0
BBX 15 12 -1 -2
BITMAP 
0000
0000
01e0
0330
0630
0630
0660
03c0
0000
0000
0000
0000
ENDCHAR
STARTCHAR U+3148
ENCODING 12616
SWIDTH 1000 0
DWIDTH 12 0
BBX 15 12 -1 -2
BITMAP 
0000
0000
03fc
00c0
00c0
01a0
0760
0c30
0000
0000
0000
0000
ENDCHAR
STARTCHAR U+3149
ENCODING 12617
SWIDTH 1000 0
DWIDTH 12 0
BBX 15 12 -1 -2
BITMAP 
0000
0000
07fe
0330
0330
0768
0d58
1998
0000
0000
0000
0000
ENDCHAR
STARTCHAR U+314A
ENCODING 12618
SWIDTH 1000 0
DWIDTH 12 0
BBX 15 12 -1 -2
BITMAP 
0000
0000
00f0
0000
07f8
01c0
0340
0e70
0000
0000
0000
0000
ENDCHAR
STARTCHAR U+314B
ENCODING 12619
SWIDTH 1000 0
DWIDTH 12 0
BBX 15 12 -1 -2
BITMAP 
0000
0000
03f8
0030
0030
07f0
0060
0060
0000
0000
0000
0000
ENDCHAR
STARTCHAR U+314C
ENCODING 12620
SWIDTH 1000 0
DWIDTH 12 0
BBX 15 12 -1 -2
BITMAP 
0000
0000
03f8
0600
07f0
0600
0c00
0fe0
0000
0000
0000
0000
ENDCHAR
STARTCHAR U+314D
ENCODING 12621
SWIDTH 1000 0
DWIDTH 12 0
BBX 15 12 -1 -2
BITMAP 
0000
0000
03f8
0000
0360
0360
06c0
1ff0
0000
0000
0000
0000
ENDCHAR
STARTCHAR U+314E
ENCODING 12622
SWIDTH 1000 0
DWIDTH 12 0
BBX 15 12 -1 -2
BITMAP 
0000
00f0
0000
07f8
01a0
0360
0360
01c0
0000
0000
0000
0000
ENDCHAR
STARTCHAR U+314F
ENCODING 12623
SWIDTH 1000 0
DWIDTH 12 0
BBX 15 12 -1 -2
BITMAP 
0060
0060
0060
00c0
00c0
00f8
0180
0180
0180
0300
0300
0000
ENDCHAR
STARTCHAR U+3150
ENCODING 12624
SWIDTH 1000 0
DWIDTH 12 0
BBX 15 12 -1 -2
BITMAP 
0030
01b0
01b0
0360
0360
03e0
06c0
06c0
06c0
0d80
0180
0000
ENDCHAR
STARTCHAR U+3151
ENCODING 12625
SWIDTH 1000 0
DWIDTH 12 0
BBX 15 12 -1 -2
BITMAP 
0060
0060
0060
00f8
00c0
00c0
01f0
0180
0180
0300
0300
0000
ENDCHAR
STARTCHAR U+3152
ENCODING 12626
SWIDTH 1000 0
DWIDTH 12 0
BBX 15 12 -1 -2
BITMAP 
0030
01b0
01b0
03e0
0360
0360
07c0
06c0
06c0
0d80
0180
0000
ENDCHAR
STARTCHAR U+3153
ENCODING 12627
SWIDTH 1000 0
DWIDTH 12 0
BBX 15 12 -1 -2
BITMAP 
0030
0030
0030
0060
0060
03e0
00c0
00c0
00c0
0180
0180
0000
ENDCHAR
STARTCHAR U+3154
ENCODING 12628
SWIDTH 1000 0
DWIDTH 12 0
BBX 15 12 -1 -2
BITMAP 
0018
00d8
00d8
01b0
01b0
07b0
0360
0360
0360
06c0
00c0
0000
ENDCHAR
STARTCHAR U+3155
ENCODING 12629
SWIDTH 1000 0
DWIDTH 12 0
BBX 15 12 -1 -2
BITMAP 
0060
0060
0060
03c0
00c0
00c0
0780
0180
0180
0300
0300
0000
ENDCHAR
STARTCHAR U+3156
ENCODING 12630
SWIDTH 1000 0
DWIDTH 12 0
BBX 15 12 -1 -2
BITMAP 
00d8
00d8
00d8
07b0
01b0
01b0
0f60
0360
0360
06c0
06c0
0000
ENDCHAR
STARTCHAR U+3157
ENCODING 12631
SWIDTH 1000 0
DWIDTH 12 0
BBX 15 12 -1 -2
BITMAP 
0000
0000
0000
0000
00c0
00c0
0180
3ff8
0000
0000
0000
0000
ENDCHAR
STARTCHAR U+3158
ENCODING 12632
SWIDTH 1000 0
DWIDTH 12 0
BBX 15 12 -1 -2
BITMAP 
000c
000c
000c
0018
0318
0318
0638
0630
3fd0
0060
0060
0000
ENDCHAR
STARTCHAR U+3159
ENCODING 12633
SWIDTH 1000 0
DWIDTH 12 0
BBX 15 12 -1 -2
BITMAP 
0006
0036
0036
006c
066c
067c
0cd8
0cd8
3f58
01b0
0030
0000
ENDCHAR
STARTCHAR U+315A
ENCODING 12634
SWIDTH 1000 0
DWIDTH 12 0
BBX 15 12 -1 -2
BITMAP 
000c
000c
000c
0018
0318
0318
0630
0630
3fd0
0060
0060
0000
ENDCHAR
STARTCHAR U+315B
ENCODING 12635
SWIDTH 1000 0
DWIDTH 12 0
BBX 15 12 -1 -2
BITMAP 
0000
0000
0000
0000
0360
0360
06c0
3ff8
0000
0000
0000
0000
ENDCHAR
STARTCHAR U+315C
ENCODING 12636
SWIDTH 1000 0
DWIDTH 12 0
BBX 15 12 -1 -2
BITMAP 
0000
0000
0000
0000
1ffc
00c0
0180
0180
0180
0300
0000
0000
ENDCHAR
STARTCHAR U+315D
ENCODING 12637
SWIDTH 1000 0
DWIDTH 12 0
BBX 15 12 -1 -2
BITMAP 
000c
000c
000c
0018
0018
1fe8
0630
06f0
0630
0c60
0060
0000
ENDCHAR
STARTCHAR U+315E
ENCODING 12638
SWIDTH 1000 0
DWIDTH 12 0
BBX 15 12 -1 -2
BITMAP 
0006
0036
0036
006c
006c
1fac
0cd8
0dd8
0cd8
01b0
0030
0000
ENDCHAR
STARTCHAR U+315F
ENCODING 12639
SWIDTH 1000 0
DWIDTH 12 0
BBX 15 12 -1 -2
BITMAP 
000c
000c
000c
0018
0018
1fe8
0630
0630
0630
0c60
0060
0000
ENDCHAR
STARTCHAR U+3160
ENCODING 12640
SWIDTH 1000 0
DWIDTH 12 0
BBX 15 12 -1 -2
BITMAP 
0000
0000
0000
0000
1ffc
0630
0c60
0c60
0c60
18c0
0000
0000
ENDCHAR
STARTCHAR U+3161
ENCODING 12641
SWIDTH 1000 0
DWIDTH 12 0
BBX 15 12 -1 -2
BITMAP 
0000
0000
0000
0000
1ffc
0000
0000
0000
0000
0000
0000
0000
ENDCHAR
STARTCHAR U+3162
ENCODING 12642
SWIDTH 1000 0
DWIDTH 12 0
BBX 15 12 -1 -2
BITMAP 
000c
000c
000c
0018
0018
0018
0030
3fd0
0030
0060
0060
0000
ENDCHAR
STARTCHAR U+3163
ENCODING 12643
SWIDTH 1000 0
DWIDTH 12 0
BBX 15 12 -1 -2
BITMAP 
0060
0060
0060
00c0
00c0
00c0
0180
0180
0180
0300
0300
0000
ENDCHAR
STARTCHAR U+3164
ENCODING 12644
SWIDTH 1000 0
DWIDTH 12 0
BBX 15 12 -1 -2
BITMAP 
0000
0000
0000
0000
0000
0000
0000
0000
0000
0000
0000
0000
ENDCHAR
STARTCHAR U+3165
ENCODING 12645
SWIDTH 1000 0
DWIDTH 12 0
BBX 15 12 -1 -2
BITMAP 
0000
0000
0660
0cc0
0cc0
0cc0
1980
1ff0
0000
0000
0000
0000
ENDCHAR
STARTCHAR U+3166
ENCODING 12646
SWIDTH 1000 0
DWIDTH 12 0
BBX 15 12 -1 -2
BITMAP 
0000
0000
067c
0cc0
0cc0
0cc0
1980
1ff0
0000
0000
0000
0000
ENDCHAR
STARTCHAR U+3167
ENCODING 12647
SWIDTH 1000 0
DWIDTH 12 0
BBX 15 12 -1 -2
BITMAP 
0000
0000
0618
0c30
0c30
0c70
18d0
1f98
0000
0000
0000
0000
ENDCHAR
STARTCHAR U+3168
ENCODING 12648
SWIDTH 1000 0
DWIDTH 12 0
BBX 15 12 -1 -2
BITMAP 
0000
0000
0618
0c30
0c68
0cd8
1998
1ff8
0000
0000
0000
0000
ENDCHAR
STARTCHAR U+3169
ENCODING 12649
SWIDTH 1000 0
DWIDTH 12 0
BBX 15 12 -1 -2
BITMAP 
0000
0000
0fec
06d8
1ed8
18d8
31a8
3da8
0000
0000
0000
0000
ENDCHAR
STARTCHAR U+316A
ENCODING 12650
SWIDTH 1000 0
DWIDTH 12 0
BBX 15 12 -1 -2
BITMAP 
0000
0000
07de
01a0
0fa0
0c60
18c0
1f78
0000
0000
0000
0000
ENDCHAR
STARTCHAR U+316B
ENCODING 12651
SWIDTH 1000 0
DWIDTH 12 0
BBX 15 12 -1 -2
BITMAP 
0000
0000
0f56
06ac
1eec
19a8
3358
3dd0
0000
0000
0000
0000
ENDCHAR
STARTCHAR U+316C
ENCODING 12652
SWIDTH 1000 0
DWIDTH 12 0
BBX 15 12 -1 -2
BITMAP 
0000
0000
07d8
01b0
0fa8
0cd8
1998
1ff8
0000
0000
0000
0000
ENDCHAR
STARTCHAR U+316D
ENCODING 12653
SWIDTH 1000 0
DWIDTH 12 0
BBX 15 12 -1 -2
BITMAP 
0000
0000
07de
0180
0fb0
0c68
1868
1f30
0000
0000
0000
0000
ENDCHAR
STARTCHAR U+316E
ENCODING 12654
SWIDTH 1000 0
DWIDTH 12 0
BBX 15 12 -1 -2
BITMAP 
0000
0000
07d6
0dac
0dbc
0dac
1b58
1f78
0000
0000
0000
0000
ENDCHAR
STARTCHAR U+316F
ENCODING 12655
SWIDTH 1000 0
DWIDTH 12 0
BBX 15 12 -1 -2
BITMAP 
0000
0000
07d8
0db0
0db0
0db0
1b50
1f98
0000
0000
0000
0000
ENDCHAR
STARTCHAR U+3170
ENCODING 12656
SWIDTH 1000 0
DWIDTH 12 0
BBX 15 12 -1 -2
BITMAP 
0000
0000
07d8
0db0
0da8
0dd8
1b98
1ff8
0000
0000
0000
0000
ENDCHAR
STARTCHAR U+3171
ENCODING 12657
SWIDTH 1000 0
DWIDTH 12 0
BBX 15 12 -1 -2
BITMAP 
03f8
0318
0318
07f0
0180
03c0
0660
0c60
07c0
0000
0000
0000
ENDCHAR
STARTCHAR U+3172
ENCODING 12658
SWIDTH 1000 0
DWIDTH 12 0
BBX 15 12 -1 -2
BITMAP 
0000
0000
06de
0d8c
0f8c
0d8c
1b18
1f18
0000
0000
0000
0000
ENDCHAR
STARTCHAR U+3173
ENCODING 12659
SWIDTH 1000 0
DWIDTH 12 0
BBX 15 12 -1 -2
BITMAP 
0000
0000
06de
0da0
0fa0
0da0
1b40
1f78
0000
0000
0000
0000
ENDCHAR
STARTCHAR U+3174
ENCODING 12660
SWIDTH 1000 0
DWIDTH 12 0
BBX 15 12 -1 -2
BITMAP 
0000
0000
0d6e
1acc
1ecc
1acc
3558
3e68
0000
0000
0000
0000
ENDCHAR
STARTCHAR U+3175
ENCODING 12661
SWIDTH 1000 0
DWIDTH 12 0
BBX 15 12 -1 -2
BITMAP 
0000
0000
0d6e
1ad8
1ed8
1ad8
3550
3e78
0000
0000
0000
0000
ENDCHAR
STARTCHAR U+3176
ENCODING 12662
SWIDTH 1000 0
DWIDTH 12 0
BBX 15 12 -1 -2
BITMAP 
0000
0000
06fe
0db0
0fb0
0db0
1b50
1f98
0000
0000
0000
0000
ENDCHAR
STARTCHAR U+3177
ENCODING 12663
SWIDTH 1000 0
DWIDTH 12 0
BBX 15 12 -1 -2
BITMAP 
0000
0000
06de
0da0
0fbc
0da0
1b40
1f78
0000
0000
0000
0000
ENDCHAR
STARTCHAR U+3178
ENCODING 12664
SWIDTH 1000 0
DWIDTH 12 0
BBX 15 12 -1 -2
BITMAP 
0198
01f8
0198
03f0
00c0
01e0
0360
0660
03c0
0000
0000
0000
ENDCHAR
STARTCHAR U+3179
ENCODING 12665
SWIDTH 1000 0
DWIDTH 12 0
BBX 15 12 -1 -2
BITMAP 
0354
03dc
0354
07b8
00c0
01e0
0360
0660
03c0
0000
0000
0000
ENDCHAR
STARTCHAR U+317A
ENCODING 12666
SWIDTH 1000 0
DWIDTH 12 0
BBX 15 12 -1 -2
BITMAP 
0000
0000
01bc
0318
0318
0718
0d30
19b0
0000
0000
0000
0000
ENDCHAR
STARTCHAR U+317B
ENCODING 12667
SWIDTH 1000 0
DWIDTH 12 0
BBX 15 12 -1 -2
BITMAP 
0000
0000
01b0
0360
0360
0760
0d40
19f8
0000
0000
0000
0000
ENDCHAR
STARTCHAR U+317C
ENCODING 12668
SWIDTH 1000 0
DWIDTH 12 0
BBX 15 12 -1 -2
BITMAP 
0000
0000
01be
0360
0360
0760
0d40
19f8
0000
0000
0000
0000
ENDCHAR
STARTCHAR U+317D
ENCODING 12669
SWIDTH 1000 0
DWIDTH 12 0
BBX 15 12 -1 -2
BITMAP 
0000
0000
01b6
036c
037c
076c
0d58
19f8
0000
0000
0000
0000
ENDCHAR
STARTCHAR U+317E
ENCODING 12670
SWIDTH 1000 0
DWIDTH 12 0
BBX 15 12 -1 -2
BITMAP 
0000
0000
067e
0c30
0c30
0c70
18d0
1f98
0000
0000
0000
0000
ENDCHAR
STARTCHAR U+317F
ENCODING 12671
SWIDTH 1000 0
DWIDTH 12 0
BBX 15 12 -1 -2
BITMAP 
0000
0000
0060
00c0
01a0
0330
0630
0ff0
0000
0000
0000
0000
ENDCHAR
STARTCHAR U+3180
ENCODING 12672
SWIDTH 1000 0
DWIDTH 12 0
BBX 15 12 -1 -2
BITMAP 
0000
0000
0618
0738
0dac
0dac
0d68
0670
0000
0000
0000
0000
ENDCHAR
STARTCHAR U+3181
ENCODING 12673
SWIDTH 1000 0
DWIDTH 12 0
BBX 15 12 -1 -2
BITMAP 
0000
0000
0060
03f0
0618
0618
0630
03e0
0000
0000
0000
0000
ENDCHAR
STARTCHAR U+3182
ENCODING 12674
SWIDTH 1000 0
DWIDTH 12 0
BBX 15 12 -1 -2
BITMAP 
0000
0000
0318
0f30
19b0
19b0
1b50
0e98
0000
0000
0000
0000
ENDCHAR
STARTCHAR U+3183
ENCODING 12675
SWIDTH 1000 0
DWIDTH 12 0
BBX 15 12 -1 -2
BITMAP 
0000
0000
0c18
0e30
1b68
1b58
1a98
0df8
0000
0000
0000
0000
ENDCHAR
STARTCHAR U+3184
ENCODING 12676
SWIDTH 1000 0
DWIDTH 12 0
BBX 15 12 -1 -2
BITMAP 
03f8
01b0
01b0
0ff8
0180
03c0
0660
0c60
07c0
0000
0000
0000
ENDCHAR
STARTCHAR U+3185
ENCODING 12677
SWIDTH 1000 0
DWIDTH 12 0
BBX 15 12 -1 -2
BITMAP 
0000
039c
0000
1ffc
0738
0d6c
0d68
0670
0000
0000
0000
0000
ENDCHAR
STARTCHAR U+3186
ENCODING 12678
SWIDTH 1000 0
DWIDTH 12 0
BBX 15 12 -1 -2
BITMAP 
0000
0000
03fc
0000
01c0
0360
0360
01c0
0000
0000
0000
0000
ENDCHAR
STARTCHAR U+3187
ENCODING 12679
SWIDTH 1000 0
DWIDTH 12 0
BBX 15 12 -1 -2
BITMAP 
000c
000c
000c
0018
06d8
06dc
0db0
3ff8
0030
0060
0060
0000
ENDCHAR
STARTCHAR U+3188
ENCODING 12680
SWIDTH 1000 0
DWIDTH 12 0
BBX 15 12 -1 -2
BITMAP 
0006
0036
0036
006c
0d7c
0d6c
1ad8
3ff8
00d8
01b0
0030
0000
ENDCHAR
STARTCHAR U+3189
ENCODING 12681
SWIDTH 1000 0
DWIDTH 12 0
BBX 15 12 -1 -2
BITMAP 
000c
000c
000c
0018
06d8
06d8
0db0
3ff0
0030
0060
0060
0000
ENDCHAR
STARTCHAR U+318A
ENCODING 12682
SWIDTH 1000 0
DWIDTH 12 0
BBX 15 12 -1 -2
BITMAP 
000c
000c
000c
0018
1fe8
0698
0d70
0d30
0d70
1a60
0060
0000
ENDCHAR
STARTCHAR U+318B
ENCODING 12683
SWIDTH 1000 0
DWIDTH 12 0
BBX 15 12 -1 -2
BITMAP 
001a
001a
001a
0034
1fd4
0d34
1ae8
1a68
1ae8
34d0
00d0
0000
ENDCHAR
STARTCHAR U+318C
ENCODING 12684
SWIDTH 1000 0
DWIDTH 12 0
BBX 15 12 -1 -2
BITMAP 
000c
000c
000c
0018
1ff8
06d8
0db0
0db0
0db0
1b60
0060
0000
ENDCHAR
STARTCHAR U+318D
ENCODING 12685
SWIDTH 1000 0
DWIDTH 12 0
BBX 15 12 -1 -2
BITMAP 
0000
0000
0000
0000
00c0
00c0
0000
0000
0000
0000
0000
0000
ENDCHAR
STARTCHAR U+318E
ENCODING 12686
SWIDTH 1000 0
DWIDTH 12 0
BBX 15 12 -1 -2
BITMAP 
000c
000c
000c
0018
0018
0318
0630
0030
0030
0060
0060
0000
ENDCHAR
STARTCHAR U+3200
ENCODING 12800
SWIDTH 1000 0
DWIDTH 12 0
BBX 15 12 -1 -2
BITMAP 
030c
0606
0c06
0df0
1830
1830
3060
3060
3018
3030
1860
0000
ENDCHAR
STARTCHAR U+3201
ENCODING 12801
SWIDTH 1000 0
DWIDTH 12 0
BBX 15 12 -1 -2
BITMAP 
030c
0606
0c06
0d00
1b00
1b00
3600
37e0
3018
3030
1860
0000
ENDCHAR
STARTCHAR U+3202
ENCODING 12802
SWIDTH 1000 0
DWIDTH 12 0
BBX 15 12 -1 -2
BITMAP 
030c
0606
0c06
0df0
1b00
1b00
3600
37e0
3018
3030
1860
0000
ENDCHAR
STARTCHAR U+3203
ENCODING 12803
SWIDTH 1000 0
DWIDTH 12 0
BBX 15 12 -1 -2
BITMAP 
030c
0606
0c06
0df0
1830
1bf0
3600
37e0
3018
3030
1860
0000
ENDCHAR
STARTCHAR U+3204
ENCODING 12804
SWIDTH 1000 0
DWIDTH 12 0
BBX 15 12 -1 -2
BITMAP 
030c
0606
0c06
0df0
1b30
1b30
3660
37e0
3018
3030
1860
0000
ENDCHAR
STARTCHAR U+3205
ENCODING 12805
SWIDTH 1000 0
DWIDTH 12 0
BBX 15 12 -1 -2
BITMAP 
030c
0606
0c06
0d30
1b30
1bf0
3660
37e0
3018
3030
1860
0000
ENDCHAR
STARTCHAR U+3206
ENCODING 12806
SWIDTH 1000 0
DWIDTH 12 0
BBX 15 12 -1 -2
BITMAP 
030c
0606
0c06
0cc0
18c0
19c0
3340
3660
3018
3030
1860
0000
ENDCHAR
STARTCHAR U+3207
ENCODING 12807
SWIDTH 1000 0
DWIDTH 12 0
BBX 15 12 -1 -2
BITMAP 
030c
0606
0c06
0de0
1b30
1b30
3360
31c0
3018
3030
1860
0000
ENDCHAR
STARTCHAR U+3208
ENCODING 12808
SWIDTH 1000 0
DWIDTH 12 0
BBX 15 12 -1 -2
BITMAP 
030c
0606
0c06
0df0
18c0
19c0
3340
3660
3018
3030
1860
0000
ENDCHAR
STARTCHAR U+3209
ENCODING 12809
SWIDTH 1000 0
DWIDTH 12 0
BBX 15 12 -1 -2
BITMAP 
030c
0606
0cf6
0c00
1bf0
19c0
3340
3660
3018
3030
1860
0000
ENDCHAR
STARTCHAR U+320A
ENCODING 12810
SWIDTH 1000 0
DWIDTH 12 0
BBX 15 12 -1 -2
BITMAP 
030c
0606
0c06
0df0
1830
1bf0
3060
3060
3018
3030
1860
0000
ENDCHAR
STARTCHAR U+320B
ENCODING 12811
SWIDTH 1000 0
DWIDTH 12 0
BBX 15 12 -1 -2
BITMAP 
030c
0606
0c06
0df0
1b00
1bf0
3600
37e0
3018
3030
1860
0000
ENDCHAR
STARTCHAR U+320C
ENCODING 12812
SWIDTH 1000 0
DWIDTH 12 0
BBX 15 12 -1 -2
BITMAP 
030c
0606
0c06
0df0
19a0
19a0
3340
37e0
3018
3030
1860
0000
ENDCHAR
STARTCHAR U+320D
ENCODING 12813
SWIDTH 1000 0
DWIDTH 12 0
BBX 15 12 -1 -2
BITMAP 
030c
0606
0cf6
0c00
1bf8
19a0
3360
3660
33d8
3030
1860
0000
ENDCHAR
STARTCHAR U+320E
ENCODING 12814
SWIDTH 1000 0
DWIDTH 12 0
BBX 15 12 -1 -2
BITMAP 
030c
0606
0dea
0cd0
18d0
19b8
3360
3660
3068
3030
1860
0000
ENDCHAR
STARTCHAR U+320F
ENCODING 12815
SWIDTH 1000 0
DWIDTH 12 0
BBX 15 12 -1 -2
BITMAP 
030c
0606
0d9a
0d30
1b30
1b38
3660
37a0
3068
3030
1860
0000
ENDCHAR
STARTCHAR U+3210
ENCODING 12816
SWIDTH 1000 0
DWIDTH 12 0
BBX 15 12 -1 -2
BITMAP 
030c
0606
0dea
0d30
1b30
1b38
3660
37a0
3068
3030
1860
0000
ENDCHAR
STARTCHAR U+3211
ENCODING 12817
SWIDTH 1000 0
DWIDTH 12 0
BBX 15 12 -1 -2
BITMAP 
030c
0606
07ea
0cd0
1bd0
1a38
3460
37a0
3868
3030
1860
0000
ENDCHAR
STARTCHAR U+3212
ENCODING 12818
SWIDTH 1000 0
DWIDTH 12 0
BBX 15 12 -1 -2
BITMAP 
030c
0606
0dea
0d50
1b50
1b58
36a0
37a0
3068
3030
1860
0000
ENDCHAR
STARTCHAR U+3213
ENCODING 12819
SWIDTH 1000 0
DWIDTH 12 0
BBX 15 12 -1 -2
BITMAP 
030c
0606
0daa
0d50
1bd0
1b58
36a0
37a0
3068
3030
1860
0000
ENDCHAR
STARTCHAR U+3214
ENCODING 12820
SWIDTH 1000 0
DWIDTH 12 0
BBX 15 12 -1 -2
BITMAP 
030c
0606
0cda
0db0
19b0
1bb8
36a0
34e0
3868
3030
1860
0000
ENDCHAR
STARTCHAR U+3215
ENCODING 12821
SWIDTH 1000 0
DWIDTH 12 0
BBX 15 12 -1 -2
BITMAP 
030c
0606
0cda
0dd0
1b50
1b58
33a0
3360
3068
3030
1860
0000
ENDCHAR
STARTCHAR U+3216
ENCODING 12822
SWIDTH 1000 0
DWIDTH 12 0
BBX 15 12 -1 -2
BITMAP 
030c
0606
0dea
0db0
19b0
1bb8
36a0
34e0
3868
3030
1860
0000
ENDCHAR
STARTCHAR U+3217
ENCODING 12823
SWIDTH 1000 0
DWIDTH 12 0
BBX 15 12 -1 -2
BITMAP 
030c
0606
0dda
0c30
1bd0
19b8
3760
35a0
3868
3030
1860
0000
ENDCHAR
STARTCHAR U+3218
ENCODING 12824
SWIDTH 1000 0
DWIDTH 12 0
BBX 15 12 -1 -2
BITMAP 
030c
0606
0dea
0cd0
1bd0
19b8
3360
3660
3068
3030
1860
0000
ENDCHAR
STARTCHAR U+3219
ENCODING 12825
SWIDTH 1000 0
DWIDTH 12 0
BBX 15 12 -1 -2
BITMAP 
030c
0606
07ea
0e30
1bd0
1a38
3460
37a0
3868
3030
1860
0000
ENDCHAR
STARTCHAR U+321A
ENCODING 12826
SWIDTH 1000 0
DWIDTH 12 0
BBX 15 12 -1 -2
BITMAP 
030c
0606
07ea
0c30
1b50
1b58
36a0
37e0
3868
3030
1860
0000
ENDCHAR
STARTCHAR U+321B
ENCODING 12827
SWIDTH 1000 0
DWIDTH 12 0
BBX 15 12 -1 -2
BITMAP 
030c
0606
0dda
0c30
1bd0
1bb8
35a0
3760
3068
3030
1860
0000
ENDCHAR
STARTCHAR U+321C
ENCODING 12828
SWIDTH 1000 0
DWIDTH 12 0
BBX 15 12 -1 -2
BITMAP 
030c
0606
0dfa
0cc0
1bb0
1800
37f0
3180
3198
3330
1860
0000
ENDCHAR
STARTCHAR U+3220
ENCODING 12832
SWIDTH 1000 0
DWIDTH 12 0
BBX 15 12 -1 -2
BITMAP 
0000
1818
3018
6018
6018
6ff8
c030
c030
c030
c060
c0c0
0000
ENDCHAR
STARTCHAR U+3221
ENCODING 12833
SWIDTH 1000 0
DWIDTH 12 0
BBX 15 12 -1 -2
BITMAP 
0000
1818
3018
6fe8
6018
6018
c030
dfd0
c030
c060
c0c0
0000
ENDCHAR
STARTCHAR U+3222
ENCODING 12834
SWIDTH 1000 0
DWIDTH 12 0
BBX 15 12 -1 -2
BITMAP 
0000
1818
37f8
6018
6018
6fd8
c030
c030
dff0
c060
c0c0
0000
ENDCHAR
STARTCHAR U+3223
ENCODING 12835
SWIDTH 1000 0
DWIDTH 12 0
BBX 15 12 -1 -2
BITMAP 
0000
1818
300c
7ff8
76d8
76d8
edb0
fff0
c030
c060
c0c0
0000
ENDCHAR
STARTCHAR U+3224
ENCODING 12836
SWIDTH 1000 0
DWIDTH 12 0
BBX 15 12 -1 -2
BITMAP 
0000
1818
37f8
6618
6618
6fe8
cdb0
cdb0
cdb0
ffe0
c0c0
0000
ENDCHAR
STARTCHAR U+3225
ENCODING 12837
SWIDTH 1000 0
DWIDTH 12 0
BBX 15 12 -1 -2
BITMAP 
0000
1818
3018
6318
6fe8
6018
c030
cdb0
d9b0
e1a0
c0c0
0000
ENDCHAR
STARTCHAR U+3226
ENCODING 12838
SWIDTH 1000 0
DWIDTH 12 0
BBX 15 12 -1 -2
BITMAP 
0000
1818
3318
6618
66e8
6798
dc30
cc30
cc30
c360
c740
0000
ENDCHAR
STARTCHAR U+3227
ENCODING 12839
SWIDTH 1000 0
DWIDTH 12 0
BBX 15 12 -1 -2
BITMAP 
0000
1818
30d8
6698
6698
6d98
d9b0
c0d0
c0d0
c060
c0c0
0000
ENDCHAR
STARTCHAR U+3228
ENCODING 12840
SWIDTH 1000 0
DWIDTH 12 0
BBX 15 12 -1 -2
BITMAP 
0000
1818
3318
66d8
6fd8
66d8
cdb0
cdb0
d9b0
f1e0
c0c0
0000
ENDCHAR
STARTCHAR U+3229
ENCODING 12841
SWIDTH 1000 0
DWIDTH 12 0
BBX 15 12 -1 -2
BITMAP 
0000
1818
3198
6318
6fe8
6318
c630
c630
c630
cc60
c0c0
0000
ENDCHAR
STARTCHAR U+3231
ENCODING 12849
SWIDTH 1000 0
DWIDTH 12 0
BBX 15 12 -1 -2
BITMAP 
0000
0c0c
1b66
3ffc
36ec
37ac
6ff8
75d8
75e8
dab0
ddb0
69a0
ENDCHAR
STARTCHAR U+3232
ENCODING 12850
SWIDTH 1000 0
DWIDTH 12 0
BBX 15 12 -1 -2
BITMAP 
0000
0d8c
1986
3ffc
330c
37f4
6c68
6fe8
7468
dfd0
d8d0
71e0
ENDCHAR
STARTCHAR U+3239
ENCODING 12857
SWIDTH 1000 0
DWIDTH 12 0
BBX 15 12 -1 -2
BITMAP 
0000
0c6c
1b74
3354
35fc
34cc
78d8
68d8
68d8
d0d0
d0d0
7060
ENDCHAR
STARTCHAR U+3260
ENCODING 12896
SWIDTH 1000 0
DWIDTH 12 0
BBX 15 12 -1 -2
BITMAP 
01f8
030c
0606
0df0
1830
1830
3060
3060
1838
1860
0fc0
0000
ENDCHAR
STARTCHAR U+3261
ENCODING 12897
SWIDTH 1000 0
DWIDTH 12 0
BBX 15 12 -1 -2
BITMAP 
01f8
030c
0606
0d00
1b00
1b00
3600
37e0
1838
1860
0fc0
0000
ENDCHAR
STARTCHAR U+3262
ENCODING 12898
SWIDTH 1000 0
DWIDTH 12 0
BBX 15 12 -1 -2
BITMAP 
01f8
030c
0606
0df0
1b00
1b00
3600
37e0
1838
1860
0fc0
0000
ENDCHAR
STARTCHAR U+3263
ENCODING 12899
SWIDTH 1000 0
DWIDTH 12 0
BBX 15 12 -1 -2
BITMAP 
01f8
030c
0606
0df0
1830
1bf0
3600
37e0
1838
1860
0fc0
0000
ENDCHAR
STARTCHAR U+3264
ENCODING 12900
SWIDTH 1000 0
DWIDTH 12 0
BBX 15 12 -1 -2
BITMAP 
01f8
030c
0606
0df0
1b30
1b30
3660
37e0
1838
1860
0fc0
0000
ENDCHAR
STARTCHAR U+3265
ENCODING 12901
SWIDTH 1000 0
DWIDTH 12 0
BBX 15 12 -1 -2
BITMAP 
01f8
030c
0606
0d30
1b30
1bf0
3660
37e0
1838
1860
0fc0
0000
ENDCHAR
STARTCHAR U+3266
ENCODING 12902
SWIDTH 1000 0
DWIDTH 12 0
BBX 15 12 -1 -2
BITMAP 
01f8
030c
0606
0cc0
18c0
19c0
3340
3660
1838
1860
0fc0
0000
ENDCHAR
STARTCHAR U+3267
ENCODING 12903
SWIDTH 1000 0
DWIDTH 12 0
BBX 15 12 -1 -2
BITMAP 
01f8
030c
0606
0de0
1b30
1b30
3360
31c0
1838
1860
0fc0
0000
ENDCHAR
STARTCHAR U+3268
ENCODING 12904
SWIDTH 1000 0
DWIDTH 12 0
BBX 15 12 -1 -2
BITMAP 
01f8
030c
0606
0df0
18c0
19c0
3340
3660
1838
1860
0fc0
0000
ENDCHAR
STARTCHAR U+3269
ENCODING 12905
SWIDTH 1000 0
DWIDTH 12 0
BBX 15 12 -1 -2
BITMAP 
01f8
030c
06f6
0c00
1bf0
19c0
3340
3660
1838
1860
0fc0
0000
ENDCHAR
STARTCHAR U+326A
ENCODING 12906
SWIDTH 1000 0
DWIDTH 12 0
BBX 15 12 -1 -2
BITMAP 
01f8
030c
0606
0df0
1830
1bf0
3060
3060
1838
1860
0fc0
0000
ENDCHAR
STARTCHAR U+326B
ENCODING 12907
SWIDTH 1000 0
DWIDTH 12 0
BBX 15 12 -1 -2
BITMAP 
01f8
030c
0606
0df0
1b00
1bf0
3600
37e0
1838
1860
0fc0
0000
ENDCHAR
STARTCHAR U+326C
ENCODING 12908
SWIDTH 1000 0
DWIDTH 12 0
BBX 15 12 -1 -2
BITMAP 
01f8
030c
0606
0df0
19a0
19a0
3340
37e0
1838
1860
0fc0
0000
ENDCHAR
STARTCHAR U+326D
ENCODING 12909
SWIDTH 1000 0
DWIDTH 12 0
BBX 15 12 -1 -2
BITMAP 
01f8
030c
06f6
0c00
1bf8
19a0
3360
3660
1bd8
1860
0fc0
0000
ENDCHAR
STARTCHAR U+326E
ENCODING 12910
SWIDTH 1000 0
DWIDTH 12 0
BBX 15 12 -1 -2
BITMAP 
01f8
030c
06ea
0cd0
18d0
19b8
3360
3660
1878
1860
0fc0
0000
ENDCHAR
STARTCHAR U+326F
ENCODING 12911
SWIDTH 1000 0
DWIDTH 12 0
BBX 15 12 -1 -2
BITMAP 
01f8
030c
071a
0d30
1b30
1b38
3660
37a0
1878
1860
0fc0
0000
ENDCHAR
STARTCHAR U+3270
ENCODING 12912
SWIDTH 1000 0
DWIDTH 12 0
BBX 15 12 -1 -2
BITMAP 
01f8
030c
07ea
0d30
1b30
1b38
3660
37a0
1878
1860
0fc0
0000
ENDCHAR
STARTCHAR U+3271
ENCODING 12913
SWIDTH 1000 0
DWIDTH 12 0
BBX 15 12 -1 -2
BITMAP 
01f8
030c
06ea
0cd0
1bd0
1b38
3660
37a0
1878
1860
0fc0
0000
ENDCHAR
STARTCHAR U+3272
ENCODING 12914
SWIDTH 1000 0
DWIDTH 12 0
BBX 15 12 -1 -2
BITMAP 
01f8
030c
07ea
0d50
1b50
1b58
36a0
37a0
1878
1860
0fc0
0000
ENDCHAR
STARTCHAR U+3273
ENCODING 12915
SWIDTH 1000 0
DWIDTH 12 0
BBX 15 12 -1 -2
BITMAP 
01f8
030c
076a
0d50
1bd0
1b58
36a0
37a0
1878
1860
0fc0
0000
ENDCHAR
STARTCHAR U+3274
ENCODING 12916
SWIDTH 1000 0
DWIDTH 12 0
BBX 15 12 -1 -2
BITMAP 
01f8
030c
06da
0db0
19b0
1bb8
36a0
34e0
1878
1860
0fc0
0000
ENDCHAR
STARTCHAR U+3275
ENCODING 12917
SWIDTH 1000 0
DWIDTH 12 0
BBX 15 12 -1 -2
BITMAP 
01f8
030c
06da
0d50
1b50
1b58
33a0
3360
1878
1860
0fc0
0000
ENDCHAR
STARTCHAR U+3276
ENCODING 12918
SWIDTH 1000 0
DWIDTH 12 0
BBX 15 12 -1 -2
BITMAP 
01f8
030c
06ea
0db0
19b0
1bb8
36a0
34e0
1878
1860
0fc0
0000
ENDCHAR
STARTCHAR U+3277
ENCODING 12919
SWIDTH 1000 0
DWIDTH 12 0
BBX 15 12 -1 -2
BITMAP 
01f8
030c
06da
0c30
1bd0
19b8
3760
35a0
1878
1860
0fc0
0000
ENDCHAR
STARTCHAR U+3278
ENCODING 12920
SWIDTH 1000 0
DWIDTH 12 0
BBX 15 12 -1 -2
BITMAP 
01f8
030c
06ea
0cd0
1bd0
19b8
3360
3660
1878
1860
0fc0
0000
ENDCHAR
STARTCHAR U+3279
ENCODING 12921
SWIDTH 1000 0
DWIDTH 12 0
BBX 15 12 -1 -2
BITMAP 
01f8
030c
07ea
0d30
1bd0
1b38
3660
37a0
1878
1860
0fc0
0000
ENDCHAR
STARTCHAR U+327A
ENCODING 12922
SWIDTH 1000 0
DWIDTH 12 0
BBX 15 12 -1 -2
BITMAP 
01f8
030c
07ea
0c30
1b50
1b58
36a0
37e0
1878
1860
0fc0
0000
ENDCHAR
STARTCHAR U+327B
ENCODING 12923
SWIDTH 1000 0
DWIDTH 12 0
BBX 15 12 -1 -2
BITMAP 
01f8
030c
06da
0c30
1bd0
1bb8
35a0
3760
1878
1860
0fc0
0000
ENDCHAR
STARTCHAR U+327F
ENCODING 12927
SWIDTH 1000 0
DWIDTH 12 0
BBX 15 12 -1 -2
BITMAP 
01f8
030c
0606
0db0
19a0
1ec0
0358
3360
1838
1860
0fc0
0000
ENDCHAR
STARTCHAR U+32A3
ENCODING 12963
SWIDTH 1000 0
DWIDTH 12 0
BBX 15 12 -1 -2
BITMAP 
0000
07f0
0c18
1818
37e8
3198
6db0
6d30
7fe0
60c0
3f80
0000
ENDCHAR
STARTCHAR U+32A4
ENCODING 12964
SWIDTH 1000 0
DWIDTH 12 0
BBX 15 12 -1 -2
BITMAP 
0000
03f0
0ed8
1998
318c
31f4
6318
6318
6330
3fe0
30c0
1f80
ENDCHAR
STARTCHAR U+32A5
ENCODING 12965
SWIDTH 1000 0
DWIDTH 12 0
BBX 15 12 -1 -2
BITMAP 
0000
03f0
0ed8
1998
37f4
35b4
6b68
6fe8
7378
6660
36c0
1f80
ENDCHAR
STARTCHAR U+32A6
ENCODING 12966
SWIDTH 1000 0
DWIDTH 12 0
BBX 15 12 -1 -2
BITMAP 
0000
03f0
0e18
1bf8
318c
31cc
6358
6368
6330
6660
36c0
1f80
ENDCHAR
STARTCHAR U+32A7
ENCODING 12967
SWIDTH 1000 0
DWIDTH 12 0
BBX 15 12 -1 -2
BITMAP 
0000
03f0
0e98
1b18
3ffc
330c
6fe8
6998
79b0
6fe0
30c0
1f80
ENDCHAR
STARTCHAR U+32A8
ENCODING 12968
SWIDTH 1000 0
DWIDTH 12 0
BBX 15 12 -1 -2
BITMAP 
0000
03f0
0e98
1b18
3ffc
360c
6fe8
6a68
7a70
6fe0
30c0
1f80
ENDCHAR
STARTCHAR U+32D0
ENCODING 13008
SWIDTH 1000 0
DWIDTH 12 0
BBX 15 12 -1 -2
BITMAP 
0000
03f0
0e18
19f8
3734
336c
6398
6318
6630
6c60
38c0
1f80
ENDCHAR
STARTCHAR U+32D1
ENCODING 13009
SWIDTH 1000 0
DWIDTH 12 0
BBX 15 12 -1 -2
BITMAP 
0000
03f0
0e38
1868
30cc
338c
6e18
6318
6330
6660
36c0
1f80
ENDCHAR
STARTCHAR U+32D2
ENCODING 13010
SWIDTH 1000 0
DWIDTH 12 0
BBX 15 12 -1 -2
BITMAP 
0000
03f0
0e98
1998
31f4
376c
6c68
6cd8
61b8
6360
36c0
1f80
ENDCHAR
STARTCHAR U+32D3
ENCODING 13011
SWIDTH 1000 0
DWIDTH 12 0
BBX 15 12 -1 -2
BITMAP 
0000
03f0
0e18
1818
34f4
378c
6318
6318
6ff0
3860
30c0
1f80
ENDCHAR
STARTCHAR U+32D4
ENCODING 13012
SWIDTH 1000 0
DWIDTH 12 0
BBX 15 12 -1 -2
BITMAP 
0000
03f0
0ed8
18d8
34f4
37cc
6398
6698
7db0
6760
3340
1f80
ENDCHAR
STARTCHAR U+32D5
ENCODING 13013
SWIDTH 1000 0
DWIDTH 12 0
BBX 15 12 -1 -2
BITMAP 
0000
03f0
0e98
1998
35f4
37b4
6668
6668
6cf0
76a0
3340
1f80
ENDCHAR
STARTCHAR U+32D6
ENCODING 13014
SWIDTH 1000 0
DWIDTH 12 0
BBX 15 12 -1 -2
BITMAP 
0000
03f0
0f18
1b18
31ec
378c
6d68
6398
7eb0
6360
3340
1f80
ENDCHAR
STARTCHAR U+32D7
ENCODING 13015
SWIDTH 1000 0
DWIDTH 12 0
BBX 15 12 -1 -2
BITMAP 
0000
03f0
0e98
1998
31ec
334c
6ed8
6198
6338
6660
3cc0
1f80
ENDCHAR
STARTCHAR U+32D8
ENCODING 13016
SWIDTH 1000 0
DWIDTH 12 0
BBX 15 12 -1 -2
BITMAP 
0000
03f0
0f18
1b18
3374
37cc
6998
6198
6330
6660
34c0
1f80
ENDCHAR
STARTCHAR U+32D9
ENCODING 13017
SWIDTH 1000 0
DWIDTH 12 0
BBX 15 12 -1 -2
BITMAP 
0000
03f0
0e30
1838
35ec
376c
60d8
60d8
67d0
6da0
30c0
1f80
ENDCHAR
STARTCHAR U+32DA
ENCODING 13018
SWIDTH 1000 0
DWIDTH 12 0
BBX 15 12 -1 -2
BITMAP 
0000
03f0
0e68
1a68
336c
3bfc
6f58
66d8
61b0
6360
36c0
1f80
ENDCHAR
STARTCHAR U+32DB
ENCODING 13019
SWIDTH 1000 0
DWIDTH 12 0
BBX 15 12 -1 -2
BITMAP 
0000
03f0
0e18
1818
370c
319c
6c38
6668
61d0
6b60
36c0
1f80
ENDCHAR
STARTCHAR U+32DC
ENCODING 13020
SWIDTH 1000 0
DWIDTH 12 0
BBX 15 12 -1 -2
BITMAP 
0000
03f0
0638
1ae8
336c
30cc
60d8
6398
6ed0
68e0
30c0
1f80
ENDCHAR
STARTCHAR U+32DD
ENCODING 13021
SWIDTH 1000 0
DWIDTH 12 0
BBX 15 12 -1 -2
BITMAP 
0000
03f0
0618
1c18
36f4
376c
6d98
6c18
6630
63a0
30c0
1f80
ENDCHAR
STARTCHAR U+32DE
ENCODING 13022
SWIDTH 1000 0
DWIDTH 12 0
BBX 15 12 -1 -2
BITMAP 
0000
03f0
0e18
1818
3634
366c
6668
60d8
63b0
6660
34c0
1f80
ENDCHAR
STARTCHAR U+32DF
ENCODING 13023
SWIDTH 1000 0
DWIDTH 12 0
BBX 15 12 -1 -2
BITMAP 
0000
03f0
0e98
1998
31ec
376c
6d58
6198
6730
6c60
38c0
1f80
ENDCHAR
STARTCHAR U+32E0
ENCODING 13024
SWIDTH 1000 0
DWIDTH 12 0
BBX 15 12 -1 -2
BITMAP 
0000
03f0
0e38
18d8
378c
3bfc
6e98
6198
6338
6660
34c0
1f80
ENDCHAR
STARTCHAR U+32E1
ENCODING 13025
SWIDTH 1000 0
DWIDTH 12 0
BBX 15 12 -1 -2
BITMAP 
0000
03f0
0e18
1b68
35b4
35ac
6c68
60d8
61b8
6360
36c0
1f80
ENDCHAR
STARTCHAR U+32E2
ENCODING 13026
SWIDTH 1000 0
DWIDTH 12 0
BBX 15 12 -1 -2
BITMAP 
0000
03f0
0e18
1ae8
330c
39fc
6f18
6198
6338
6660
34c0
1f80
ENDCHAR
STARTCHAR U+32E3
ENCODING 13027
SWIDTH 1000 0
DWIDTH 12 0
BBX 15 12 -1 -2
BITMAP 
0000
03f0
0f18
1b18
330c
33cc
6668
6618
6630
6c60
34c0
1f80
ENDCHAR
STARTCHAR U+32E5
ENCODING 13029
SWIDTH 1000 0
DWIDTH 12 0
BBX 15 12 -1 -2
BITMAP 
0000
03f0
0e18
1818
35ec
370c
6018
6018
67f0
3c60
30c0
1f80
ENDCHAR
ENDFONT
